{"glyphs":{"0":{"ha":986,"x_min":43,"x_max":943,"o":"m 493 -21 q 251 40 353 -21 q 97 214 150 100 q 43 486 43 328 q 97 758 43 644 q 251 933 150 872 q 493 993 353 993 q 735 933 633 993 q 890 758 836 872 q 943 486 943 644 q 825 113 943 246 q 493 -21 707 -21 m 361 486 q 394 317 361 375 q 493 260 428 260 q 592 318 558 260 q 625 486 625 376 q 592 655 625 597 q 493 713 558 713 q 394 655 428 713 q 361 486 361 597 z "},"1":{"ha":650,"x_min":29,"x_max":564,"o":"m 242 551 l 29 551 l 29 824 l 132 824 q 242 848 203 824 q 303 929 281 872 l 318 972 l 564 972 l 564 0 l 242 0 l 242 551 z "},"2":{"ha":903,"x_min":47,"x_max":835,"o":"m 47 225 l 450 538 q 496 587 481 563 q 511 640 511 611 q 489 701 511 678 q 428 724 467 724 q 364 698 386 724 q 340 622 342 672 l 51 622 q 158 897 57 800 q 439 993 260 993 q 638 953 553 993 q 770 840 724 914 q 817 667 817 767 q 777 507 817 582 q 643 358 738 432 l 536 275 l 538 269 l 635 275 l 835 275 l 835 0 l 47 0 l 47 225 z "},"3":{"ha":890,"x_min":38,"x_max":840,"o":"m 447 -21 q 151 69 258 -21 q 38 324 44 158 l 342 324 q 369 262 344 283 q 438 240 394 240 q 508 263 482 240 q 533 324 533 285 q 508 385 533 363 q 438 407 482 407 l 258 407 l 258 576 l 410 713 l 408 717 l 296 714 l 71 714 l 71 972 l 790 972 l 790 761 l 607 592 q 777 486 714 565 q 840 296 840 407 q 792 128 840 200 q 656 18 744 57 q 447 -21 567 -21 z "},"4":{"ha":963,"x_min":28,"x_max":940,"o":"m 28 367 l 306 972 l 650 972 l 392 411 l 549 411 l 596 644 l 826 644 l 826 419 l 940 419 l 940 151 l 826 151 l 826 0 l 518 0 l 518 151 l 28 151 l 28 367 z "},"5":{"ha":890,"x_min":46,"x_max":847,"o":"m 454 -21 q 159 69 265 -21 q 46 324 53 158 l 349 324 q 376 263 350 285 q 444 240 401 240 q 515 263 489 240 q 542 324 542 285 q 515 385 542 363 q 444 407 489 407 l 57 407 l 115 972 l 789 972 l 789 717 l 381 717 l 371 624 l 518 624 q 689 583 614 624 q 806 472 764 543 q 847 307 847 400 q 799 133 847 207 q 663 19 751 58 q 454 -21 574 -21 z "},"6":{"ha":913,"x_min":39,"x_max":867,"o":"m 453 -21 q 235 22 329 -21 q 90 144 142 65 q 39 326 39 222 q 62 459 39 392 q 135 611 85 526 l 351 972 l 717 972 l 531 664 q 707 617 631 660 q 825 499 783 574 q 867 331 867 425 q 815 146 867 225 q 670 23 764 67 q 453 -21 576 -21 m 347 332 q 377 258 347 288 q 453 229 407 229 q 528 258 499 229 q 558 332 558 288 q 528 406 558 376 q 453 435 499 435 q 377 406 407 435 q 347 332 347 376 z "},"7":{"ha":828,"x_min":42,"x_max":785,"o":"m 424 696 l 42 696 l 42 972 l 785 972 l 785 751 l 490 0 l 150 0 l 424 696 z "},"8":{"ha":901,"x_min":33,"x_max":868,"o":"m 450 -21 q 228 14 322 -21 q 84 114 135 49 q 33 267 33 179 q 70 404 33 343 q 175 500 107 465 q 91 590 121 535 q 61 713 61 644 q 109 860 61 797 q 244 958 157 924 q 450 993 332 993 q 656 959 568 993 q 792 861 744 925 q 840 713 840 797 q 810 590 840 644 q 726 500 781 535 q 831 403 793 464 q 868 267 868 342 q 817 113 868 178 q 672 14 767 49 q 450 -21 578 -21 m 339 296 q 369 226 339 251 q 450 200 399 200 q 533 226 503 200 q 563 296 563 251 q 533 365 563 339 q 450 390 503 390 q 369 365 399 390 q 339 296 339 339 m 343 688 q 372 622 343 646 q 450 597 401 597 q 529 622 500 597 q 558 688 558 646 q 528 753 558 729 q 450 778 499 778 q 372 753 401 778 q 343 688 343 729 z "},"9":{"ha":913,"x_min":46,"x_max":874,"o":"m 460 993 q 677 950 583 993 q 822 828 771 907 q 874 646 874 750 q 851 513 874 581 q 778 361 828 446 l 561 0 l 196 0 l 382 308 q 206 356 282 313 q 88 473 129 399 q 46 642 46 547 q 97 826 46 747 q 242 949 149 906 q 460 993 336 993 m 354 640 q 384 567 354 596 q 460 538 414 538 q 535 567 506 538 q 565 640 565 596 q 535 714 565 685 q 460 743 506 743 q 384 714 414 743 q 354 640 354 685 z "},"\r":{"ha":310,"x_min":0,"x_max":0,"o":""}," ":{"ha":310,"x_min":0,"x_max":0,"o":""},"A":{"ha":1082,"x_min":4,"x_max":1078,"o":"m 365 972 l 715 972 l 1078 0 l 725 0 l 682 121 l 397 121 l 354 0 l 4 0 l 365 972 m 629 343 l 543 610 l 538 610 l 453 343 l 629 343 z "},"Á":{"ha":1082,"x_min":4,"x_max":1078,"o":"m 365 972 l 715 972 l 1078 0 l 725 0 l 682 121 l 397 121 l 354 0 l 4 0 l 365 972 m 515 1276 l 763 1276 l 647 1063 l 439 1063 l 515 1276 m 629 343 l 543 610 l 538 610 l 453 343 l 629 343 z "},"Ă":{"ha":1082,"x_min":4,"x_max":1078,"o":"m 365 972 l 715 972 l 1078 0 l 725 0 l 682 121 l 397 121 l 354 0 l 4 0 l 365 972 m 314 1276 l 489 1276 l 489 1264 q 502 1227 489 1240 q 540 1214 515 1214 q 578 1227 565 1214 q 592 1264 592 1240 l 592 1276 l 765 1276 l 765 1254 q 709 1107 765 1158 q 540 1056 653 1056 q 373 1108 432 1056 q 314 1254 314 1160 l 314 1276 m 629 343 l 543 610 l 538 610 l 453 343 l 629 343 z "},"Ǎ":{"ha":1082,"x_min":4,"x_max":1078,"o":"m 365 972 l 715 972 l 1078 0 l 725 0 l 682 121 l 397 121 l 354 0 l 4 0 l 365 972 m 475 1276 l 540 1206 l 604 1276 l 826 1276 l 653 1063 l 428 1063 l 253 1276 l 475 1276 m 629 343 l 543 610 l 538 610 l 453 343 l 629 343 z "},"Â":{"ha":1082,"x_min":4,"x_max":1078,"o":"m 365 972 l 715 972 l 1078 0 l 725 0 l 682 121 l 397 121 l 354 0 l 4 0 l 365 972 m 428 1276 l 653 1276 l 826 1063 l 606 1063 l 540 1133 l 475 1063 l 253 1063 l 428 1276 m 629 343 l 543 610 l 538 610 l 453 343 l 629 343 z "},"Ä":{"ha":1082,"x_min":4,"x_max":1078,"o":"m 365 972 l 715 972 l 1078 0 l 725 0 l 682 121 l 397 121 l 354 0 l 4 0 l 365 972 m 240 1183 q 277 1278 240 1242 q 372 1315 314 1315 q 467 1278 431 1315 q 504 1183 504 1242 q 467 1089 504 1125 q 372 1053 431 1053 q 277 1089 314 1053 q 240 1183 240 1125 m 629 343 l 543 610 l 538 610 l 453 343 l 629 343 m 576 1183 q 613 1279 576 1243 q 708 1315 650 1315 q 803 1279 767 1315 q 839 1183 839 1243 q 803 1089 839 1125 q 708 1053 767 1053 q 613 1089 650 1053 q 576 1183 576 1125 z "},"À":{"ha":1082,"x_min":4,"x_max":1078,"o":"m 365 972 l 715 972 l 1078 0 l 725 0 l 682 121 l 397 121 l 354 0 l 4 0 l 365 972 m 564 1276 l 642 1063 l 433 1063 l 317 1276 l 564 1276 m 629 343 l 543 610 l 538 610 l 453 343 l 629 343 z "},"Ā":{"ha":1082,"x_min":4,"x_max":1078,"o":"m 365 972 l 715 972 l 1078 0 l 725 0 l 682 121 l 397 121 l 354 0 l 4 0 l 365 972 m 289 1250 l 792 1250 l 792 1082 l 289 1082 l 289 1250 m 629 343 l 543 610 l 538 610 l 453 343 l 629 343 z "},"Ą":{"ha":1082,"x_min":4,"x_max":1078,"o":"m 365 972 l 715 972 l 1078 0 q 1021 -49 1042 -22 q 1000 -103 1000 -76 q 1049 -144 1000 -144 l 1078 -144 l 1078 -301 l 963 -301 q 827 -265 876 -301 q 778 -162 778 -228 q 868 0 778 -75 l 725 0 l 682 121 l 397 121 l 354 0 l 4 0 l 365 972 m 629 343 l 543 610 l 538 610 l 453 343 l 629 343 z "},"Å":{"ha":1082,"x_min":4,"x_max":1078,"o":"m 365 972 l 715 972 l 1078 0 l 725 0 l 682 121 l 397 121 l 354 0 l 4 0 l 365 972 m 349 1196 q 401 1319 349 1272 q 540 1367 454 1367 q 679 1319 626 1367 q 732 1196 732 1272 q 679 1072 732 1119 q 540 1025 626 1025 q 401 1072 454 1025 q 349 1196 349 1119 m 629 343 l 543 610 l 538 610 l 453 343 l 629 343 m 489 1196 q 503 1160 489 1174 q 540 1146 518 1146 q 576 1160 563 1146 q 590 1196 590 1174 q 576 1233 590 1219 q 540 1247 563 1247 q 503 1233 518 1247 q 489 1196 489 1219 z "},"Ã":{"ha":1082,"x_min":4,"x_max":1078,"o":"m 365 972 l 715 972 l 1078 0 l 725 0 l 682 121 l 397 121 l 354 0 l 4 0 l 365 972 m 288 1111 q 325 1233 288 1190 q 433 1275 363 1275 q 493 1266 468 1275 q 543 1242 518 1257 q 594 1222 575 1222 q 621 1253 621 1222 l 621 1271 l 793 1271 l 793 1228 q 756 1106 793 1147 q 647 1064 719 1064 q 588 1073 613 1064 q 538 1097 563 1082 q 510 1112 521 1107 q 488 1117 500 1117 q 460 1086 460 1117 l 460 1068 l 288 1068 l 288 1111 m 629 343 l 543 610 l 538 610 l 453 343 l 629 343 z "},"Æ":{"ha":1407,"x_min":4,"x_max":1353,"o":"m 524 972 l 1340 972 l 1340 724 l 997 724 l 997 611 l 1303 611 l 1303 369 l 997 369 l 997 253 l 1353 253 l 1353 0 l 683 0 l 683 113 l 429 113 l 369 0 l 4 0 l 524 972 m 683 335 l 683 650 l 679 650 l 519 335 l 683 335 z "},"Ǽ":{"ha":1407,"x_min":4,"x_max":1353,"o":"m 524 972 l 1340 972 l 1340 724 l 997 724 l 997 611 l 1303 611 l 1303 369 l 997 369 l 997 253 l 1353 253 l 1353 0 l 683 0 l 683 113 l 429 113 l 369 0 l 4 0 l 524 972 m 683 335 l 683 650 l 679 650 l 519 335 l 683 335 m 810 1276 l 1057 1276 l 940 1063 l 732 1063 l 810 1276 z "},"B":{"ha":1004,"x_min":88,"x_max":971,"o":"m 88 972 l 619 972 q 856 903 769 972 q 943 713 943 833 q 912 583 943 640 q 822 493 881 526 q 931 403 890 464 q 971 265 971 343 q 930 127 971 188 q 814 33 889 67 q 643 0 739 0 l 88 0 l 88 972 m 547 229 q 612 249 589 229 q 635 306 635 269 q 612 363 635 343 q 547 383 589 383 l 411 383 l 411 229 l 547 229 m 529 596 q 592 615 569 596 q 614 671 614 635 q 592 726 614 707 q 529 746 569 746 l 411 746 l 411 596 l 529 596 z "},"C":{"ha":1111,"x_min":38,"x_max":1076,"o":"m 553 -21 q 283 43 400 -21 q 102 222 167 107 q 38 486 38 338 q 102 750 38 635 q 283 929 167 865 q 550 993 400 993 q 799 942 689 993 q 980 794 910 890 q 1072 567 1050 697 l 743 567 q 676 655 724 622 q 565 688 628 688 q 428 632 481 688 q 376 486 376 576 q 428 341 376 397 q 563 285 481 285 q 676 318 628 285 q 746 410 725 351 l 1076 410 q 988 183 1060 281 q 804 33 917 86 q 553 -21 692 -21 z "},"Ć":{"ha":1111,"x_min":38,"x_max":1076,"o":"m 553 -21 q 283 43 400 -21 q 102 222 167 107 q 38 486 38 338 q 102 750 38 635 q 283 929 167 865 q 550 993 400 993 q 799 942 689 993 q 980 794 910 890 q 1072 567 1050 697 l 743 567 q 676 655 724 622 q 565 688 628 688 q 428 632 481 688 q 376 486 376 576 q 428 341 376 397 q 563 285 481 285 q 676 318 628 285 q 746 410 725 351 l 1076 410 q 988 183 1060 281 q 804 33 917 86 q 553 -21 692 -21 m 532 1276 l 779 1276 l 663 1063 l 454 1063 l 532 1276 z "},"Č":{"ha":1111,"x_min":38,"x_max":1076,"o":"m 553 -21 q 283 43 400 -21 q 102 222 167 107 q 38 486 38 338 q 102 750 38 635 q 283 929 167 865 q 550 993 400 993 q 799 942 689 993 q 980 794 910 890 q 1072 567 1050 697 l 743 567 q 676 655 724 622 q 565 688 628 688 q 428 632 481 688 q 376 486 376 576 q 428 341 376 397 q 563 285 481 285 q 676 318 628 285 q 746 410 725 351 l 1076 410 q 988 183 1060 281 q 804 33 917 86 q 553 -21 692 -21 m 492 1276 l 557 1206 l 621 1276 l 843 1276 l 669 1063 l 444 1063 l 269 1276 l 492 1276 z "},"Ç":{"ha":1111,"x_min":38,"x_max":1076,"o":"m 417 -235 l 546 -235 q 583 -204 583 -235 q 546 -175 583 -175 l 478 -175 l 440 -124 l 475 -17 q 244 66 343 -1 q 92 242 146 133 q 38 486 38 350 q 102 750 38 635 q 283 929 167 865 q 550 993 400 993 q 799 942 689 993 q 980 794 910 890 q 1072 567 1050 697 l 743 567 q 676 655 724 622 q 565 688 628 688 q 428 632 481 688 q 376 486 376 576 q 428 341 376 397 q 563 285 481 285 q 676 318 628 285 q 746 410 725 351 l 1076 410 q 933 119 1053 233 q 631 -17 813 6 l 618 -57 q 726 -111 689 -67 q 764 -221 764 -156 q 715 -342 764 -296 q 576 -389 665 -389 l 417 -389 l 417 -235 z "},"Ĉ":{"ha":1111,"x_min":38,"x_max":1076,"o":"m 553 -21 q 283 43 400 -21 q 102 222 167 107 q 38 486 38 338 q 102 750 38 635 q 283 929 167 865 q 550 993 400 993 q 799 942 689 993 q 980 794 910 890 q 1072 567 1050 697 l 743 567 q 676 655 724 622 q 565 688 628 688 q 428 632 481 688 q 376 486 376 576 q 428 341 376 397 q 563 285 481 285 q 676 318 628 285 q 746 410 725 351 l 1076 410 q 988 183 1060 281 q 804 33 917 86 q 553 -21 692 -21 m 443 1276 l 669 1276 l 843 1063 l 621 1063 l 556 1133 l 492 1063 l 269 1063 l 443 1276 z "},"Ċ":{"ha":1111,"x_min":38,"x_max":1076,"o":"m 553 -21 q 283 43 400 -21 q 102 222 167 107 q 38 486 38 338 q 102 750 38 635 q 283 929 167 865 q 550 993 400 993 q 799 942 689 993 q 980 794 910 890 q 1072 567 1050 697 l 743 567 q 676 655 724 622 q 565 688 628 688 q 428 632 481 688 q 376 486 376 576 q 428 341 376 397 q 563 285 481 285 q 676 318 628 285 q 746 410 725 351 l 1076 410 q 988 183 1060 281 q 804 33 917 86 q 553 -21 692 -21 m 399 1197 q 442 1306 399 1264 q 556 1349 486 1349 q 670 1306 626 1349 q 714 1197 714 1264 q 670 1089 714 1131 q 556 1047 626 1047 q 442 1089 486 1047 q 399 1197 399 1131 z "},"D":{"ha":1094,"x_min":88,"x_max":1057,"o":"m 88 972 l 525 972 q 805 913 685 972 q 991 742 925 853 q 1057 486 1057 632 q 991 230 1057 340 q 805 60 925 119 q 525 0 685 0 l 88 0 l 88 972 m 515 296 q 664 347 610 296 q 718 486 718 397 q 664 626 718 575 q 515 676 610 676 l 419 676 l 419 296 l 515 296 z "},"Ð":{"ha":1143,"x_min":10,"x_max":1107,"o":"m 136 360 l 10 360 l 10 608 l 136 608 l 136 972 l 574 972 q 854 913 733 972 q 1041 742 975 853 q 1107 486 1107 632 q 1041 231 1107 340 q 854 60 975 121 q 574 0 733 0 l 136 0 l 136 360 m 563 282 q 717 336 658 282 q 775 486 775 390 q 717 636 775 582 q 563 690 658 690 l 461 690 l 461 592 l 607 592 l 607 381 l 461 381 l 461 282 l 563 282 z "},"Ď":{"ha":1094,"x_min":88,"x_max":1057,"o":"m 88 972 l 525 972 q 805 913 685 972 q 991 742 925 853 q 1057 486 1057 632 q 991 230 1057 340 q 805 60 925 119 q 525 0 685 0 l 88 0 l 88 972 m 408 1276 l 474 1206 l 538 1276 l 760 1276 l 586 1063 l 361 1063 l 186 1276 l 408 1276 m 515 296 q 664 347 610 296 q 718 486 718 397 q 664 626 718 575 q 515 676 610 676 l 419 676 l 419 296 l 515 296 z "},"Đ":{"ha":1143,"x_min":10,"x_max":1107,"o":"m 136 360 l 10 360 l 10 608 l 136 608 l 136 972 l 574 972 q 854 913 733 972 q 1041 742 975 853 q 1107 486 1107 632 q 1041 231 1107 340 q 854 60 975 121 q 574 0 733 0 l 136 0 l 136 360 m 563 282 q 717 336 658 282 q 775 486 775 390 q 717 636 775 582 q 563 690 658 690 l 461 690 l 461 592 l 607 592 l 607 381 l 461 381 l 461 282 l 563 282 z "},"E":{"ha":856,"x_min":88,"x_max":801,"o":"m 88 972 l 788 972 l 788 724 l 414 724 l 414 611 l 751 611 l 751 369 l 414 369 l 414 253 l 801 253 l 801 0 l 88 0 l 88 972 z "},"É":{"ha":856,"x_min":88,"x_max":801,"o":"m 88 972 l 788 972 l 788 724 l 414 724 l 414 611 l 751 611 l 751 369 l 414 369 l 414 253 l 801 253 l 801 0 l 88 0 l 88 972 m 410 1276 l 657 1276 l 540 1063 l 332 1063 l 410 1276 z "},"Ĕ":{"ha":856,"x_min":88,"x_max":801,"o":"m 88 972 l 788 972 l 788 724 l 414 724 l 414 611 l 751 611 l 751 369 l 414 369 l 414 253 l 801 253 l 801 0 l 88 0 l 88 972 m 208 1276 l 383 1276 l 383 1264 q 397 1227 383 1240 q 435 1214 410 1214 q 472 1227 458 1214 q 486 1264 486 1240 l 486 1276 l 660 1276 l 660 1254 q 603 1107 660 1158 q 435 1056 547 1056 q 267 1108 326 1056 q 208 1254 208 1160 l 208 1276 z "},"Ě":{"ha":856,"x_min":88,"x_max":801,"o":"m 88 972 l 788 972 l 788 724 l 414 724 l 414 611 l 751 611 l 751 369 l 414 369 l 414 253 l 801 253 l 801 0 l 88 0 l 88 972 m 369 1276 l 435 1206 l 499 1276 l 721 1276 l 547 1063 l 322 1063 l 147 1276 l 369 1276 z "},"Ê":{"ha":856,"x_min":88,"x_max":801,"o":"m 88 972 l 788 972 l 788 724 l 414 724 l 414 611 l 751 611 l 751 369 l 414 369 l 414 253 l 801 253 l 801 0 l 88 0 l 88 972 m 322 1276 l 547 1276 l 721 1063 l 499 1063 l 435 1133 l 369 1063 l 147 1063 l 322 1276 z "},"Ë":{"ha":856,"x_min":88,"x_max":801,"o":"m 88 972 l 788 972 l 788 724 l 414 724 l 414 611 l 751 611 l 751 369 l 414 369 l 414 253 l 801 253 l 801 0 l 88 0 l 88 972 m 135 1183 q 172 1278 135 1242 q 267 1315 208 1315 q 362 1278 325 1315 q 399 1183 399 1242 q 362 1089 399 1125 q 267 1053 325 1053 q 172 1089 208 1053 q 135 1183 135 1125 m 471 1183 q 508 1279 471 1243 q 601 1315 544 1315 q 697 1279 660 1315 q 733 1183 733 1243 q 697 1089 733 1125 q 601 1053 660 1053 q 507 1089 543 1053 q 471 1183 471 1125 z "},"Ė":{"ha":856,"x_min":88,"x_max":801,"o":"m 88 972 l 788 972 l 788 724 l 414 724 l 414 611 l 751 611 l 751 369 l 414 369 l 414 253 l 801 253 l 801 0 l 88 0 l 88 972 m 276 1197 q 320 1306 276 1264 q 435 1349 364 1349 q 548 1306 504 1349 q 592 1197 592 1264 q 548 1089 592 1131 q 435 1047 504 1047 q 320 1089 364 1047 q 276 1197 276 1131 z "},"È":{"ha":856,"x_min":88,"x_max":801,"o":"m 88 972 l 788 972 l 788 724 l 414 724 l 414 611 l 751 611 l 751 369 l 414 369 l 414 253 l 801 253 l 801 0 l 88 0 l 88 972 m 458 1276 l 536 1063 l 328 1063 l 211 1276 l 458 1276 z "},"Ē":{"ha":856,"x_min":88,"x_max":801,"o":"m 88 972 l 788 972 l 788 724 l 414 724 l 414 611 l 751 611 l 751 369 l 414 369 l 414 253 l 801 253 l 801 0 l 88 0 l 88 972 m 183 1250 l 686 1250 l 686 1082 l 183 1082 l 183 1250 z "},"Ę":{"ha":856,"x_min":88,"x_max":801,"o":"m 88 972 l 788 972 l 788 724 l 414 724 l 414 611 l 751 611 l 751 369 l 414 369 l 414 253 l 801 253 l 801 0 q 744 -49 765 -22 q 724 -103 724 -76 q 772 -144 724 -144 l 801 -144 l 801 -301 l 686 -301 q 551 -265 600 -301 q 503 -162 503 -228 q 592 0 503 -76 l 88 0 l 88 972 z "},"F":{"ha":804,"x_min":88,"x_max":757,"o":"m 88 972 l 757 972 l 757 683 l 421 683 l 421 533 l 722 533 l 722 257 l 421 257 l 421 0 l 88 0 l 88 972 z "},"G":{"ha":1124,"x_min":38,"x_max":1089,"o":"m 564 -21 q 289 43 408 -21 q 103 222 169 107 q 38 486 38 338 q 103 750 38 635 q 288 929 169 865 q 560 993 407 993 q 792 949 686 993 q 970 824 897 906 q 1071 635 1043 743 l 731 635 q 662 691 706 671 q 564 711 618 711 q 410 649 468 711 q 351 486 351 588 q 409 323 351 386 q 568 260 467 260 q 682 288 635 260 q 751 364 729 315 l 513 364 l 513 567 l 1085 567 q 1089 493 1089 529 q 1024 226 1089 343 q 840 44 960 110 q 564 -21 721 -21 z "},"Ğ":{"ha":1124,"x_min":38,"x_max":1089,"o":"m 564 -21 q 289 43 408 -21 q 103 222 169 107 q 38 486 38 338 q 103 750 38 635 q 288 929 169 865 q 560 993 407 993 q 792 949 686 993 q 970 824 897 906 q 1071 635 1043 743 l 731 635 q 662 691 706 671 q 564 711 618 711 q 410 649 468 711 q 351 486 351 588 q 409 323 351 386 q 568 260 467 260 q 682 288 635 260 q 751 364 729 315 l 513 364 l 513 567 l 1085 567 q 1089 493 1089 529 q 1024 226 1089 343 q 840 44 960 110 q 564 -21 721 -21 m 336 1276 l 510 1276 l 510 1264 q 523 1227 510 1240 q 561 1214 536 1214 q 599 1227 586 1214 q 613 1264 613 1240 l 613 1276 l 786 1276 l 786 1254 q 730 1107 786 1158 q 561 1056 674 1056 q 394 1108 453 1056 q 336 1254 336 1160 l 336 1276 z "},"Ǧ":{"ha":1124,"x_min":38,"x_max":1089,"o":"m 564 -21 q 289 43 408 -21 q 103 222 169 107 q 38 486 38 338 q 103 750 38 635 q 288 929 169 865 q 560 993 407 993 q 792 949 686 993 q 970 824 897 906 q 1071 635 1043 743 l 731 635 q 662 691 706 671 q 564 711 618 711 q 410 649 468 711 q 351 486 351 588 q 409 323 351 386 q 568 260 467 260 q 682 288 635 260 q 751 364 729 315 l 513 364 l 513 567 l 1085 567 q 1089 493 1089 529 q 1024 226 1089 343 q 840 44 960 110 q 564 -21 721 -21 m 496 1276 l 561 1206 l 625 1276 l 847 1276 l 674 1063 l 449 1063 l 274 1276 l 496 1276 z "},"Ĝ":{"ha":1124,"x_min":38,"x_max":1089,"o":"m 564 -21 q 289 43 408 -21 q 103 222 169 107 q 38 486 38 338 q 103 750 38 635 q 288 929 169 865 q 560 993 407 993 q 792 949 686 993 q 970 824 897 906 q 1071 635 1043 743 l 731 635 q 662 691 706 671 q 564 711 618 711 q 410 649 468 711 q 351 486 351 588 q 409 323 351 386 q 568 260 467 260 q 682 288 635 260 q 751 364 729 315 l 513 364 l 513 567 l 1085 567 q 1089 493 1089 529 q 1024 226 1089 343 q 840 44 960 110 q 564 -21 721 -21 m 449 1276 l 674 1276 l 847 1063 l 626 1063 l 561 1133 l 496 1063 l 275 1063 l 449 1276 z "},"Ģ":{"ha":1124,"x_min":38,"x_max":1089,"o":"m 564 -21 q 289 43 408 -21 q 103 222 169 107 q 38 486 38 338 q 103 750 38 635 q 288 929 169 865 q 560 993 407 993 q 792 949 686 993 q 970 824 897 906 q 1071 635 1043 743 l 731 635 q 662 691 706 671 q 564 711 618 711 q 410 649 468 711 q 351 486 351 588 q 409 323 351 386 q 568 260 467 260 q 682 288 635 260 q 751 364 729 315 l 513 364 l 513 567 l 1085 567 q 1089 493 1089 529 q 1024 226 1089 343 q 840 44 960 110 q 564 -21 721 -21 m 461 -192 q 492 -116 461 -146 q 574 -86 524 -86 q 665 -128 632 -86 q 697 -235 697 -171 q 675 -338 697 -289 q 610 -419 653 -387 q 508 -453 567 -450 l 508 -361 q 558 -339 540 -354 q 578 -294 575 -324 l 569 -294 q 491 -266 521 -294 q 461 -192 461 -237 z "},"Ġ":{"ha":1124,"x_min":38,"x_max":1089,"o":"m 564 -21 q 289 43 408 -21 q 103 222 169 107 q 38 486 38 338 q 103 750 38 635 q 288 929 169 865 q 560 993 407 993 q 792 949 686 993 q 970 824 897 906 q 1071 635 1043 743 l 731 635 q 662 691 706 671 q 564 711 618 711 q 410 649 468 711 q 351 486 351 588 q 409 323 351 386 q 568 260 467 260 q 682 288 635 260 q 751 364 729 315 l 513 364 l 513 567 l 1085 567 q 1089 493 1089 529 q 1024 226 1089 343 q 840 44 960 110 q 564 -21 721 -21 m 404 1197 q 448 1306 404 1264 q 561 1349 492 1349 q 674 1306 631 1349 q 718 1197 718 1264 q 674 1089 718 1131 q 561 1047 631 1047 q 448 1089 492 1047 q 404 1197 404 1131 z "},"H":{"ha":1075,"x_min":88,"x_max":988,"o":"m 651 342 l 424 342 l 424 0 l 88 0 l 88 972 l 424 972 l 424 647 l 651 647 l 651 972 l 988 972 l 988 0 l 651 0 l 651 342 z "},"Ħ":{"ha":1192,"x_min":22,"x_max":1169,"o":"m 710 315 l 482 315 l 482 0 l 146 0 l 146 700 l 22 700 l 22 883 l 146 883 l 146 972 l 482 972 l 482 883 l 710 883 l 710 972 l 1046 972 l 1046 883 l 1169 883 l 1169 700 l 1046 700 l 1046 0 l 710 0 l 710 315 m 713 586 l 713 706 l 479 706 l 479 586 l 713 586 z "},"Ĥ":{"ha":1075,"x_min":88,"x_max":988,"o":"m 651 342 l 424 342 l 424 0 l 88 0 l 88 972 l 424 972 l 424 647 l 651 647 l 651 972 l 988 972 l 988 0 l 651 0 l 651 342 m 425 1276 l 650 1276 l 824 1063 l 603 1063 l 538 1133 l 472 1063 l 250 1063 l 425 1276 z "},"I":{"ha":510,"x_min":88,"x_max":424,"o":"m 88 972 l 424 972 l 424 0 l 88 0 l 88 972 z "},"Ĳ":{"ha":1238,"x_min":88,"x_max":1151,"o":"m 88 972 l 424 972 l 424 0 l 88 0 l 88 972 m 550 306 l 693 306 q 786 335 757 306 q 815 431 815 364 l 815 972 l 1151 972 l 1151 385 q 1044 99 1151 199 q 740 0 938 0 l 550 0 l 550 306 z "},"Í":{"ha":510,"x_min":88,"x_max":478,"o":"m 88 972 l 424 972 l 424 0 l 88 0 l 88 972 m 231 1276 l 478 1276 l 363 1063 l 154 1063 l 231 1276 z "},"Ĭ":{"ha":510,"x_min":29,"x_max":481,"o":"m 88 972 l 424 972 l 424 0 l 88 0 l 88 972 m 29 1276 l 204 1276 l 204 1264 q 217 1227 204 1240 q 256 1214 231 1214 q 294 1227 281 1214 q 307 1264 307 1240 l 307 1276 l 481 1276 l 481 1254 q 424 1107 481 1158 q 256 1056 368 1056 q 88 1108 147 1056 q 29 1254 29 1160 l 29 1276 z "},"Î":{"ha":510,"x_min":-18,"x_max":528,"o":"m 88 972 l 424 972 l 424 0 l 88 0 l 88 972 m 143 1276 l 368 1276 l 528 1063 l 307 1063 l 256 1132 l 204 1063 l -18 1063 l 143 1276 z "},"Ï":{"ha":510,"x_min":-44,"x_max":554,"o":"m 88 972 l 424 972 l 424 0 l 88 0 l 88 972 m -44 1183 q -8 1278 -44 1242 q 88 1315 29 1315 q 183 1278 146 1315 q 219 1183 219 1242 q 183 1089 219 1125 q 88 1053 146 1053 q -8 1089 29 1053 q -44 1183 -44 1125 m 292 1183 q 328 1279 292 1243 q 424 1315 365 1315 q 518 1279 482 1315 q 554 1183 554 1243 q 518 1089 554 1125 q 424 1053 482 1053 q 328 1089 365 1053 q 292 1183 292 1125 z "},"İ":{"ha":510,"x_min":88,"x_max":424,"o":"m 88 972 l 424 972 l 424 0 l 88 0 l 88 972 m 97 1197 q 141 1306 97 1264 q 256 1349 185 1349 q 369 1306 325 1349 q 413 1197 413 1264 q 369 1089 413 1131 q 256 1047 325 1047 q 141 1089 185 1047 q 97 1197 97 1131 z "},"Ì":{"ha":510,"x_min":32,"x_max":424,"o":"m 88 972 l 424 972 l 424 0 l 88 0 l 88 972 m 279 1276 l 357 1063 l 149 1063 l 32 1276 l 279 1276 z "},"Ī":{"ha":510,"x_min":15,"x_max":494,"o":"m 88 972 l 424 972 l 424 0 l 88 0 l 88 972 m 15 1250 l 494 1250 l 494 1082 l 15 1082 l 15 1250 z "},"Į":{"ha":510,"x_min":88,"x_max":424,"o":"m 88 972 l 424 972 l 424 0 q 369 -47 389 -21 q 349 -99 349 -74 q 396 -139 349 -139 l 424 -139 l 424 -290 l 313 -290 q 183 -255 229 -290 q 136 -157 136 -219 q 222 0 136 -74 l 88 0 l 88 972 z "},"Ĩ":{"ha":510,"x_min":3,"x_max":510,"o":"m 88 972 l 424 972 l 424 0 l 88 0 l 88 972 m 3 1111 q 40 1233 3 1190 q 150 1275 78 1275 q 210 1266 185 1275 q 260 1242 235 1257 q 287 1227 276 1232 q 310 1222 297 1222 q 336 1253 336 1222 l 336 1271 l 510 1271 l 510 1228 q 472 1106 510 1147 q 363 1064 435 1064 q 303 1073 328 1064 q 253 1097 278 1082 q 226 1112 236 1107 q 203 1117 215 1117 q 176 1086 176 1117 l 176 1068 l 3 1068 l 3 1111 z "},"J":{"ha":726,"x_min":40,"x_max":642,"o":"m 40 306 l 183 306 q 276 335 247 306 q 306 431 306 364 l 306 972 l 642 972 l 642 385 q 535 99 642 199 q 231 0 428 0 l 40 0 l 40 306 z "},"Ĵ":{"ha":726,"x_min":40,"x_max":746,"o":"m 40 306 l 183 306 q 276 335 247 306 q 306 431 306 364 l 306 972 l 642 972 l 642 385 q 535 99 642 199 q 231 0 428 0 l 40 0 l 40 306 m 361 1276 l 586 1276 l 746 1063 l 525 1063 l 474 1132 l 422 1063 l 200 1063 l 361 1276 z "},"K":{"ha":1085,"x_min":88,"x_max":1058,"o":"m 88 972 l 424 972 l 424 646 l 453 646 q 541 664 515 646 q 585 736 567 682 l 664 972 l 1025 972 l 885 597 q 819 471 854 519 l 1058 0 l 675 0 l 514 346 l 424 346 l 424 0 l 88 0 l 88 972 z "},"Ķ":{"ha":1085,"x_min":88,"x_max":1058,"o":"m 88 972 l 424 972 l 424 646 l 453 646 q 541 664 515 646 q 585 736 567 682 l 664 972 l 1025 972 l 885 597 q 819 471 854 519 l 1058 0 l 675 0 l 514 346 l 424 346 l 424 0 l 88 0 l 88 972 m 442 -192 q 472 -116 442 -146 q 553 -86 503 -86 q 644 -128 611 -86 q 676 -235 676 -171 q 654 -338 676 -289 q 589 -419 632 -387 q 488 -453 546 -450 l 488 -361 q 537 -339 519 -354 q 557 -294 554 -324 l 549 -294 q 472 -266 501 -294 q 442 -192 442 -237 z "},"L":{"ha":828,"x_min":88,"x_max":793,"o":"m 88 972 l 424 972 l 424 307 l 793 307 l 793 0 l 88 0 l 88 972 z "},"Ĺ":{"ha":828,"x_min":88,"x_max":793,"o":"m 88 972 l 424 972 l 424 307 l 793 307 l 793 0 l 88 0 l 88 972 m 231 1276 l 478 1276 l 363 1063 l 154 1063 l 231 1276 z "},"Ľ":{"ha":853,"x_min":88,"x_max":836,"o":"m 88 972 l 424 972 l 424 307 l 793 307 l 793 0 l 88 0 l 88 972 m 594 972 l 836 972 l 772 668 l 554 668 l 594 972 z "},"Ļ":{"ha":828,"x_min":88,"x_max":793,"o":"m 88 972 l 424 972 l 424 307 l 793 307 l 793 0 l 88 0 l 88 972 m 331 -192 q 362 -116 331 -146 q 443 -86 393 -86 q 534 -128 501 -86 q 567 -235 567 -171 q 544 -338 567 -289 q 479 -419 522 -387 q 378 -453 436 -450 l 378 -361 q 427 -339 410 -354 q 447 -294 444 -324 l 439 -294 q 360 -266 390 -294 q 331 -192 331 -237 z "},"Ŀ":{"ha":846,"x_min":88,"x_max":797,"o":"m 88 972 l 424 972 l 424 307 l 793 307 l 793 0 l 88 0 l 88 972 m 474 542 q 519 653 474 610 q 636 697 565 697 q 752 653 707 697 q 797 542 797 610 q 752 431 797 474 q 636 388 707 388 q 519 431 565 388 q 474 542 474 474 z "},"Ł":{"ha":885,"x_min":13,"x_max":850,"o":"m 144 324 l 13 268 l 13 526 l 144 582 l 144 972 l 481 972 l 481 721 l 693 810 l 693 551 l 481 463 l 481 303 l 850 303 l 850 0 l 144 0 l 144 324 z "},"M":{"ha":1325,"x_min":88,"x_max":1238,"o":"m 88 972 l 360 972 l 663 564 l 967 972 l 1238 972 l 1238 0 l 910 0 l 910 224 l 913 424 l 908 424 l 756 214 l 569 214 l 417 425 l 413 424 l 415 224 l 415 0 l 88 0 l 88 972 z "},"N":{"ha":1089,"x_min":88,"x_max":1003,"o":"m 88 972 l 360 972 l 671 553 l 676 553 l 674 676 l 674 972 l 1003 972 l 1003 0 l 731 0 l 418 424 l 414 424 l 417 296 l 417 0 l 88 0 l 88 972 z "},"Ń":{"ha":1089,"x_min":88,"x_max":1003,"o":"m 88 972 l 360 972 l 671 553 l 676 553 l 674 676 l 674 972 l 1003 972 l 1003 0 l 731 0 l 418 424 l 414 424 l 417 296 l 417 0 l 88 0 l 88 972 m 518 1276 l 765 1276 l 650 1063 l 442 1063 l 518 1276 z "},"Ň":{"ha":1089,"x_min":88,"x_max":1003,"o":"m 88 972 l 360 972 l 671 553 l 676 553 l 674 676 l 674 972 l 1003 972 l 1003 0 l 731 0 l 418 424 l 414 424 l 417 296 l 417 0 l 88 0 l 88 972 m 478 1276 l 543 1206 l 607 1276 l 829 1276 l 656 1063 l 431 1063 l 256 1276 l 478 1276 z "},"Ņ":{"ha":1089,"x_min":88,"x_max":1003,"o":"m 88 972 l 360 972 l 671 553 l 676 553 l 674 676 l 674 972 l 1003 972 l 1003 0 l 731 0 l 418 424 l 414 424 l 417 296 l 417 0 l 88 0 l 88 972 m 447 -192 q 478 -116 447 -146 q 558 -86 508 -86 q 649 -128 617 -86 q 682 -235 682 -171 q 660 -338 682 -289 q 594 -419 638 -387 q 493 -453 551 -450 l 493 -361 q 542 -339 525 -354 q 564 -294 560 -324 l 554 -294 q 477 -266 507 -294 q 447 -192 447 -237 z "},"Ñ":{"ha":1089,"x_min":88,"x_max":1003,"o":"m 88 972 l 360 972 l 671 553 l 676 553 l 674 676 l 674 972 l 1003 972 l 1003 0 l 731 0 l 418 424 l 414 424 l 417 296 l 417 0 l 88 0 l 88 972 m 290 1111 q 328 1233 290 1190 q 436 1275 365 1275 q 496 1266 471 1275 q 546 1242 521 1257 q 597 1222 578 1222 q 624 1253 624 1222 l 624 1271 l 796 1271 l 796 1228 q 759 1106 796 1147 q 650 1064 722 1064 q 590 1073 615 1064 q 540 1097 565 1082 q 513 1112 524 1107 q 490 1117 503 1117 q 463 1086 463 1117 l 463 1068 l 290 1068 l 290 1111 z "},"Ŋ":{"ha":1089,"x_min":88,"x_max":1003,"o":"m 528 -36 l 592 -36 q 657 -19 636 -36 q 678 39 678 -3 l 678 72 l 418 424 l 414 424 l 417 296 l 417 0 l 88 0 l 88 972 l 360 972 l 671 553 l 676 553 l 674 676 l 674 972 l 1003 972 l 1003 25 q 919 -216 1003 -137 q 654 -294 836 -294 l 528 -294 l 528 -36 z "},"O":{"ha":1150,"x_min":38,"x_max":1114,"o":"m 575 -21 q 296 44 418 -21 q 106 224 174 108 q 38 486 38 339 q 106 749 38 633 q 296 928 174 864 q 575 993 418 993 q 856 928 733 993 q 1046 749 978 864 q 1114 486 1114 633 q 1046 224 1114 339 q 856 44 978 108 q 575 -21 733 -21 m 376 486 q 432 341 376 397 q 575 285 488 285 q 719 341 663 285 q 775 486 775 397 q 719 631 775 575 q 575 688 663 688 q 432 631 488 688 q 376 486 376 575 z "},"Ó":{"ha":1150,"x_min":38,"x_max":1114,"o":"m 575 -21 q 296 44 418 -21 q 106 224 174 108 q 38 486 38 339 q 106 749 38 633 q 296 928 174 864 q 575 993 418 993 q 856 928 733 993 q 1046 749 978 864 q 1114 486 1114 633 q 1046 224 1114 339 q 856 44 978 108 q 575 -21 733 -21 m 376 486 q 432 341 376 397 q 575 285 488 285 q 719 341 663 285 q 775 486 775 397 q 719 631 775 575 q 575 688 663 688 q 432 631 488 688 q 376 486 376 575 m 551 1276 l 799 1276 l 682 1063 l 474 1063 l 551 1276 z "},"Ŏ":{"ha":1150,"x_min":38,"x_max":1114,"o":"m 575 -21 q 296 44 418 -21 q 106 224 174 108 q 38 486 38 339 q 106 749 38 633 q 296 928 174 864 q 575 993 418 993 q 856 928 733 993 q 1046 749 978 864 q 1114 486 1114 633 q 1046 224 1114 339 q 856 44 978 108 q 575 -21 733 -21 m 350 1276 l 524 1276 l 524 1264 q 537 1227 524 1240 q 575 1214 550 1214 q 613 1227 600 1214 q 626 1264 626 1240 l 626 1276 l 801 1276 l 801 1254 q 744 1107 801 1158 q 575 1056 688 1056 q 408 1108 467 1056 q 350 1254 350 1160 l 350 1276 m 376 486 q 432 341 376 397 q 575 285 488 285 q 719 341 663 285 q 775 486 775 397 q 719 631 775 575 q 575 688 663 688 q 432 631 488 688 q 376 486 376 575 z "},"Ô":{"ha":1150,"x_min":38,"x_max":1114,"o":"m 575 -21 q 296 44 418 -21 q 106 224 174 108 q 38 486 38 339 q 106 749 38 633 q 296 928 174 864 q 575 993 418 993 q 856 928 733 993 q 1046 749 978 864 q 1114 486 1114 633 q 1046 224 1114 339 q 856 44 978 108 q 575 -21 733 -21 m 463 1276 l 688 1276 l 863 1063 l 640 1063 l 575 1133 l 510 1063 l 289 1063 l 463 1276 m 376 486 q 432 341 376 397 q 575 285 488 285 q 719 341 663 285 q 775 486 775 397 q 719 631 775 575 q 575 688 663 688 q 432 631 488 688 q 376 486 376 575 z "},"Ö":{"ha":1150,"x_min":38,"x_max":1114,"o":"m 575 -21 q 296 44 418 -21 q 106 224 174 108 q 38 486 38 339 q 106 749 38 633 q 296 928 174 864 q 575 993 418 993 q 856 928 733 993 q 1046 749 978 864 q 1114 486 1114 633 q 1046 224 1114 339 q 856 44 978 108 q 575 -21 733 -21 m 276 1183 q 313 1279 276 1243 q 407 1315 350 1315 q 502 1279 465 1315 q 539 1183 539 1243 q 502 1089 539 1125 q 407 1053 465 1053 q 313 1089 349 1053 q 276 1183 276 1125 m 376 486 q 432 341 376 397 q 575 285 488 285 q 719 341 663 285 q 775 486 775 397 q 719 631 775 575 q 575 688 663 688 q 432 631 488 688 q 376 486 376 575 m 611 1183 q 648 1278 611 1242 q 743 1315 685 1315 q 838 1278 801 1315 q 875 1183 875 1242 q 838 1089 875 1125 q 743 1053 801 1053 q 648 1089 685 1053 q 611 1183 611 1125 z "},"Ò":{"ha":1150,"x_min":38,"x_max":1114,"o":"m 575 -21 q 296 44 418 -21 q 106 224 174 108 q 38 486 38 339 q 106 749 38 633 q 296 928 174 864 q 575 993 418 993 q 856 928 733 993 q 1046 749 978 864 q 1114 486 1114 633 q 1046 224 1114 339 q 856 44 978 108 q 575 -21 733 -21 m 600 1276 l 676 1063 l 468 1063 l 353 1276 l 600 1276 m 376 486 q 432 341 376 397 q 575 285 488 285 q 719 341 663 285 q 775 486 775 397 q 719 631 775 575 q 575 688 663 688 q 432 631 488 688 q 376 486 376 575 z "},"Ő":{"ha":1150,"x_min":38,"x_max":1114,"o":"m 575 -21 q 296 44 418 -21 q 106 224 174 108 q 38 486 38 339 q 106 749 38 633 q 296 928 174 864 q 575 993 418 993 q 856 928 733 993 q 1046 749 978 864 q 1114 486 1114 633 q 1046 224 1114 339 q 856 44 978 108 q 575 -21 733 -21 m 407 1276 l 636 1276 l 526 1063 l 331 1063 l 407 1276 m 376 486 q 432 341 376 397 q 575 285 488 285 q 719 341 663 285 q 775 486 775 397 q 719 631 775 575 q 575 688 663 688 q 432 631 488 688 q 376 486 376 575 m 714 1276 l 939 1276 l 810 1063 l 603 1063 l 714 1276 z "},"Ō":{"ha":1150,"x_min":38,"x_max":1114,"o":"m 575 -21 q 296 44 418 -21 q 106 224 174 108 q 38 486 38 339 q 106 749 38 633 q 296 928 174 864 q 575 993 418 993 q 856 928 733 993 q 1046 749 978 864 q 1114 486 1114 633 q 1046 224 1114 339 q 856 44 978 108 q 575 -21 733 -21 m 325 1250 l 826 1250 l 826 1082 l 325 1082 l 325 1250 m 376 486 q 432 341 376 397 q 575 285 488 285 q 719 341 663 285 q 775 486 775 397 q 719 631 775 575 q 575 688 663 688 q 432 631 488 688 q 376 486 376 575 z "},"Ø":{"ha":1150,"x_min":38,"x_max":1114,"o":"m 193 117 q 78 278 118 183 q 38 486 38 374 q 106 749 38 633 q 296 928 174 864 q 575 993 418 993 q 731 975 660 993 l 779 1047 l 1089 1047 l 958 856 q 1074 694 1033 789 q 1114 486 1114 599 q 1046 224 1114 339 q 856 44 978 108 q 575 -21 733 -21 q 421 -3 492 -21 l 372 -75 l 63 -75 l 193 117 m 376 486 q 432 341 376 397 q 575 285 488 285 q 719 341 663 285 q 775 486 775 397 q 719 631 775 575 q 575 688 663 688 q 432 631 488 688 q 376 486 376 575 z "},"Ǿ":{"ha":1150,"x_min":38,"x_max":1114,"o":"m 193 117 q 78 278 118 183 q 38 486 38 374 q 106 749 38 633 q 296 928 174 864 q 575 993 418 993 q 731 975 660 993 l 779 1047 l 1089 1047 l 958 856 q 1074 694 1033 789 q 1114 486 1114 599 q 1046 224 1114 339 q 856 44 978 108 q 575 -21 733 -21 q 421 -3 492 -21 l 372 -75 l 63 -75 l 193 117 m 376 486 q 432 341 376 397 q 575 285 488 285 q 719 341 663 285 q 775 486 775 397 q 719 631 775 575 q 575 688 663 688 q 432 631 488 688 q 376 486 376 575 m 538 1276 l 785 1276 l 668 1063 l 460 1063 l 538 1276 z "},"Õ":{"ha":1150,"x_min":38,"x_max":1114,"o":"m 575 -21 q 296 44 418 -21 q 106 224 174 108 q 38 486 38 339 q 106 749 38 633 q 296 928 174 864 q 575 993 418 993 q 856 928 733 993 q 1046 749 978 864 q 1114 486 1114 633 q 1046 224 1114 339 q 856 44 978 108 q 575 -21 733 -21 m 322 1111 q 360 1233 322 1190 q 469 1275 397 1275 q 529 1266 504 1275 q 579 1242 554 1257 q 606 1227 596 1232 q 629 1222 617 1222 q 656 1253 656 1222 l 656 1271 l 829 1271 l 829 1228 q 792 1106 829 1147 q 682 1064 754 1064 q 622 1073 647 1064 q 572 1097 597 1082 q 545 1112 556 1107 q 522 1117 535 1117 q 496 1086 496 1117 l 496 1068 l 322 1068 l 322 1111 m 376 486 q 432 341 376 397 q 575 285 488 285 q 719 341 663 285 q 775 486 775 397 q 719 631 775 575 q 575 688 663 688 q 432 631 488 688 q 376 486 376 575 z "},"Œ":{"ha":1411,"x_min":38,"x_max":1357,"o":"m 567 -21 q 294 42 414 -21 q 106 221 174 106 q 38 486 38 336 q 106 751 38 636 q 294 930 174 867 q 567 993 414 993 q 732 972 653 993 l 1344 972 l 1344 724 l 994 724 l 994 611 l 1307 611 l 1307 369 l 994 369 l 994 253 l 1357 253 l 1357 0 l 732 0 q 567 -21 653 -21 m 376 486 q 436 335 376 390 q 588 279 496 279 q 682 297 642 279 l 682 675 q 588 693 642 693 q 436 638 496 693 q 376 486 376 582 z "},"P":{"ha":982,"x_min":88,"x_max":954,"o":"m 88 972 l 539 972 q 759 926 665 972 q 903 796 853 881 q 954 597 954 711 q 903 399 954 483 q 760 269 853 315 q 542 224 667 224 l 424 224 l 424 0 l 88 0 l 88 972 m 494 486 q 586 515 554 486 q 618 594 618 543 q 586 674 618 646 q 494 703 554 703 l 417 703 l 417 486 l 494 486 z "},"Þ":{"ha":982,"x_min":88,"x_max":954,"o":"m 88 972 l 424 972 l 424 864 l 543 864 q 761 818 668 864 q 904 688 854 772 q 954 488 954 603 q 904 289 954 374 q 761 159 854 204 q 543 114 668 114 l 424 114 l 424 0 l 88 0 l 88 972 m 494 379 q 585 408 553 379 q 618 488 618 436 q 585 568 618 539 q 494 597 553 597 l 417 597 l 417 379 l 494 379 z "},"Q":{"ha":1150,"x_min":38,"x_max":1114,"o":"m 893 -261 q 708 -217 782 -261 q 596 -81 635 -172 l 571 -21 q 294 44 415 -21 q 105 225 172 110 q 38 486 38 340 q 106 749 38 633 q 296 928 174 864 q 575 993 418 993 q 856 928 733 993 q 1046 749 978 864 q 1114 486 1114 633 q 1046 224 1114 339 q 857 44 978 108 l 865 24 q 903 -26 882 -14 q 974 -37 925 -37 l 1047 -37 l 1047 -261 l 893 -261 m 376 486 q 432 341 376 397 q 575 285 488 285 q 719 341 663 285 q 775 486 775 397 q 719 631 775 575 q 575 688 663 688 q 432 631 488 688 q 376 486 376 575 z "},"R":{"ha":1026,"x_min":88,"x_max":985,"o":"m 88 972 l 568 972 q 780 929 690 972 q 917 806 869 886 q 965 615 965 725 q 928 445 965 519 q 822 325 892 371 l 985 0 l 615 0 l 500 258 l 421 258 l 421 0 l 88 0 l 88 972 m 514 506 q 599 533 569 506 q 629 610 629 560 q 599 688 629 661 q 514 714 569 714 l 415 714 l 415 506 l 514 506 z "},"Ŕ":{"ha":1026,"x_min":88,"x_max":985,"o":"m 88 972 l 568 972 q 780 929 690 972 q 917 806 869 886 q 965 615 965 725 q 928 445 965 519 q 822 325 892 371 l 985 0 l 615 0 l 500 258 l 421 258 l 421 0 l 88 0 l 88 972 m 433 1276 l 681 1276 l 564 1063 l 356 1063 l 433 1276 m 514 506 q 599 533 569 506 q 629 610 629 560 q 599 688 629 661 q 514 714 569 714 l 415 714 l 415 506 l 514 506 z "},"Ř":{"ha":1026,"x_min":88,"x_max":985,"o":"m 88 972 l 568 972 q 780 929 690 972 q 917 806 869 886 q 965 615 965 725 q 928 445 965 519 q 822 325 892 371 l 985 0 l 615 0 l 500 258 l 421 258 l 421 0 l 88 0 l 88 972 m 393 1276 l 458 1206 l 522 1276 l 744 1276 l 571 1063 l 346 1063 l 171 1276 l 393 1276 m 514 506 q 599 533 569 506 q 629 610 629 560 q 599 688 629 661 q 514 714 569 714 l 415 714 l 415 506 l 514 506 z "},"Ŗ":{"ha":1026,"x_min":88,"x_max":985,"o":"m 88 972 l 568 972 q 780 929 690 972 q 917 806 869 886 q 965 615 965 725 q 928 445 965 519 q 822 325 892 371 l 985 0 l 615 0 l 500 258 l 421 258 l 421 0 l 88 0 l 88 972 m 415 -192 q 446 -116 415 -146 q 526 -86 476 -86 q 617 -128 585 -86 q 650 -235 650 -171 q 628 -338 650 -289 q 563 -419 606 -387 q 461 -453 519 -450 l 461 -361 q 510 -339 493 -354 q 531 -294 528 -324 l 522 -294 q 445 -266 475 -294 q 415 -192 415 -237 m 514 506 q 599 533 569 506 q 629 610 629 560 q 599 688 629 661 q 514 714 569 714 l 415 714 l 415 506 l 514 506 z "},"S":{"ha":908,"x_min":38,"x_max":868,"o":"m 457 -21 q 148 69 258 -21 q 38 319 38 158 l 358 319 q 383 247 358 272 q 456 222 408 222 q 518 238 496 222 q 540 283 540 254 q 502 342 540 319 q 381 379 464 365 q 126 483 208 408 q 44 686 44 558 q 149 911 44 829 q 438 993 254 993 q 655 953 563 993 q 798 837 747 913 q 850 660 849 761 l 536 660 q 512 730 536 706 q 443 754 488 754 q 382 738 404 754 q 360 693 360 721 q 395 639 360 660 q 518 601 431 618 q 784 493 700 567 q 868 294 868 419 q 760 63 868 146 q 457 -21 651 -21 z "},"Ś":{"ha":908,"x_min":38,"x_max":868,"o":"m 457 -21 q 148 69 258 -21 q 38 319 38 158 l 358 319 q 383 247 358 272 q 456 222 408 222 q 518 238 496 222 q 540 283 540 254 q 502 342 540 319 q 381 379 464 365 q 126 483 208 408 q 44 686 44 558 q 149 911 44 829 q 438 993 254 993 q 655 953 563 993 q 798 837 747 913 q 850 660 849 761 l 536 660 q 512 730 536 706 q 443 754 488 754 q 382 738 404 754 q 360 693 360 721 q 395 639 360 660 q 518 601 431 618 q 784 493 700 567 q 868 294 868 419 q 760 63 868 146 q 457 -21 651 -21 m 414 1276 l 661 1276 l 544 1063 l 336 1063 l 414 1276 z "},"Š":{"ha":908,"x_min":38,"x_max":868,"o":"m 457 -21 q 148 69 258 -21 q 38 319 38 158 l 358 319 q 383 247 358 272 q 456 222 408 222 q 518 238 496 222 q 540 283 540 254 q 502 342 540 319 q 381 379 464 365 q 126 483 208 408 q 44 686 44 558 q 149 911 44 829 q 438 993 254 993 q 655 953 563 993 q 798 837 747 913 q 850 660 849 761 l 536 660 q 512 730 536 706 q 443 754 488 754 q 382 738 404 754 q 360 693 360 721 q 395 639 360 660 q 518 601 431 618 q 784 493 700 567 q 868 294 868 419 q 760 63 868 146 q 457 -21 651 -21 m 372 1276 l 438 1206 l 501 1276 l 724 1276 l 550 1063 l 325 1063 l 150 1276 l 372 1276 z "},"Ş":{"ha":908,"x_min":38,"x_max":868,"o":"m 332 -235 l 460 -235 q 499 -204 499 -235 q 460 -175 499 -175 l 392 -175 l 354 -124 l 388 -18 q 129 85 221 -3 q 38 319 38 174 l 358 319 q 383 247 358 272 q 456 222 408 222 q 518 238 496 222 q 540 283 540 254 q 502 342 540 319 q 381 379 464 365 q 126 483 208 408 q 44 686 44 558 q 149 911 44 829 q 438 993 254 993 q 655 953 563 993 q 798 837 747 913 q 850 660 849 761 l 536 660 q 512 730 536 706 q 443 754 488 754 q 382 738 404 754 q 360 693 360 721 q 395 639 360 660 q 518 601 431 618 q 784 493 700 567 q 868 294 868 419 q 784 83 868 164 q 546 -15 700 3 l 532 -57 q 640 -111 603 -67 q 678 -221 678 -156 q 629 -342 678 -296 q 492 -389 581 -389 l 332 -389 l 332 -235 z "},"Ŝ":{"ha":908,"x_min":38,"x_max":868,"o":"m 457 -21 q 148 69 258 -21 q 38 319 38 158 l 358 319 q 383 247 358 272 q 456 222 408 222 q 518 238 496 222 q 540 283 540 254 q 502 342 540 319 q 381 379 464 365 q 126 483 208 408 q 44 686 44 558 q 149 911 44 829 q 438 993 254 993 q 655 953 563 993 q 798 837 747 913 q 850 660 849 761 l 536 660 q 512 730 536 706 q 443 754 488 754 q 382 738 404 754 q 360 693 360 721 q 395 639 360 660 q 518 601 431 618 q 784 493 700 567 q 868 294 868 419 q 760 63 868 146 q 457 -21 651 -21 m 325 1276 l 550 1276 l 724 1063 l 503 1063 l 438 1133 l 372 1063 l 151 1063 l 325 1276 z "},"Ș":{"ha":908,"x_min":38,"x_max":868,"o":"m 457 -21 q 148 69 258 -21 q 38 319 38 158 l 358 319 q 383 247 358 272 q 456 222 408 222 q 518 238 496 222 q 540 283 540 254 q 502 342 540 319 q 381 379 464 365 q 126 483 208 408 q 44 686 44 558 q 149 911 44 829 q 438 993 254 993 q 655 953 563 993 q 798 837 747 913 q 850 660 849 761 l 536 660 q 512 730 536 706 q 443 754 488 754 q 382 738 404 754 q 360 693 360 721 q 395 639 360 660 q 518 601 431 618 q 784 493 700 567 q 868 294 868 419 q 760 63 868 146 q 457 -21 651 -21 m 361 -192 q 392 -116 361 -146 q 472 -86 424 -86 q 563 -128 531 -86 q 596 -235 596 -171 q 574 -338 596 -289 q 508 -419 551 -387 q 407 -453 465 -450 l 407 -361 q 456 -339 439 -354 q 478 -294 474 -324 l 468 -294 q 391 -266 421 -294 q 361 -192 361 -237 z "},"ẞ":{"ha":1090,"x_min":81,"x_max":1061,"o":"m 81 544 q 492 972 81 972 l 992 972 l 992 758 l 840 594 q 1002 490 943 567 q 1061 304 1061 414 q 966 82 1061 164 q 708 0 871 0 l 500 0 l 500 250 l 632 250 q 704 270 679 250 q 729 326 729 290 q 704 383 729 363 q 632 403 679 403 l 511 403 l 511 553 l 663 718 l 661 722 l 567 722 q 453 680 490 722 q 415 550 415 638 l 415 0 l 81 0 l 81 544 z "},"Ə":{"ha":1132,"x_min":31,"x_max":1096,"o":"m 565 -21 q 279 51 401 -21 q 94 254 157 122 q 38 561 31 386 l 788 561 q 710 707 771 656 q 560 758 649 758 q 444 733 497 758 q 360 661 390 708 l 56 661 q 248 905 113 817 q 569 993 383 993 q 843 928 724 993 q 1029 748 963 864 q 1096 483 1096 632 q 1028 222 1096 336 q 840 43 961 107 q 565 -21 719 -21 m 336 393 q 415 260 356 308 q 563 213 474 213 q 708 260 647 213 q 786 393 768 308 l 336 393 z "},"T":{"ha":976,"x_min":38,"x_max":938,"o":"m 319 668 l 38 668 l 38 972 l 938 972 l 938 668 l 656 668 l 656 0 l 319 0 l 319 668 z "},"Ŧ":{"ha":982,"x_min":40,"x_max":940,"o":"m 322 257 l 154 257 l 154 501 l 322 501 l 322 676 l 40 676 l 40 972 l 940 972 l 940 676 l 658 676 l 658 501 l 828 501 l 828 257 l 658 257 l 658 0 l 322 0 l 322 257 z "},"Ť":{"ha":976,"x_min":38,"x_max":938,"o":"m 319 668 l 38 668 l 38 972 l 938 972 l 938 668 l 656 668 l 656 0 l 319 0 l 319 668 m 424 1276 l 489 1206 l 553 1276 l 775 1276 l 601 1063 l 376 1063 l 201 1276 l 424 1276 z "},"Ţ":{"ha":976,"x_min":38,"x_max":938,"o":"m 319 668 l 38 668 l 38 972 l 938 972 l 938 668 l 656 668 l 656 0 l 568 0 l 550 -57 q 658 -111 621 -67 q 696 -221 696 -156 q 647 -342 696 -296 q 508 -389 597 -389 l 349 -389 l 349 -235 l 476 -235 q 515 -204 515 -235 q 476 -175 515 -175 l 410 -175 l 372 -124 l 411 0 l 319 0 l 319 668 z "},"Ț":{"ha":976,"x_min":38,"x_max":938,"o":"m 319 668 l 38 668 l 38 972 l 938 972 l 938 668 l 656 668 l 656 0 l 319 0 l 319 668 m 378 -192 q 409 -116 378 -146 q 490 -86 440 -86 q 581 -128 549 -86 q 614 -235 614 -171 q 592 -338 614 -289 q 526 -419 569 -387 q 425 -453 483 -450 l 425 -361 q 474 -339 457 -354 q 494 -294 492 -324 l 486 -294 q 408 -266 438 -294 q 378 -192 378 -237 z "},"U":{"ha":1054,"x_min":81,"x_max":974,"o":"m 526 -21 q 288 30 389 -21 q 134 176 188 81 q 81 404 81 272 l 81 972 l 415 972 l 415 422 q 526 288 415 288 q 638 422 638 288 l 638 972 l 974 972 l 974 404 q 920 176 974 272 q 765 30 867 81 q 526 -21 664 -21 z "},"Ú":{"ha":1054,"x_min":81,"x_max":974,"o":"m 526 -21 q 288 30 389 -21 q 134 176 188 81 q 81 404 81 272 l 81 972 l 415 972 l 415 422 q 526 288 415 288 q 638 422 638 288 l 638 972 l 974 972 l 974 404 q 920 176 974 272 q 765 30 867 81 q 526 -21 664 -21 m 503 1276 l 750 1276 l 633 1063 l 425 1063 l 503 1276 z "},"Ŭ":{"ha":1054,"x_min":81,"x_max":974,"o":"m 526 -21 q 288 30 389 -21 q 134 176 188 81 q 81 404 81 272 l 81 972 l 415 972 l 415 422 q 526 288 415 288 q 638 422 638 288 l 638 972 l 974 972 l 974 404 q 920 176 974 272 q 765 30 867 81 q 526 -21 664 -21 m 301 1276 l 475 1276 l 475 1264 q 489 1227 475 1240 q 526 1214 503 1214 q 565 1227 551 1214 q 578 1264 578 1240 l 578 1276 l 753 1276 l 753 1254 q 697 1107 753 1158 q 526 1056 640 1056 q 360 1108 418 1056 q 301 1254 301 1160 l 301 1276 z "},"Û":{"ha":1054,"x_min":81,"x_max":974,"o":"m 526 -21 q 288 30 389 -21 q 134 176 188 81 q 81 404 81 272 l 81 972 l 415 972 l 415 422 q 526 288 415 288 q 638 422 638 288 l 638 972 l 974 972 l 974 404 q 920 176 974 272 q 765 30 867 81 q 526 -21 664 -21 m 414 1276 l 640 1276 l 814 1063 l 592 1063 l 526 1133 l 463 1063 l 240 1063 l 414 1276 z "},"Ü":{"ha":1054,"x_min":81,"x_max":974,"o":"m 526 -21 q 288 30 389 -21 q 134 176 188 81 q 81 404 81 272 l 81 972 l 415 972 l 415 422 q 526 288 415 288 q 638 422 638 288 l 638 972 l 974 972 l 974 404 q 920 176 974 272 q 765 30 867 81 q 526 -21 664 -21 m 228 1183 q 265 1279 228 1243 q 360 1315 301 1315 q 454 1279 418 1315 q 490 1183 490 1243 q 454 1089 490 1125 q 360 1053 418 1053 q 265 1089 301 1053 q 228 1183 228 1125 m 563 1183 q 599 1278 563 1242 q 694 1315 636 1315 q 790 1278 753 1315 q 826 1183 826 1242 q 790 1089 826 1125 q 694 1053 753 1053 q 599 1089 636 1053 q 563 1183 563 1125 z "},"Ù":{"ha":1054,"x_min":81,"x_max":974,"o":"m 526 -21 q 288 30 389 -21 q 134 176 188 81 q 81 404 81 272 l 81 972 l 415 972 l 415 422 q 526 288 415 288 q 638 422 638 288 l 638 972 l 974 972 l 974 404 q 920 176 974 272 q 765 30 867 81 q 526 -21 664 -21 m 551 1276 l 629 1063 l 421 1063 l 304 1276 l 551 1276 z "},"Ű":{"ha":1054,"x_min":81,"x_max":974,"o":"m 526 -21 q 288 30 389 -21 q 134 176 188 81 q 81 404 81 272 l 81 972 l 415 972 l 415 422 q 526 288 415 288 q 638 422 638 288 l 638 972 l 974 972 l 974 404 q 920 176 974 272 q 765 30 867 81 q 526 -21 664 -21 m 358 1276 l 588 1276 l 479 1063 l 282 1063 l 358 1276 m 665 1276 l 892 1276 l 763 1063 l 556 1063 l 665 1276 z "},"Ū":{"ha":1054,"x_min":81,"x_max":974,"o":"m 526 -21 q 288 30 389 -21 q 134 176 188 81 q 81 404 81 272 l 81 972 l 415 972 l 415 422 q 526 288 415 288 q 638 422 638 288 l 638 972 l 974 972 l 974 404 q 920 176 974 272 q 765 30 867 81 q 526 -21 664 -21 m 276 1250 l 778 1250 l 778 1082 l 276 1082 l 276 1250 z "},"Ų":{"ha":1054,"x_min":81,"x_max":974,"o":"m 618 -301 q 483 -265 532 -301 q 433 -162 433 -228 q 501 -19 433 -87 q 189 101 297 -8 q 81 404 81 210 l 81 972 l 415 972 l 415 422 q 526 288 415 288 q 638 422 638 288 l 638 972 l 974 972 l 974 404 q 926 185 974 271 q 768 31 878 99 q 682 -39 708 -7 q 656 -103 656 -71 q 667 -135 656 -125 q 704 -144 679 -144 l 733 -144 l 733 -301 l 618 -301 z "},"Ů":{"ha":1054,"x_min":81,"x_max":974,"o":"m 526 -21 q 288 30 389 -21 q 134 176 188 81 q 81 404 81 272 l 81 972 l 415 972 l 415 422 q 526 288 415 288 q 638 422 638 288 l 638 972 l 974 972 l 974 404 q 920 176 974 272 q 765 30 867 81 q 526 -21 664 -21 m 335 1196 q 388 1319 335 1272 q 526 1367 440 1367 q 667 1319 614 1367 q 719 1196 719 1272 q 667 1072 719 1119 q 526 1025 614 1025 q 388 1072 440 1025 q 335 1196 335 1119 m 476 1196 q 490 1160 476 1174 q 526 1146 504 1146 q 563 1160 549 1146 q 578 1196 578 1174 q 564 1233 578 1219 q 526 1247 550 1247 q 490 1233 504 1247 q 476 1196 476 1218 z "},"Ũ":{"ha":1054,"x_min":81,"x_max":974,"o":"m 526 -21 q 288 30 389 -21 q 134 176 188 81 q 81 404 81 272 l 81 972 l 415 972 l 415 422 q 526 288 415 288 q 638 422 638 288 l 638 972 l 974 972 l 974 404 q 920 176 974 272 q 765 30 867 81 q 526 -21 664 -21 m 275 1111 q 313 1233 275 1190 q 421 1275 350 1275 q 481 1266 456 1275 q 531 1242 506 1257 q 558 1227 547 1232 q 581 1222 568 1222 q 608 1253 608 1222 l 608 1271 l 781 1271 l 781 1228 q 743 1106 781 1147 q 635 1064 706 1064 q 575 1073 600 1064 q 525 1097 550 1082 q 474 1117 493 1117 q 447 1086 447 1117 l 447 1068 l 275 1068 l 275 1111 z "},"V":{"ha":1056,"x_min":4,"x_max":1051,"o":"m 4 972 l 363 972 l 456 671 l 525 438 l 531 438 l 601 671 l 694 972 l 1051 972 l 703 0 l 353 0 l 4 972 z "},"W":{"ha":1593,"x_min":4,"x_max":1589,"o":"m 4 972 l 360 972 l 415 761 l 492 499 l 497 499 l 574 761 l 631 972 l 963 972 l 1019 761 l 1097 493 l 1103 493 l 1181 761 l 1236 972 l 1589 972 l 1289 0 l 939 0 l 878 214 l 799 482 l 794 482 l 715 214 l 656 0 l 304 0 l 4 972 z "},"Ẃ":{"ha":1593,"x_min":4,"x_max":1589,"o":"m 4 972 l 360 972 l 415 761 l 492 499 l 497 499 l 574 761 l 631 972 l 963 972 l 1019 761 l 1097 493 l 1103 493 l 1181 761 l 1236 972 l 1589 972 l 1289 0 l 939 0 l 878 214 l 799 482 l 794 482 l 715 214 l 656 0 l 304 0 l 4 972 m 772 1276 l 1019 1276 l 903 1063 l 694 1063 l 772 1276 z "},"Ŵ":{"ha":1593,"x_min":4,"x_max":1589,"o":"m 4 972 l 360 972 l 415 761 l 492 499 l 497 499 l 574 761 l 631 972 l 963 972 l 1019 761 l 1097 493 l 1103 493 l 1181 761 l 1236 972 l 1589 972 l 1289 0 l 939 0 l 878 214 l 799 482 l 794 482 l 715 214 l 656 0 l 304 0 l 4 972 m 683 1276 l 910 1276 l 1083 1063 l 861 1063 l 797 1133 l 732 1063 l 510 1063 l 683 1276 z "},"Ẅ":{"ha":1593,"x_min":4,"x_max":1589,"o":"m 4 972 l 360 972 l 415 761 l 492 499 l 497 499 l 574 761 l 631 972 l 963 972 l 1019 761 l 1097 493 l 1103 493 l 1181 761 l 1236 972 l 1589 972 l 1289 0 l 939 0 l 878 214 l 799 482 l 794 482 l 715 214 l 656 0 l 304 0 l 4 972 m 497 1183 q 534 1278 497 1242 q 629 1315 571 1315 q 724 1278 688 1315 q 761 1183 761 1242 q 724 1089 761 1125 q 629 1053 688 1053 q 534 1089 571 1053 q 497 1183 497 1125 m 833 1183 q 870 1279 833 1243 q 964 1315 907 1315 q 1059 1278 1022 1315 q 1096 1183 1096 1242 q 1059 1089 1096 1125 q 964 1053 1022 1053 q 869 1089 906 1053 q 833 1183 833 1125 z "},"Ẁ":{"ha":1593,"x_min":4,"x_max":1589,"o":"m 4 972 l 360 972 l 415 761 l 492 499 l 497 499 l 574 761 l 631 972 l 963 972 l 1019 761 l 1097 493 l 1103 493 l 1181 761 l 1236 972 l 1589 972 l 1289 0 l 939 0 l 878 214 l 799 482 l 794 482 l 715 214 l 656 0 l 304 0 l 4 972 m 821 1276 l 899 1063 l 690 1063 l 574 1276 l 821 1276 z "},"X":{"ha":1113,"x_min":25,"x_max":1089,"o":"m 329 496 l 42 972 l 411 972 l 478 849 l 554 714 l 558 714 l 633 849 l 701 972 l 1069 972 l 782 497 l 1089 0 l 703 0 l 625 140 l 558 263 l 554 263 l 408 0 l 25 0 l 329 496 z "},"Y":{"ha":1035,"x_min":4,"x_max":1031,"o":"m 350 324 l 4 972 l 376 972 l 456 792 l 515 644 l 519 644 l 578 792 l 657 972 l 1031 972 l 686 329 l 686 0 l 350 0 l 350 324 z "},"Ý":{"ha":1035,"x_min":4,"x_max":1031,"o":"m 350 324 l 4 972 l 376 972 l 456 792 l 515 644 l 519 644 l 578 792 l 657 972 l 1031 972 l 686 329 l 686 0 l 350 0 l 350 324 m 492 1276 l 739 1276 l 624 1063 l 415 1063 l 492 1276 z "},"Ŷ":{"ha":1035,"x_min":4,"x_max":1031,"o":"m 350 324 l 4 972 l 376 972 l 456 792 l 515 644 l 519 644 l 578 792 l 657 972 l 1031 972 l 686 329 l 686 0 l 350 0 l 350 324 m 404 1276 l 629 1276 l 803 1063 l 582 1063 l 517 1133 l 451 1063 l 229 1063 l 404 1276 z "},"Ÿ":{"ha":1035,"x_min":4,"x_max":1031,"o":"m 350 324 l 4 972 l 376 972 l 456 792 l 515 644 l 519 644 l 578 792 l 657 972 l 1031 972 l 686 329 l 686 0 l 350 0 l 350 324 m 217 1183 q 253 1278 217 1242 q 349 1315 290 1315 q 444 1278 407 1315 q 481 1183 481 1242 q 444 1089 481 1125 q 349 1053 407 1053 q 253 1089 290 1053 q 217 1183 217 1125 m 553 1183 q 590 1279 553 1243 q 685 1315 626 1315 q 779 1279 743 1315 q 815 1183 815 1243 q 779 1089 815 1125 q 685 1053 743 1053 q 590 1089 626 1053 q 553 1183 553 1125 z "},"Ỳ":{"ha":1035,"x_min":4,"x_max":1031,"o":"m 350 324 l 4 972 l 376 972 l 456 792 l 515 644 l 519 644 l 578 792 l 657 972 l 1031 972 l 686 329 l 686 0 l 350 0 l 350 324 m 540 1276 l 618 1063 l 410 1063 l 293 1276 l 540 1276 z "},"Z":{"ha":888,"x_min":44,"x_max":843,"o":"m 44 239 l 408 681 l 407 685 l 286 683 l 58 683 l 58 972 l 835 972 l 835 733 l 472 292 l 474 288 l 608 289 l 843 289 l 843 0 l 44 0 l 44 239 z "},"Ź":{"ha":888,"x_min":44,"x_max":843,"o":"m 44 239 l 408 681 l 407 685 l 286 683 l 58 683 l 58 972 l 835 972 l 835 733 l 472 292 l 474 288 l 608 289 l 843 289 l 843 0 l 44 0 l 44 239 m 422 1276 l 669 1276 l 553 1063 l 344 1063 l 422 1276 z "},"Ž":{"ha":888,"x_min":44,"x_max":843,"o":"m 44 239 l 408 681 l 407 685 l 286 683 l 58 683 l 58 972 l 835 972 l 835 733 l 472 292 l 474 288 l 608 289 l 843 289 l 843 0 l 44 0 l 44 239 m 382 1276 l 447 1206 l 511 1276 l 733 1276 l 560 1063 l 335 1063 l 160 1276 l 382 1276 z "},"Ż":{"ha":888,"x_min":44,"x_max":843,"o":"m 44 239 l 408 681 l 407 685 l 286 683 l 58 683 l 58 972 l 835 972 l 835 733 l 472 292 l 474 288 l 608 289 l 843 289 l 843 0 l 44 0 l 44 239 m 289 1197 q 333 1306 289 1264 q 446 1349 376 1349 q 560 1306 517 1349 q 604 1197 604 1264 q 560 1089 604 1131 q 446 1047 517 1047 q 333 1089 376 1047 q 289 1197 289 1131 z "},"a":{"ha":908,"x_min":47,"x_max":843,"o":"m 326 -18 q 122 44 197 -18 q 47 214 47 107 q 115 378 47 317 q 299 440 183 440 l 535 440 l 535 485 q 512 531 535 513 q 454 550 489 550 q 400 533 422 550 q 375 489 378 517 l 83 489 q 195 691 100 622 q 456 760 290 760 q 743 672 643 760 q 843 418 843 585 l 843 0 l 617 0 l 585 81 q 472 7 538 32 q 326 -18 406 -18 m 350 236 q 371 194 350 210 q 428 178 392 178 q 508 207 478 178 q 539 285 539 236 l 539 294 l 428 294 q 371 278 392 294 q 350 236 350 263 z "},"á":{"ha":908,"x_min":47,"x_max":843,"o":"m 326 -18 q 122 44 197 -18 q 47 214 47 107 q 115 378 47 317 q 299 440 183 440 l 535 440 l 535 485 q 512 531 535 513 q 454 550 489 550 q 400 533 422 550 q 375 489 378 517 l 83 489 q 195 691 100 622 q 456 760 290 760 q 743 672 643 760 q 843 418 843 585 l 843 0 l 617 0 l 585 81 q 472 7 538 32 q 326 -18 406 -18 m 419 1060 l 668 1060 l 551 829 l 343 829 l 419 1060 m 350 236 q 371 194 350 210 q 428 178 392 178 q 508 207 478 178 q 539 285 539 236 l 539 294 l 428 294 q 371 278 392 294 q 350 236 350 263 z "},"ă":{"ha":908,"x_min":47,"x_max":843,"o":"m 326 -18 q 122 44 197 -18 q 47 214 47 107 q 115 378 47 317 q 299 440 183 440 l 535 440 l 535 485 q 512 531 535 513 q 454 550 489 550 q 400 533 422 550 q 375 489 378 517 l 83 489 q 195 691 100 622 q 456 760 290 760 q 743 672 643 760 q 843 418 843 585 l 843 0 l 617 0 l 585 81 q 472 7 538 32 q 326 -18 406 -18 m 217 1060 l 393 1060 l 393 1039 q 454 981 393 981 q 499 995 482 981 q 515 1039 515 1010 l 515 1060 l 692 1060 l 692 1026 q 630 874 692 926 q 454 822 568 822 q 278 874 340 822 q 217 1026 217 926 l 217 1060 m 350 236 q 371 194 350 210 q 428 178 392 178 q 508 207 478 178 q 539 285 539 236 l 539 294 l 428 294 q 371 278 392 294 q 350 236 350 263 z "},"ǎ":{"ha":908,"x_min":47,"x_max":843,"o":"m 326 -18 q 122 44 197 -18 q 47 214 47 107 q 115 378 47 317 q 299 440 183 440 l 535 440 l 535 485 q 512 531 535 513 q 454 550 489 550 q 400 533 422 550 q 375 489 378 517 l 83 489 q 195 691 100 622 q 456 760 290 760 q 743 672 643 760 q 843 418 843 585 l 843 0 l 617 0 l 585 81 q 472 7 538 32 q 326 -18 406 -18 m 390 1058 l 456 978 l 519 1058 l 742 1058 l 568 828 l 343 828 l 168 1058 l 390 1058 m 350 236 q 371 194 350 210 q 428 178 392 178 q 508 207 478 178 q 539 285 539 236 l 539 294 l 428 294 q 371 278 392 294 q 350 236 350 263 z "},"â":{"ha":908,"x_min":47,"x_max":843,"o":"m 326 -18 q 122 44 197 -18 q 47 214 47 107 q 115 378 47 317 q 299 440 183 440 l 535 440 l 535 485 q 512 531 535 513 q 454 550 489 550 q 400 533 422 550 q 375 489 378 517 l 83 489 q 195 691 100 622 q 456 760 290 760 q 743 672 643 760 q 843 418 843 585 l 843 0 l 617 0 l 585 81 q 472 7 538 32 q 326 -18 406 -18 m 342 1060 l 568 1060 l 742 829 l 519 829 l 456 910 l 390 829 l 168 829 l 342 1060 m 350 236 q 371 194 350 210 q 428 178 392 178 q 508 207 478 178 q 539 285 539 236 l 539 294 l 428 294 q 371 278 392 294 q 350 236 350 263 z "},"ä":{"ha":908,"x_min":47,"x_max":843,"o":"m 326 -18 q 122 44 197 -18 q 47 214 47 107 q 115 378 47 317 q 299 440 183 440 l 535 440 l 535 485 q 512 531 535 513 q 454 550 489 550 q 400 533 422 550 q 375 489 378 517 l 83 489 q 195 691 100 622 q 456 760 290 760 q 743 672 643 760 q 843 418 843 585 l 843 0 l 617 0 l 585 81 q 472 7 538 32 q 326 -18 406 -18 m 163 957 q 199 1049 163 1014 q 290 1085 235 1085 q 383 1049 347 1085 q 419 957 419 1014 q 383 865 419 900 q 290 829 347 829 q 199 865 235 829 q 163 957 163 900 m 350 236 q 371 194 350 210 q 428 178 392 178 q 508 207 478 178 q 539 285 539 236 l 539 294 l 428 294 q 371 278 392 294 q 350 236 350 263 m 490 957 q 526 1049 490 1014 q 619 1085 563 1085 q 711 1049 675 1085 q 747 957 747 1014 q 711 865 747 900 q 619 829 675 829 q 526 865 563 829 q 490 957 490 900 z "},"à":{"ha":908,"x_min":47,"x_max":843,"o":"m 326 -18 q 122 44 197 -18 q 47 214 47 107 q 115 378 47 317 q 299 440 183 440 l 535 440 l 535 485 q 512 531 535 513 q 454 550 489 550 q 400 533 422 550 q 375 489 378 517 l 83 489 q 195 691 100 622 q 456 760 290 760 q 743 672 643 760 q 843 418 843 585 l 843 0 l 617 0 l 585 81 q 472 7 538 32 q 326 -18 406 -18 m 490 1060 l 567 829 l 358 829 l 242 1060 l 490 1060 m 350 236 q 371 194 350 210 q 428 178 392 178 q 508 207 478 178 q 539 285 539 236 l 539 294 l 428 294 q 371 278 392 294 q 350 236 350 263 z "},"ā":{"ha":908,"x_min":47,"x_max":843,"o":"m 326 -18 q 122 44 197 -18 q 47 214 47 107 q 115 378 47 317 q 299 440 183 440 l 535 440 l 535 485 q 512 531 535 513 q 454 550 489 550 q 400 533 422 550 q 375 489 378 517 l 83 489 q 195 691 100 622 q 456 760 290 760 q 743 672 643 760 q 843 418 843 585 l 843 0 l 617 0 l 585 81 q 472 7 538 32 q 326 -18 406 -18 m 218 1015 l 692 1015 l 692 847 l 218 847 l 218 1015 m 350 236 q 371 194 350 210 q 428 178 392 178 q 508 207 478 178 q 539 285 539 236 l 539 294 l 428 294 q 371 278 392 294 q 350 236 350 263 z "},"ą":{"ha":908,"x_min":47,"x_max":843,"o":"m 326 -18 q 122 44 197 -18 q 47 214 47 107 q 115 378 47 317 q 299 440 183 440 l 535 440 l 535 485 q 512 531 535 513 q 454 550 489 550 q 400 533 422 550 q 375 489 378 517 l 83 489 q 195 691 100 622 q 456 760 290 760 q 743 672 643 760 q 843 418 843 585 l 843 0 q 788 -47 808 -21 q 768 -99 768 -74 q 815 -139 768 -139 l 843 -139 l 843 -290 l 732 -290 q 602 -255 649 -290 q 556 -157 556 -219 q 642 0 556 -74 l 617 0 l 585 81 q 472 7 538 32 q 326 -18 406 -18 m 350 236 q 371 194 350 210 q 428 178 392 178 q 508 207 478 178 q 539 285 539 236 l 539 294 l 428 294 q 371 278 392 294 q 350 236 350 263 z "},"å":{"ha":908,"x_min":47,"x_max":843,"o":"m 326 -18 q 122 44 197 -18 q 47 214 47 107 q 115 378 47 317 q 299 440 183 440 l 535 440 l 535 485 q 512 531 535 513 q 454 550 489 550 q 400 533 422 550 q 375 489 378 517 l 83 489 q 195 691 100 622 q 456 760 290 760 q 743 672 643 760 q 843 418 843 585 l 843 0 l 617 0 l 585 81 q 472 7 538 32 q 326 -18 406 -18 m 267 972 q 318 1094 267 1049 q 456 1140 369 1140 q 592 1094 540 1140 q 643 972 643 1049 q 592 850 643 896 q 456 804 540 804 q 318 850 369 804 q 267 972 267 896 m 350 236 q 371 194 350 210 q 428 178 392 178 q 508 207 478 178 q 539 285 539 236 l 539 294 l 428 294 q 371 278 392 294 q 350 236 350 263 m 406 972 q 419 936 406 950 q 456 922 433 922 q 491 936 478 922 q 504 972 504 950 q 491 1008 504 994 q 456 1022 478 1022 q 419 1008 433 1022 q 406 972 406 994 z "},"ã":{"ha":908,"x_min":47,"x_max":843,"o":"m 326 -18 q 122 44 197 -18 q 47 214 47 107 q 115 378 47 317 q 299 440 183 440 l 535 440 l 535 485 q 512 531 535 513 q 454 550 489 550 q 400 533 422 550 q 375 489 378 517 l 83 489 q 195 691 100 622 q 456 760 290 760 q 743 672 643 760 q 843 418 843 585 l 843 0 l 617 0 l 585 81 q 472 7 538 32 q 326 -18 406 -18 m 201 876 q 239 999 201 957 q 347 1040 276 1040 q 408 1031 385 1040 q 458 1007 432 1022 q 508 988 488 988 q 535 1018 535 988 l 535 1036 l 707 1036 l 707 993 q 669 872 707 914 q 561 829 632 829 q 500 838 524 829 q 450 863 476 847 q 401 882 421 882 q 374 851 374 882 l 374 833 l 201 833 l 201 876 m 350 236 q 371 194 350 210 q 428 178 392 178 q 508 207 478 178 q 539 285 539 236 l 539 294 l 428 294 q 371 278 392 294 q 350 236 350 263 z "},"æ":{"ha":1428,"x_min":47,"x_max":1400,"o":"m 994 -21 q 831 10 906 -21 q 704 96 756 40 q 570 9 651 39 q 383 -21 489 -21 q 135 41 224 -21 q 47 214 47 103 q 119 380 47 318 q 311 442 190 442 l 538 442 l 538 475 q 515 531 538 510 q 454 551 493 551 q 399 535 421 551 q 371 489 376 518 l 83 489 q 191 690 99 619 q 440 760 283 760 q 718 657 628 760 q 842 733 771 707 q 999 760 914 760 q 1218 703 1126 760 q 1355 544 1310 647 q 1393 301 1400 440 l 847 301 q 892 226 858 253 q 974 200 925 200 q 1034 212 1006 200 q 1081 244 1063 224 l 1381 244 q 1236 48 1336 117 q 994 -21 1136 -21 m 351 236 q 373 193 351 208 q 432 178 394 178 q 513 208 483 178 q 543 290 543 239 l 543 296 l 432 296 q 373 280 394 296 q 351 236 351 264 m 1096 447 q 1049 515 1081 492 q 972 539 1018 539 q 894 515 926 539 q 850 447 863 492 l 1096 447 z "},"ǽ":{"ha":1428,"x_min":47,"x_max":1400,"o":"m 994 -21 q 831 10 906 -21 q 704 96 756 40 q 570 9 651 39 q 383 -21 489 -21 q 135 41 224 -21 q 47 214 47 103 q 119 380 47 318 q 311 442 190 442 l 538 442 l 538 475 q 515 531 538 510 q 454 551 493 551 q 399 535 421 551 q 371 489 376 518 l 83 489 q 191 690 99 619 q 440 760 283 760 q 718 657 628 760 q 842 733 771 707 q 999 760 914 760 q 1218 703 1126 760 q 1355 544 1310 647 q 1393 301 1400 440 l 847 301 q 892 226 858 253 q 974 200 925 200 q 1034 212 1006 200 q 1081 244 1063 224 l 1381 244 q 1236 48 1336 117 q 994 -21 1136 -21 m 351 236 q 373 193 351 208 q 432 178 394 178 q 513 208 483 178 q 543 290 543 239 l 543 296 l 432 296 q 373 280 394 296 q 351 236 351 264 m 676 1060 l 924 1060 l 807 829 l 599 829 l 676 1060 m 1096 447 q 1049 515 1081 492 q 972 539 1018 539 q 894 515 926 539 q 850 447 863 492 l 1096 447 z "},"b":{"ha":996,"x_min":79,"x_max":961,"o":"m 586 -19 q 333 74 433 -19 l 304 0 l 79 0 l 79 1028 l 396 1028 l 396 713 q 586 760 479 760 q 782 710 697 760 q 914 573 867 661 q 961 369 961 485 q 914 166 961 254 q 782 29 867 78 q 586 -19 697 -19 m 388 369 q 424 273 388 310 q 519 236 460 236 q 616 273 579 236 q 653 369 653 310 q 616 467 653 429 q 519 504 579 504 q 424 467 460 504 q 388 369 388 431 z "},"c":{"ha":926,"x_min":33,"x_max":894,"o":"m 464 -21 q 240 28 338 -21 q 88 167 142 78 q 33 369 33 256 q 88 572 33 483 q 241 710 143 661 q 464 760 339 760 q 672 719 579 760 q 821 603 764 678 q 890 428 878 528 l 597 428 q 547 485 579 465 q 471 504 514 504 q 377 467 413 504 q 342 369 342 431 q 377 273 342 310 q 471 236 413 236 q 551 259 517 236 q 600 322 585 282 l 894 322 q 824 140 882 218 q 674 21 767 63 q 464 -21 582 -21 z "},"ć":{"ha":926,"x_min":33,"x_max":894,"o":"m 464 -21 q 240 28 338 -21 q 88 167 142 78 q 33 369 33 256 q 88 572 33 483 q 241 710 143 661 q 464 760 339 760 q 672 719 579 760 q 821 603 764 678 q 890 428 878 528 l 597 428 q 547 485 579 465 q 471 504 514 504 q 377 467 413 504 q 342 369 342 431 q 377 273 342 310 q 471 236 413 236 q 551 259 517 236 q 600 322 585 282 l 894 322 q 824 140 882 218 q 674 21 767 63 q 464 -21 582 -21 m 429 1060 l 676 1060 l 561 829 l 353 829 l 429 1060 z "},"č":{"ha":926,"x_min":33,"x_max":894,"o":"m 464 -21 q 240 28 338 -21 q 88 167 142 78 q 33 369 33 256 q 88 572 33 483 q 241 710 143 661 q 464 760 339 760 q 672 719 579 760 q 821 603 764 678 q 890 428 878 528 l 597 428 q 547 485 579 465 q 471 504 514 504 q 377 467 413 504 q 342 369 342 431 q 377 273 342 310 q 471 236 413 236 q 551 259 517 236 q 600 322 585 282 l 894 322 q 824 140 882 218 q 674 21 767 63 q 464 -21 582 -21 m 400 1058 l 465 978 l 529 1058 l 751 1058 l 578 828 l 353 828 l 178 1058 l 400 1058 z "},"ç":{"ha":926,"x_min":33,"x_max":894,"o":"m 326 -224 l 449 -224 q 485 -196 485 -224 q 449 -167 485 -167 l 383 -167 l 347 -118 l 381 -15 q 198 53 276 0 q 76 187 119 106 q 33 369 33 268 q 88 572 33 483 q 241 710 143 661 q 464 760 339 760 q 672 719 579 760 q 821 603 764 678 q 890 428 878 528 l 597 428 q 547 485 579 465 q 471 504 514 504 q 377 467 413 504 q 342 369 342 431 q 377 273 342 310 q 471 236 413 236 q 551 259 517 236 q 600 322 585 282 l 894 322 q 779 90 876 181 q 531 -17 682 0 l 519 -53 q 622 -106 586 -62 q 658 -211 658 -149 q 611 -328 658 -283 q 479 -372 564 -372 l 326 -372 l 326 -224 z "},"ĉ":{"ha":926,"x_min":33,"x_max":894,"o":"m 464 -21 q 240 28 338 -21 q 88 167 142 78 q 33 369 33 256 q 88 572 33 483 q 241 710 143 661 q 464 760 339 760 q 672 719 579 760 q 821 603 764 678 q 890 428 878 528 l 597 428 q 547 485 579 465 q 471 504 514 504 q 377 467 413 504 q 342 369 342 431 q 377 273 342 310 q 471 236 413 236 q 551 259 517 236 q 600 322 585 282 l 894 322 q 824 140 882 218 q 674 21 767 63 q 464 -21 582 -21 m 351 1060 l 576 1060 l 751 829 l 529 829 l 464 910 l 400 829 l 178 829 l 351 1060 z "},"ċ":{"ha":926,"x_min":33,"x_max":894,"o":"m 464 -21 q 240 28 338 -21 q 88 167 142 78 q 33 369 33 256 q 88 572 33 483 q 241 710 143 661 q 464 760 339 760 q 672 719 579 760 q 821 603 764 678 q 890 428 878 528 l 597 428 q 547 485 579 465 q 471 504 514 504 q 377 467 413 504 q 342 369 342 431 q 377 273 342 310 q 471 236 413 236 q 551 259 517 236 q 600 322 585 282 l 894 322 q 824 140 882 218 q 674 21 767 63 q 464 -21 582 -21 m 313 972 q 354 1077 313 1038 q 464 1117 396 1117 q 574 1077 532 1117 q 615 972 615 1038 q 574 867 615 907 q 464 828 532 828 q 354 867 396 828 q 313 972 313 907 z "},"d":{"ha":996,"x_min":33,"x_max":917,"o":"m 408 -19 q 213 29 299 -19 q 81 166 128 78 q 33 369 33 254 q 81 573 33 485 q 213 710 128 661 q 408 760 299 760 q 600 713 517 760 l 600 1028 l 917 1028 l 917 0 l 690 0 l 663 72 q 549 4 614 28 q 408 -19 485 -19 m 342 369 q 378 273 342 310 q 475 236 415 236 q 572 273 535 236 q 608 369 608 310 q 572 467 608 429 q 475 504 535 504 q 378 467 415 504 q 342 369 342 429 z "},"ð":{"ha":978,"x_min":33,"x_max":926,"o":"m 471 -21 q 241 26 340 -21 q 88 157 142 72 q 33 353 33 242 q 79 533 33 454 q 208 656 125 613 q 397 700 290 700 q 535 682 469 700 q 651 628 601 664 q 158 885 582 874 l 158 1135 q 589 1032 411 1118 l 917 1169 l 917 954 l 774 896 q 926 458 926 731 q 874 203 926 311 q 718 38 821 96 q 471 -21 615 -21 m 340 363 q 377 271 340 307 q 471 235 414 235 q 565 270 529 235 q 601 363 601 306 q 565 453 601 418 q 471 489 529 489 q 377 453 414 489 q 340 363 340 418 z "},"ď":{"ha":1178,"x_min":33,"x_max":1264,"o":"m 408 -19 q 213 29 299 -19 q 81 166 128 78 q 33 369 33 254 q 81 573 33 485 q 213 710 128 661 q 408 760 299 760 q 600 713 517 760 l 600 1028 l 917 1028 l 917 0 l 690 0 l 663 72 q 549 4 614 28 q 408 -19 485 -19 m 342 369 q 378 273 342 310 q 475 236 415 236 q 572 273 535 236 q 608 369 608 310 q 572 467 608 429 q 475 504 535 504 q 378 467 415 504 q 342 369 342 429 m 1013 1028 l 1264 1028 l 1199 729 l 989 729 l 1013 1028 z "},"đ":{"ha":1031,"x_min":33,"x_max":1025,"o":"m 407 -19 q 213 28 299 -19 q 81 163 128 76 q 33 361 33 250 q 81 559 33 472 q 213 694 128 646 q 407 743 299 743 q 597 696 514 743 l 597 788 l 419 788 l 419 958 l 597 958 l 597 1028 l 914 1028 l 914 958 l 1025 958 l 1025 779 l 914 779 l 914 0 l 688 0 l 658 71 q 546 4 610 28 q 407 -19 482 -19 m 342 363 q 378 267 342 303 q 472 231 414 231 q 565 267 529 231 q 601 363 601 303 q 565 458 601 421 q 472 494 529 494 q 378 458 414 494 q 342 363 342 421 z "},"e":{"ha":926,"x_min":33,"x_max":900,"o":"m 461 -21 q 239 28 336 -21 q 88 167 142 78 q 33 369 33 256 q 88 572 33 483 q 240 710 143 661 q 464 760 338 760 q 701 703 601 760 q 850 543 800 647 q 893 301 900 439 l 340 301 q 388 226 353 251 q 471 201 422 201 q 535 213 506 201 q 583 246 565 225 l 881 246 q 724 49 835 119 q 461 -21 614 -21 m 596 447 q 550 516 582 492 q 469 540 518 540 q 389 517 422 540 q 342 447 356 493 l 596 447 z "},"é":{"ha":926,"x_min":33,"x_max":900,"o":"m 461 -21 q 239 28 336 -21 q 88 167 142 78 q 33 369 33 256 q 88 572 33 483 q 240 710 143 661 q 464 760 338 760 q 701 703 601 760 q 850 543 800 647 q 893 301 900 439 l 340 301 q 388 226 353 251 q 471 201 422 201 q 535 213 506 201 q 583 246 565 225 l 881 246 q 724 49 835 119 q 461 -21 614 -21 m 596 447 q 550 516 582 492 q 469 540 518 540 q 389 517 422 540 q 342 447 356 493 l 596 447 m 429 1060 l 676 1060 l 561 829 l 353 829 l 429 1060 z "},"ĕ":{"ha":926,"x_min":33,"x_max":900,"o":"m 461 -21 q 239 28 336 -21 q 88 167 142 78 q 33 369 33 256 q 88 572 33 483 q 240 710 143 661 q 464 760 338 760 q 701 703 601 760 q 850 543 800 647 q 893 301 900 439 l 340 301 q 388 226 353 251 q 471 201 422 201 q 535 213 506 201 q 583 246 565 225 l 881 246 q 724 49 835 119 q 461 -21 614 -21 m 226 1060 l 401 1060 l 401 1039 q 418 995 401 1010 q 464 981 435 981 q 508 995 492 981 q 525 1039 525 1010 l 525 1060 l 700 1060 l 700 1026 q 639 874 700 926 q 464 822 578 822 q 288 874 350 822 q 226 1026 226 926 l 226 1060 m 596 447 q 550 516 582 492 q 469 540 518 540 q 389 517 422 540 q 342 447 356 493 l 596 447 z "},"ě":{"ha":926,"x_min":33,"x_max":900,"o":"m 461 -21 q 239 28 336 -21 q 88 167 142 78 q 33 369 33 256 q 88 572 33 483 q 240 710 143 661 q 464 760 338 760 q 701 703 601 760 q 850 543 800 647 q 893 301 900 439 l 340 301 q 388 226 353 251 q 471 201 422 201 q 535 213 506 201 q 583 246 565 225 l 881 246 q 724 49 835 119 q 461 -21 614 -21 m 400 1058 l 465 978 l 529 1058 l 751 1058 l 578 828 l 353 828 l 178 1058 l 400 1058 m 596 447 q 550 516 582 492 q 469 540 518 540 q 389 517 422 540 q 342 447 356 493 l 596 447 z "},"ê":{"ha":926,"x_min":33,"x_max":900,"o":"m 461 -21 q 239 28 336 -21 q 88 167 142 78 q 33 369 33 256 q 88 572 33 483 q 240 710 143 661 q 464 760 338 760 q 701 703 601 760 q 850 543 800 647 q 893 301 900 439 l 340 301 q 388 226 353 251 q 471 201 422 201 q 535 213 506 201 q 583 246 565 225 l 881 246 q 724 49 835 119 q 461 -21 614 -21 m 351 1060 l 576 1060 l 751 829 l 529 829 l 464 910 l 400 829 l 178 829 l 351 1060 m 596 447 q 550 516 582 492 q 469 540 518 540 q 389 517 422 540 q 342 447 356 493 l 596 447 z "},"ë":{"ha":926,"x_min":33,"x_max":900,"o":"m 461 -21 q 239 28 336 -21 q 88 167 142 78 q 33 369 33 256 q 88 572 33 483 q 240 710 143 661 q 464 760 338 760 q 701 703 601 760 q 850 543 800 647 q 893 301 900 439 l 340 301 q 388 226 353 251 q 471 201 422 201 q 535 213 506 201 q 583 246 565 225 l 881 246 q 724 49 835 119 q 461 -21 614 -21 m 172 957 q 208 1049 172 1014 q 300 1085 243 1085 q 393 1049 357 1085 q 429 957 429 1014 q 393 865 429 900 q 300 829 357 829 q 208 865 243 829 q 172 957 172 900 m 596 447 q 550 516 582 492 q 469 540 518 540 q 389 517 422 540 q 342 447 356 493 l 596 447 m 500 957 q 536 1049 500 1014 q 629 1085 572 1085 q 721 1049 685 1085 q 757 957 757 1014 q 721 865 757 900 q 629 829 685 829 q 536 865 572 829 q 500 957 500 900 z "},"ė":{"ha":926,"x_min":33,"x_max":900,"o":"m 461 -21 q 239 28 336 -21 q 88 167 142 78 q 33 369 33 256 q 88 572 33 483 q 240 710 143 661 q 464 760 338 760 q 701 703 601 760 q 850 543 800 647 q 893 301 900 439 l 340 301 q 388 226 353 251 q 471 201 422 201 q 535 213 506 201 q 583 246 565 225 l 881 246 q 724 49 835 119 q 461 -21 614 -21 m 313 972 q 354 1077 313 1038 q 464 1117 396 1117 q 574 1077 532 1117 q 615 972 615 1038 q 574 867 615 907 q 464 828 532 828 q 354 867 396 828 q 313 972 313 907 m 596 447 q 550 516 582 492 q 469 540 518 540 q 389 517 422 540 q 342 447 356 493 l 596 447 z "},"è":{"ha":926,"x_min":33,"x_max":900,"o":"m 461 -21 q 239 28 336 -21 q 88 167 142 78 q 33 369 33 256 q 88 572 33 483 q 240 710 143 661 q 464 760 338 760 q 701 703 601 760 q 850 543 800 647 q 893 301 900 439 l 340 301 q 388 226 353 251 q 471 201 422 201 q 535 213 506 201 q 583 246 565 225 l 881 246 q 724 49 835 119 q 461 -21 614 -21 m 499 1060 l 576 829 l 368 829 l 251 1060 l 499 1060 m 596 447 q 550 516 582 492 q 469 540 518 540 q 389 517 422 540 q 342 447 356 493 l 596 447 z "},"ē":{"ha":926,"x_min":33,"x_max":900,"o":"m 461 -21 q 239 28 336 -21 q 88 167 142 78 q 33 369 33 256 q 88 572 33 483 q 240 710 143 661 q 464 760 338 760 q 701 703 601 760 q 850 543 800 647 q 893 301 900 439 l 340 301 q 388 226 353 251 q 471 201 422 201 q 535 213 506 201 q 583 246 565 225 l 881 246 q 724 49 835 119 q 461 -21 614 -21 m 228 1015 l 701 1015 l 701 847 l 228 847 l 228 1015 m 596 447 q 550 516 582 492 q 469 540 518 540 q 389 517 422 540 q 342 447 356 493 l 596 447 z "},"ę":{"ha":926,"x_min":33,"x_max":900,"o":"m 549 -279 q 419 -244 465 -279 q 372 -147 372 -210 q 426 -21 372 -83 q 221 38 310 -14 q 83 175 132 89 q 33 369 33 261 q 88 572 33 483 q 240 710 143 661 q 464 760 338 760 q 701 703 601 760 q 850 544 800 647 q 893 301 900 440 l 340 301 q 385 227 351 253 q 471 201 419 201 q 535 213 506 201 q 583 246 565 225 l 881 246 q 802 113 854 171 q 681 22 750 54 q 609 -28 633 0 q 585 -86 585 -57 q 632 -128 585 -128 l 660 -128 l 660 -279 l 549 -279 m 594 447 q 549 516 581 492 q 469 540 517 540 q 387 515 419 540 q 343 447 354 490 l 594 447 z "},"ə":{"ha":926,"x_min":26,"x_max":893,"o":"m 465 761 q 688 712 590 761 q 839 574 785 663 q 893 371 893 485 q 838 168 893 257 q 686 30 783 79 q 463 -19 589 -19 q 226 37 325 -19 q 76 197 126 93 q 33 439 26 301 l 586 439 q 539 514 574 489 q 456 539 504 539 q 391 527 421 539 q 343 494 361 515 l 46 494 q 202 691 92 621 q 465 761 313 761 m 331 293 q 376 224 344 249 q 457 200 408 200 q 538 224 504 200 q 585 293 571 247 l 331 293 z "},"f":{"ha":671,"x_min":22,"x_max":657,"o":"m 160 788 q 233 1000 160 928 q 450 1072 307 1072 l 657 1072 l 657 849 l 542 849 q 463 769 463 849 l 463 740 l 650 740 l 650 496 l 476 496 l 476 0 l 160 0 l 160 496 l 22 496 l 22 740 l 160 740 l 160 788 z "},"g":{"ha":979,"x_min":33,"x_max":900,"o":"m 479 -329 q 185 -251 294 -329 q 68 -35 75 -174 l 369 -35 q 402 -82 375 -65 q 475 -99 429 -99 q 559 -70 532 -99 q 586 18 586 -42 l 586 75 q 386 24 500 24 q 203 70 283 24 q 78 200 122 117 q 33 392 33 283 q 78 583 33 500 q 203 713 122 667 q 386 760 283 760 q 530 735 464 760 q 644 664 596 710 l 674 740 l 900 740 l 900 39 q 788 -235 900 -140 q 479 -329 676 -329 m 343 390 q 377 300 343 335 q 467 265 411 265 q 555 300 521 265 q 589 390 589 335 q 555 481 589 446 q 467 515 521 515 q 377 481 411 515 q 343 390 343 446 z "},"ğ":{"ha":979,"x_min":33,"x_max":900,"o":"m 479 -329 q 185 -251 294 -329 q 68 -35 75 -174 l 369 -35 q 402 -82 375 -65 q 475 -99 429 -99 q 559 -70 532 -99 q 586 18 586 -42 l 586 75 q 386 24 500 24 q 203 70 283 24 q 78 200 122 117 q 33 392 33 283 q 78 583 33 500 q 203 713 122 667 q 386 760 283 760 q 530 735 464 760 q 644 664 596 710 l 674 740 l 900 740 l 900 39 q 788 -235 900 -140 q 479 -329 676 -329 m 243 1060 l 418 1060 l 418 1039 q 435 995 418 1010 q 481 981 451 981 q 525 995 508 981 q 542 1039 542 1010 l 542 1060 l 717 1060 l 717 1026 q 656 874 717 926 q 481 822 594 822 q 305 874 367 822 q 243 1026 243 926 l 243 1060 m 343 390 q 377 300 343 335 q 467 265 411 265 q 555 300 521 265 q 589 390 589 335 q 555 481 589 446 q 467 515 521 515 q 377 481 411 515 q 343 390 343 446 z "},"ǧ":{"ha":979,"x_min":33,"x_max":900,"o":"m 479 -329 q 185 -251 294 -329 q 68 -35 75 -174 l 369 -35 q 402 -82 375 -65 q 475 -99 429 -99 q 559 -70 532 -99 q 586 18 586 -42 l 586 75 q 386 24 500 24 q 203 70 283 24 q 78 200 122 117 q 33 392 33 283 q 78 583 33 500 q 203 713 122 667 q 386 760 283 760 q 530 735 464 760 q 644 664 596 710 l 674 740 l 900 740 l 900 39 q 788 -235 900 -140 q 479 -329 676 -329 m 417 1058 l 482 978 l 546 1058 l 768 1058 l 594 828 l 369 828 l 194 1058 l 417 1058 m 343 390 q 377 300 343 335 q 467 265 411 265 q 555 300 521 265 q 589 390 589 335 q 555 481 589 446 q 467 515 521 515 q 377 481 411 515 q 343 390 343 446 z "},"ĝ":{"ha":979,"x_min":33,"x_max":900,"o":"m 479 -329 q 185 -251 294 -329 q 68 -35 75 -174 l 369 -35 q 402 -82 375 -65 q 475 -99 429 -99 q 559 -70 532 -99 q 586 18 586 -42 l 586 75 q 386 24 500 24 q 203 70 283 24 q 78 200 122 117 q 33 392 33 283 q 78 583 33 500 q 203 713 122 667 q 386 760 283 760 q 530 735 464 760 q 644 664 596 710 l 674 740 l 900 740 l 900 39 q 788 -235 900 -140 q 479 -329 676 -329 m 368 1060 l 593 1060 l 768 829 l 546 829 l 481 910 l 415 829 l 194 829 l 368 1060 m 343 390 q 377 300 343 335 q 467 265 411 265 q 555 300 521 265 q 589 390 589 335 q 555 481 589 446 q 467 515 521 515 q 377 481 411 515 q 343 390 343 446 z "},"ģ":{"ha":979,"x_min":33,"x_max":900,"o":"m 479 -329 q 185 -251 294 -329 q 68 -35 75 -174 l 369 -35 q 402 -82 375 -65 q 475 -99 429 -99 q 559 -70 532 -99 q 586 18 586 -42 l 586 75 q 386 24 500 24 q 203 70 283 24 q 78 200 122 117 q 33 392 33 283 q 78 583 33 500 q 203 713 122 667 q 386 760 283 760 q 530 735 464 760 q 644 664 596 710 l 674 740 l 900 740 l 900 39 q 788 -235 900 -140 q 479 -329 676 -329 m 343 390 q 377 300 343 335 q 467 265 411 265 q 555 300 521 265 q 589 390 589 335 q 555 481 589 446 q 467 515 521 515 q 377 481 411 515 q 343 390 343 446 m 360 975 q 382 1078 360 1029 q 447 1159 404 1128 q 549 1193 490 1190 l 549 1101 q 499 1079 517 1094 q 478 1035 482 1064 l 488 1035 q 565 1006 535 1035 q 594 932 594 978 q 563 856 594 886 q 483 826 532 826 q 392 869 425 826 q 360 975 360 911 z "},"ġ":{"ha":979,"x_min":33,"x_max":900,"o":"m 479 -329 q 185 -251 294 -329 q 68 -35 75 -174 l 369 -35 q 402 -82 375 -65 q 475 -99 429 -99 q 559 -70 532 -99 q 586 18 586 -42 l 586 75 q 386 24 500 24 q 203 70 283 24 q 78 200 122 117 q 33 392 33 283 q 78 583 33 500 q 203 713 122 667 q 386 760 283 760 q 530 735 464 760 q 644 664 596 710 l 674 740 l 900 740 l 900 39 q 788 -235 900 -140 q 479 -329 676 -329 m 329 972 q 371 1077 329 1038 q 481 1117 413 1117 q 590 1077 549 1117 q 632 972 632 1038 q 590 867 632 907 q 481 828 549 828 q 371 867 413 828 q 329 972 329 907 m 343 390 q 377 300 343 335 q 467 265 411 265 q 555 300 521 265 q 589 390 589 335 q 555 481 589 446 q 467 515 521 515 q 377 481 411 515 q 343 390 343 446 z "},"h":{"ha":956,"x_min":79,"x_max":889,"o":"m 79 1028 l 396 1028 l 396 703 q 588 760 476 760 q 808 674 726 760 q 889 442 889 589 l 889 0 l 572 0 l 572 401 q 550 479 572 453 q 486 506 528 506 q 419 478 443 506 q 396 397 396 450 l 396 0 l 79 0 l 79 1028 z "},"ħ":{"ha":1008,"x_min":7,"x_max":942,"o":"m 132 778 l 7 778 l 7 957 l 132 957 l 132 1028 l 449 1028 l 449 957 l 628 957 l 628 786 l 449 786 l 449 681 q 640 738 529 738 q 860 651 779 738 q 942 419 942 565 l 942 0 l 625 0 l 625 381 q 603 458 625 432 q 539 485 581 485 q 472 457 496 485 q 449 376 449 429 l 449 0 l 132 0 l 132 778 z "},"ĥ":{"ha":956,"x_min":-50,"x_max":889,"o":"m 79 1028 l 396 1028 l 396 703 q 588 760 476 760 q 808 674 726 760 q 889 442 889 589 l 889 0 l 572 0 l 572 401 q 550 479 572 453 q 486 506 528 506 q 419 478 443 506 q 396 397 396 450 l 396 0 l 79 0 l 79 1028 m 125 1332 l 350 1332 l 524 1118 l 303 1118 l 238 1189 l 172 1118 l -50 1118 l 125 1332 z "},"i":{"ha":475,"x_min":56,"x_max":418,"o":"m 79 740 l 396 740 l 396 0 l 79 0 l 79 740 m 56 999 q 106 1124 56 1076 q 238 1172 156 1172 q 368 1124 318 1172 q 418 999 418 1076 q 368 872 418 921 q 238 824 318 824 q 106 872 156 824 q 56 999 56 921 z "},"ı":{"ha":475,"x_min":79,"x_max":396,"o":"m 79 740 l 396 740 l 396 0 l 79 0 l 79 740 z "},"í":{"ha":475,"x_min":79,"x_max":433,"o":"m 79 740 l 396 740 l 396 0 l 79 0 l 79 740 m 186 1060 l 433 1060 l 333 829 l 125 829 l 186 1060 z "},"ĭ":{"ha":475,"x_min":21,"x_max":453,"o":"m 79 740 l 396 740 l 396 0 l 79 0 l 79 740 m 21 1060 l 190 1060 l 190 1036 q 236 981 190 981 q 282 1036 282 981 l 282 1060 l 453 1060 l 453 1024 q 397 874 453 925 q 236 822 340 822 q 76 874 132 822 q 21 1024 21 925 l 21 1060 z "},"î":{"ha":475,"x_min":-54,"x_max":531,"o":"m 79 740 l 396 740 l 396 0 l 79 0 l 79 740 m 126 1054 l 350 1054 l 531 831 l 292 831 l 238 908 l 183 831 l -54 831 l 126 1054 z "},"ï":{"ha":475,"x_min":-43,"x_max":521,"o":"m 79 740 l 396 740 l 396 0 l 79 0 l 79 740 m -43 957 q -8 1050 -43 1015 q 83 1085 26 1085 q 174 1050 139 1085 q 208 957 208 1015 q 174 865 208 900 q 83 829 139 829 q -8 865 26 829 q -43 957 -43 900 m 269 957 q 303 1050 269 1015 q 394 1085 338 1085 q 486 1050 451 1085 q 521 957 521 1015 q 486 865 521 900 q 394 829 451 829 q 304 865 339 829 q 269 957 269 900 z "},"ì":{"ha":475,"x_min":40,"x_max":396,"o":"m 79 740 l 396 740 l 396 0 l 79 0 l 79 740 m 289 1060 l 349 829 l 140 829 l 40 1060 l 289 1060 z "},"ĳ":{"ha":954,"x_min":56,"x_max":894,"o":"m 79 740 l 396 740 l 396 0 l 79 0 l 79 740 m 56 999 q 106 1124 56 1076 q 238 1172 156 1172 q 368 1124 318 1172 q 418 999 418 1076 q 368 872 418 921 q 238 824 318 824 q 106 872 156 824 q 56 999 56 921 m 396 -81 l 467 -81 q 558 15 558 -81 l 558 740 l 875 740 l 875 8 q 521 -350 875 -350 l 396 -350 l 396 -81 m 531 999 q 581 1124 531 1076 q 713 1172 632 1172 q 844 1124 793 1172 q 894 999 894 1076 q 844 872 894 921 q 713 824 793 824 q 581 872 632 824 q 531 999 531 921 z "},"ī":{"ha":475,"x_min":17,"x_max":458,"o":"m 79 740 l 396 740 l 396 0 l 79 0 l 79 740 m 17 1015 l 458 1015 l 458 847 l 17 847 l 17 1015 z "},"į":{"ha":475,"x_min":56,"x_max":418,"o":"m 79 740 l 396 740 l 396 0 q 341 -47 361 -21 q 321 -99 321 -74 q 368 -139 321 -139 l 396 -139 l 396 -290 l 285 -290 q 155 -255 201 -290 q 108 -157 108 -219 q 194 0 108 -74 l 79 0 l 79 740 m 56 999 q 106 1124 56 1076 q 238 1172 156 1172 q 368 1124 318 1172 q 418 999 418 1076 q 368 872 418 921 q 238 824 318 824 q 106 872 156 824 q 56 999 56 921 z "},"ĩ":{"ha":475,"x_min":1,"x_max":472,"o":"m 79 740 l 396 740 l 396 0 l 79 0 l 79 740 m 1 879 q 36 996 1 956 q 138 1036 71 1036 q 193 1028 171 1036 q 242 1004 215 1019 q 264 992 253 997 q 285 986 275 986 q 302 993 297 986 q 307 1015 307 1000 l 307 1032 l 472 1032 l 472 992 q 438 875 472 915 q 336 835 403 835 q 279 843 303 835 q 231 867 256 851 q 208 879 219 874 q 188 885 197 885 q 165 856 165 885 l 165 839 l 1 839 l 1 879 z "},"j":{"ha":479,"x_min":-78,"x_max":419,"o":"m -78 -81 l -8 -81 q 85 15 85 -81 l 85 740 l 401 740 l 401 8 q 46 -350 401 -350 l -78 -350 l -78 -81 m 57 999 q 107 1124 57 1076 q 239 1172 157 1172 q 369 1124 319 1172 q 419 999 419 1076 q 369 872 419 921 q 239 824 319 824 q 107 872 157 824 q 57 999 57 921 z "},"ȷ":{"ha":479,"x_min":-78,"x_max":401,"o":"m -78 -81 l -8 -81 q 85 15 85 -81 l 85 740 l 401 740 l 401 8 q 46 -350 401 -350 l -78 -350 l -78 -81 z "},"ĵ":{"ha":479,"x_min":-78,"x_max":536,"o":"m -78 -81 l -8 -81 q 85 15 85 -81 l 85 740 l 401 740 l 401 8 q 46 -350 401 -350 l -78 -350 l -78 -81 m 131 1054 l 356 1054 l 536 831 l 297 831 l 243 908 l 189 831 l -50 831 l 131 1054 z "},"k":{"ha":954,"x_min":79,"x_max":932,"o":"m 79 1028 l 396 1028 l 396 513 l 413 513 q 483 526 461 513 q 517 579 506 540 l 567 740 l 899 740 l 797 456 q 742 351 774 393 l 932 0 l 574 0 l 454 246 l 396 246 l 396 0 l 79 0 l 79 1028 z "},"ķ":{"ha":954,"x_min":79,"x_max":932,"o":"m 79 1028 l 396 1028 l 396 513 l 413 513 q 483 526 461 513 q 517 579 506 540 l 567 740 l 899 740 l 797 456 q 742 351 774 393 l 932 0 l 574 0 l 454 246 l 396 246 l 396 0 l 79 0 l 79 1028 m 371 -192 q 402 -116 371 -146 q 482 -86 433 -86 q 573 -128 540 -86 q 606 -235 606 -171 q 583 -338 606 -289 q 518 -419 561 -387 q 417 -453 475 -450 l 417 -361 q 466 -339 449 -354 q 488 -294 483 -324 l 478 -294 q 401 -266 431 -294 q 371 -192 371 -237 z "},"ĸ":{"ha":954,"x_min":79,"x_max":932,"o":"m 79 740 l 396 740 l 396 513 l 413 513 q 483 526 461 513 q 517 579 506 540 l 567 740 l 899 740 l 797 456 q 742 351 774 393 l 932 0 l 574 0 l 454 246 l 396 246 l 396 0 l 79 0 l 79 740 z "},"l":{"ha":475,"x_min":79,"x_max":396,"o":"m 79 1028 l 396 1028 l 396 0 l 79 0 l 79 1028 z "},"ĺ":{"ha":475,"x_min":79,"x_max":460,"o":"m 79 1028 l 396 1028 l 396 0 l 79 0 l 79 1028 m 213 1332 l 460 1332 l 344 1118 l 136 1118 l 213 1332 z "},"ľ":{"ha":657,"x_min":79,"x_max":743,"o":"m 79 1028 l 396 1028 l 396 0 l 79 0 l 79 1028 m 492 1028 l 743 1028 l 678 729 l 468 729 l 492 1028 z "},"ļ":{"ha":475,"x_min":79,"x_max":396,"o":"m 79 1028 l 396 1028 l 396 0 l 79 0 l 79 1028 m 128 -192 q 158 -116 128 -146 q 239 -86 189 -86 q 330 -128 297 -86 q 363 -235 363 -171 q 340 -338 363 -289 q 275 -419 318 -387 q 174 -453 232 -450 l 174 -361 q 223 -339 206 -354 q 244 -294 240 -324 l 235 -294 q 158 -266 188 -294 q 128 -192 128 -237 z "},"ŀ":{"ha":790,"x_min":79,"x_max":782,"o":"m 79 1028 l 396 1028 l 396 0 l 79 0 l 79 1028 m 443 451 q 491 569 443 524 q 613 614 539 614 q 735 569 688 614 q 782 451 782 524 q 735 334 782 379 q 613 289 688 289 q 491 334 539 289 q 443 451 443 379 z "},"ł":{"ha":576,"x_min":10,"x_max":567,"o":"m 131 314 l 10 271 l 10 535 l 131 578 l 131 1028 l 447 1028 l 447 690 l 567 732 l 567 468 l 447 426 l 447 0 l 131 0 l 131 314 z "},"m":{"ha":1431,"x_min":79,"x_max":1364,"o":"m 79 740 l 304 740 l 333 665 q 435 735 376 711 q 565 760 494 760 q 701 732 640 760 q 801 651 763 704 q 910 732 846 704 q 1057 760 975 760 q 1218 721 1149 760 q 1326 610 1288 682 q 1364 443 1364 539 l 1364 0 l 1047 0 l 1047 404 q 1024 478 1047 451 q 961 506 1001 506 q 898 478 921 506 q 875 403 875 451 l 875 0 l 568 0 l 568 404 q 545 478 568 451 q 482 506 522 506 q 419 478 442 506 q 396 403 396 451 l 396 0 l 79 0 l 79 740 z "},"n":{"ha":956,"x_min":79,"x_max":889,"o":"m 79 740 l 304 740 l 335 663 q 442 735 379 710 q 579 760 504 760 q 806 674 722 760 q 889 440 889 589 l 889 0 l 572 0 l 572 401 q 550 479 572 453 q 486 506 528 506 q 419 478 443 506 q 396 397 396 450 l 396 0 l 79 0 l 79 740 z "},"ń":{"ha":956,"x_min":79,"x_max":889,"o":"m 79 740 l 304 740 l 335 663 q 442 735 379 710 q 579 760 504 760 q 806 674 722 760 q 889 440 889 589 l 889 0 l 572 0 l 572 401 q 550 479 572 453 q 486 506 528 506 q 419 478 443 506 q 396 397 396 450 l 396 0 l 79 0 l 79 740 m 469 1060 l 717 1060 l 601 829 l 393 829 l 469 1060 z "},"ŉ":{"ha":1153,"x_min":0,"x_max":1086,"o":"m 275 740 l 501 740 l 532 663 q 638 735 575 710 q 776 760 700 760 q 1003 674 919 760 q 1086 440 1086 588 l 1086 0 l 769 0 l 769 401 q 747 478 769 451 q 682 506 724 506 q 615 478 639 506 q 592 397 592 450 l 592 0 l 275 0 l 275 740 m 0 922 q 34 1006 0 974 q 122 1039 68 1039 q 222 992 186 1039 q 258 876 258 946 q 234 761 258 815 q 163 672 210 707 q 51 635 115 638 l 51 738 q 105 761 86 744 q 128 810 124 778 l 118 810 q 33 841 65 810 q 0 922 0 872 z "},"ň":{"ha":956,"x_min":79,"x_max":889,"o":"m 79 740 l 304 740 l 335 663 q 442 735 379 710 q 579 760 504 760 q 806 674 722 760 q 889 440 889 589 l 889 0 l 572 0 l 572 401 q 550 479 572 453 q 486 506 528 506 q 419 478 443 506 q 396 397 396 450 l 396 0 l 79 0 l 79 740 m 440 1058 l 506 978 l 569 1058 l 792 1058 l 618 828 l 393 828 l 218 1058 l 440 1058 z "},"ņ":{"ha":956,"x_min":79,"x_max":889,"o":"m 79 740 l 304 740 l 335 663 q 442 735 379 710 q 579 760 504 760 q 806 674 722 760 q 889 440 889 589 l 889 0 l 572 0 l 572 401 q 550 479 572 453 q 486 506 528 506 q 419 478 443 506 q 396 397 396 450 l 396 0 l 79 0 l 79 740 m 375 -192 q 406 -116 375 -146 q 486 -86 436 -86 q 577 -128 544 -86 q 610 -235 610 -171 q 588 -338 610 -289 q 522 -419 565 -387 q 421 -453 479 -450 l 421 -361 q 470 -339 453 -354 q 492 -294 488 -324 l 482 -294 q 405 -266 435 -294 q 375 -192 375 -237 z "},"ñ":{"ha":956,"x_min":79,"x_max":889,"o":"m 79 740 l 304 740 l 335 663 q 442 735 379 710 q 579 760 504 760 q 806 674 722 760 q 889 440 889 589 l 889 0 l 572 0 l 572 401 q 550 479 572 453 q 486 506 528 506 q 419 478 443 506 q 396 397 396 450 l 396 0 l 79 0 l 79 740 m 251 876 q 288 999 251 957 q 397 1040 325 1040 q 458 1031 435 1040 q 508 1007 482 1022 q 557 988 538 988 q 585 1018 585 988 l 585 1036 l 757 1036 l 757 993 q 719 872 757 914 q 611 829 682 829 q 550 838 574 829 q 500 863 526 847 q 450 882 471 882 q 424 851 424 882 l 424 833 l 251 833 l 251 876 z "},"ŋ":{"ha":956,"x_min":79,"x_max":889,"o":"m 453 -69 l 482 -69 q 572 25 572 -69 l 572 401 q 550 479 572 453 q 486 506 528 506 q 419 478 443 506 q 396 397 396 450 l 396 0 l 79 0 l 79 740 l 304 740 l 335 663 q 440 735 378 710 q 579 760 503 760 q 806 674 722 760 q 889 440 889 589 l 889 -7 q 805 -248 889 -169 q 550 -326 721 -326 l 453 -326 l 453 -69 z "},"o":{"ha":950,"x_min":33,"x_max":917,"o":"m 475 -21 q 244 28 344 -21 q 89 165 144 76 q 33 369 33 253 q 89 574 33 486 q 244 711 144 663 q 475 760 344 760 q 707 711 607 760 q 862 574 807 663 q 917 369 917 486 q 862 165 917 253 q 707 28 807 76 q 475 -21 607 -21 m 342 369 q 379 273 342 310 q 475 236 417 236 q 571 273 533 236 q 608 369 608 310 q 571 467 608 429 q 475 504 533 504 q 379 467 417 504 q 342 369 342 429 z "},"ó":{"ha":950,"x_min":33,"x_max":917,"o":"m 475 -21 q 244 28 344 -21 q 89 165 144 76 q 33 369 33 253 q 89 574 33 486 q 244 711 144 663 q 475 760 344 760 q 707 711 607 760 q 862 574 807 663 q 917 369 917 486 q 862 165 917 253 q 707 28 807 76 q 475 -21 607 -21 m 342 369 q 379 273 342 310 q 475 236 417 236 q 571 273 533 236 q 608 369 608 310 q 571 467 608 429 q 475 504 533 504 q 379 467 417 504 q 342 369 342 429 m 440 1060 l 688 1060 l 571 829 l 363 829 l 440 1060 z "},"ŏ":{"ha":950,"x_min":33,"x_max":917,"o":"m 475 -21 q 244 28 344 -21 q 89 165 144 76 q 33 369 33 253 q 89 574 33 486 q 244 711 144 663 q 475 760 344 760 q 707 711 607 760 q 862 574 807 663 q 917 369 917 486 q 862 165 917 253 q 707 28 807 76 q 475 -21 607 -21 m 238 1060 l 413 1060 l 413 1039 q 429 995 413 1010 q 474 981 446 981 q 519 995 503 981 q 536 1039 536 1010 l 536 1060 l 711 1060 l 711 1026 q 649 874 711 926 q 474 822 588 822 q 299 874 360 822 q 238 1026 238 926 l 238 1060 m 342 369 q 379 273 342 310 q 475 236 417 236 q 571 273 533 236 q 608 369 608 310 q 571 467 608 429 q 475 504 533 504 q 379 467 417 504 q 342 369 342 429 z "},"ô":{"ha":950,"x_min":33,"x_max":917,"o":"m 475 -21 q 244 28 344 -21 q 89 165 144 76 q 33 369 33 253 q 89 574 33 486 q 244 711 144 663 q 475 760 344 760 q 707 711 607 760 q 862 574 807 663 q 917 369 917 486 q 862 165 917 253 q 707 28 807 76 q 475 -21 607 -21 m 363 1060 l 588 1060 l 761 829 l 540 829 l 475 910 l 410 829 l 189 829 l 363 1060 m 342 369 q 379 273 342 310 q 475 236 417 236 q 571 273 533 236 q 608 369 608 310 q 571 467 608 429 q 475 504 533 504 q 379 467 417 504 q 342 369 342 429 z "},"ö":{"ha":950,"x_min":33,"x_max":917,"o":"m 475 -21 q 244 28 344 -21 q 89 165 144 76 q 33 369 33 253 q 89 574 33 486 q 244 711 144 663 q 475 760 344 760 q 707 711 607 760 q 862 574 807 663 q 917 369 917 486 q 862 165 917 253 q 707 28 807 76 q 475 -21 607 -21 m 182 957 q 218 1049 182 1014 q 311 1085 254 1085 q 404 1049 368 1085 q 440 957 440 1014 q 404 865 440 900 q 311 829 368 829 q 218 865 254 829 q 182 957 182 900 m 342 369 q 379 273 342 310 q 475 236 417 236 q 571 273 533 236 q 608 369 608 310 q 571 467 608 429 q 475 504 533 504 q 379 467 417 504 q 342 369 342 429 m 511 957 q 547 1049 511 1014 q 639 1085 582 1085 q 732 1049 696 1085 q 768 957 768 1014 q 732 865 768 900 q 639 829 696 829 q 547 865 582 829 q 511 957 511 900 z "},"ò":{"ha":950,"x_min":33,"x_max":917,"o":"m 475 -21 q 244 28 344 -21 q 89 165 144 76 q 33 369 33 253 q 89 574 33 486 q 244 711 144 663 q 475 760 344 760 q 707 711 607 760 q 862 574 807 663 q 917 369 917 486 q 862 165 917 253 q 707 28 807 76 q 475 -21 607 -21 m 510 1060 l 588 829 l 379 829 l 263 1060 l 510 1060 m 342 369 q 379 273 342 310 q 475 236 417 236 q 571 273 533 236 q 608 369 608 310 q 571 467 608 429 q 475 504 533 504 q 379 467 417 504 q 342 369 342 429 z "},"ő":{"ha":950,"x_min":33,"x_max":917,"o":"m 475 -21 q 244 28 344 -21 q 89 165 144 76 q 33 369 33 253 q 89 574 33 486 q 244 711 144 663 q 475 760 344 760 q 707 711 607 760 q 862 574 807 663 q 917 369 917 486 q 862 165 917 253 q 707 28 807 76 q 475 -21 607 -21 m 313 1060 l 526 1060 l 435 829 l 253 829 l 313 1060 m 342 369 q 379 273 342 310 q 475 236 417 236 q 571 273 533 236 q 608 369 608 310 q 571 467 608 429 q 475 504 533 504 q 379 467 417 504 q 342 369 342 429 m 578 1060 l 793 1060 l 672 829 l 486 829 l 578 1060 z "},"ō":{"ha":950,"x_min":33,"x_max":917,"o":"m 475 -21 q 244 28 344 -21 q 89 165 144 76 q 33 369 33 253 q 89 574 33 486 q 244 711 144 663 q 475 760 344 760 q 707 711 607 760 q 862 574 807 663 q 917 369 917 486 q 862 165 917 253 q 707 28 807 76 q 475 -21 607 -21 m 238 1015 l 713 1015 l 713 847 l 238 847 l 238 1015 m 342 369 q 379 273 342 310 q 475 236 417 236 q 571 273 533 236 q 608 369 608 310 q 571 467 608 429 q 475 504 533 504 q 379 467 417 504 q 342 369 342 429 z "},"ø":{"ha":950,"x_min":33,"x_max":917,"o":"m 160 82 q 66 207 99 133 q 33 369 33 281 q 89 574 33 486 q 244 711 144 663 q 475 760 344 760 q 606 746 549 760 l 660 825 l 906 825 l 790 657 q 884 532 851 606 q 917 369 917 458 q 861 165 917 253 q 706 28 806 76 q 475 -21 606 -21 q 344 -7 401 -21 l 292 -86 l 46 -86 l 160 82 m 342 369 q 379 273 342 310 q 475 236 417 236 q 571 273 533 236 q 608 369 608 310 q 571 467 608 429 q 475 504 533 504 q 379 467 417 504 q 342 369 342 429 z "},"ǿ":{"ha":950,"x_min":33,"x_max":917,"o":"m 160 82 q 66 207 99 133 q 33 369 33 281 q 89 574 33 486 q 244 711 144 663 q 475 760 344 760 q 606 746 549 760 l 660 825 l 906 825 l 790 657 q 884 532 851 606 q 917 369 917 458 q 861 165 917 253 q 706 28 806 76 q 475 -21 606 -21 q 344 -7 401 -21 l 292 -86 l 46 -86 l 160 82 m 342 369 q 379 273 342 310 q 475 236 417 236 q 571 273 533 236 q 608 369 608 310 q 571 467 608 429 q 475 504 533 504 q 379 467 417 504 q 342 369 342 429 m 440 1060 l 688 1060 l 571 829 l 363 829 l 440 1060 z "},"õ":{"ha":950,"x_min":33,"x_max":917,"o":"m 475 -21 q 244 28 344 -21 q 89 165 144 76 q 33 369 33 253 q 89 574 33 486 q 244 711 144 663 q 475 760 344 760 q 707 711 607 760 q 862 574 807 663 q 917 369 917 486 q 862 165 917 253 q 707 28 807 76 q 475 -21 607 -21 m 221 876 q 258 999 221 957 q 368 1040 296 1040 q 429 1031 406 1040 q 479 1007 453 1022 q 528 988 508 988 q 554 1018 554 988 l 554 1036 l 728 1036 l 728 993 q 690 872 728 914 q 581 829 653 829 q 521 838 544 829 q 471 863 497 846 q 444 877 454 872 q 421 882 433 882 q 394 851 394 882 l 394 833 l 221 833 l 221 876 m 342 369 q 379 273 342 310 q 475 236 417 236 q 571 273 533 236 q 608 369 608 310 q 571 467 608 429 q 475 504 533 504 q 379 467 417 504 q 342 369 342 429 z "},"œ":{"ha":1467,"x_min":33,"x_max":1442,"o":"m 446 -21 q 231 28 325 -21 q 85 165 138 76 q 33 369 33 254 q 85 574 33 485 q 231 711 138 663 q 446 760 325 760 q 615 731 539 760 q 744 647 690 701 q 874 731 799 701 q 1038 761 949 761 q 1257 704 1164 761 q 1396 543 1350 647 q 1433 301 1442 439 l 885 301 q 932 226 897 251 q 1018 200 967 200 q 1082 212 1053 200 q 1131 246 1111 224 l 1422 246 q 1277 49 1379 118 q 1033 -19 1175 -19 q 872 9 946 -19 q 746 92 799 38 q 614 8 690 38 q 446 -21 538 -21 m 342 369 q 378 273 342 310 q 474 236 415 236 q 567 273 531 236 q 604 369 604 310 q 567 467 604 429 q 474 504 531 504 q 378 467 415 504 q 342 369 342 429 m 1144 446 q 1098 516 1131 492 q 1017 540 1065 540 q 933 516 967 540 q 886 446 900 492 l 1144 446 z "},"p":{"ha":996,"x_min":79,"x_max":961,"o":"m 586 -19 q 396 28 479 -19 l 396 -278 l 79 -278 l 79 740 l 304 740 l 333 667 q 586 760 433 760 q 782 710 697 760 q 914 573 867 661 q 961 369 961 485 q 914 166 961 254 q 782 29 867 78 q 586 -19 697 -19 m 388 369 q 424 273 388 310 q 519 236 460 236 q 616 273 579 236 q 653 369 653 310 q 616 467 653 429 q 519 504 579 504 q 424 467 460 504 q 388 369 388 431 z "},"þ":{"ha":996,"x_min":79,"x_max":961,"o":"m 586 -19 q 396 28 479 -19 l 396 -278 l 79 -278 l 79 1028 l 396 1028 l 396 713 q 586 760 479 760 q 782 710 697 760 q 914 573 867 661 q 961 369 961 485 q 914 166 961 254 q 782 29 867 78 q 586 -19 697 -19 m 388 369 q 424 273 388 310 q 519 236 460 236 q 616 273 579 236 q 653 369 653 310 q 616 467 653 429 q 519 504 579 504 q 424 467 460 504 q 388 369 388 431 z "},"q":{"ha":996,"x_min":33,"x_max":917,"o":"m 408 -19 q 213 29 299 -19 q 81 166 128 78 q 33 369 33 254 q 81 573 33 485 q 213 710 128 661 q 408 760 299 760 q 549 736 485 760 q 663 667 614 713 l 690 740 l 917 740 l 917 -278 l 600 -278 l 600 28 q 408 -19 517 -19 m 342 369 q 378 273 342 310 q 475 236 415 236 q 572 273 535 236 q 608 369 608 310 q 572 467 608 429 q 475 504 535 504 q 378 467 415 504 q 342 369 342 429 z "},"r":{"ha":683,"x_min":79,"x_max":646,"o":"m 79 740 l 304 740 l 339 650 q 427 719 375 697 q 551 740 479 740 l 646 740 l 646 458 l 549 458 q 432 419 468 458 q 396 300 396 381 l 396 0 l 79 0 l 79 740 z "},"ŕ":{"ha":683,"x_min":79,"x_max":646,"o":"m 79 740 l 304 740 l 339 650 q 427 719 375 697 q 551 740 479 740 l 646 740 l 646 458 l 549 458 q 432 419 468 458 q 396 300 396 381 l 396 0 l 79 0 l 79 740 m 353 1060 l 600 1060 l 483 829 l 275 829 l 353 1060 z "},"ř":{"ha":683,"x_min":79,"x_max":674,"o":"m 79 740 l 304 740 l 339 650 q 427 719 375 697 q 551 740 479 740 l 646 740 l 646 458 l 549 458 q 432 419 468 458 q 396 300 396 381 l 396 0 l 79 0 l 79 740 m 322 1058 l 388 978 l 451 1058 l 674 1058 l 500 828 l 275 828 l 100 1058 l 322 1058 z "},"ŗ":{"ha":683,"x_min":79,"x_max":646,"o":"m 79 740 l 304 740 l 339 650 q 427 719 375 697 q 551 740 479 740 l 646 740 l 646 458 l 549 458 q 432 419 468 458 q 396 300 396 381 l 396 0 l 79 0 l 79 740 m 128 -192 q 158 -116 128 -146 q 239 -86 189 -86 q 330 -128 297 -86 q 363 -235 363 -171 q 340 -338 363 -289 q 275 -419 318 -387 q 174 -453 232 -450 l 174 -361 q 223 -339 206 -354 q 244 -294 240 -324 l 235 -294 q 158 -266 188 -294 q 128 -192 128 -237 z "},"s":{"ha":794,"x_min":33,"x_max":758,"o":"m 397 -21 q 131 50 229 -21 q 33 243 33 121 l 339 243 q 356 197 339 215 q 401 179 374 179 q 439 191 425 179 q 453 222 453 203 q 422 263 453 247 q 321 289 392 279 q 108 367 176 310 q 39 522 39 424 q 130 699 39 638 q 393 760 221 760 q 649 694 558 760 q 746 503 739 629 l 451 503 q 433 547 450 532 q 388 563 417 563 q 351 551 364 563 q 338 521 338 540 q 367 482 338 496 q 476 456 396 468 q 688 376 618 435 q 758 221 758 318 q 664 42 758 106 q 397 -21 569 -21 z "},"ś":{"ha":794,"x_min":33,"x_max":758,"o":"m 397 -21 q 131 50 229 -21 q 33 243 33 121 l 339 243 q 356 197 339 215 q 401 179 374 179 q 439 191 425 179 q 453 222 453 203 q 422 263 453 247 q 321 289 392 279 q 108 367 176 310 q 39 522 39 424 q 130 699 39 638 q 393 760 221 760 q 649 694 558 760 q 746 503 739 629 l 451 503 q 433 547 450 532 q 388 563 417 563 q 351 551 364 563 q 338 521 338 540 q 367 482 338 496 q 476 456 396 468 q 688 376 618 435 q 758 221 758 318 q 664 42 758 106 q 397 -21 569 -21 m 358 1060 l 606 1060 l 489 829 l 281 829 l 358 1060 z "},"š":{"ha":794,"x_min":33,"x_max":758,"o":"m 397 -21 q 131 50 229 -21 q 33 243 33 121 l 339 243 q 356 197 339 215 q 401 179 374 179 q 439 191 425 179 q 453 222 453 203 q 422 263 453 247 q 321 289 392 279 q 108 367 176 310 q 39 522 39 424 q 130 699 39 638 q 393 760 221 760 q 649 694 558 760 q 746 503 739 629 l 451 503 q 433 547 450 532 q 388 563 417 563 q 351 551 364 563 q 338 521 338 540 q 367 482 338 496 q 476 456 396 468 q 688 376 618 435 q 758 221 758 318 q 664 42 758 106 q 397 -21 569 -21 m 328 1058 l 393 978 l 457 1058 l 679 1058 l 506 828 l 281 828 l 106 1058 l 328 1058 z "},"ş":{"ha":794,"x_min":33,"x_max":758,"o":"m 258 -224 l 381 -224 q 418 -196 418 -224 q 381 -167 418 -167 l 317 -167 l 281 -118 l 314 -15 q 108 69 182 1 q 33 243 33 138 l 339 243 q 356 197 339 215 q 401 179 374 179 q 439 191 425 179 q 453 222 453 203 q 422 263 453 247 q 321 289 392 279 q 108 367 176 310 q 39 522 39 424 q 130 699 39 638 q 393 760 221 760 q 649 694 558 760 q 746 503 739 629 l 451 503 q 433 547 450 532 q 388 563 417 563 q 351 551 364 563 q 338 521 338 540 q 367 482 338 496 q 476 456 396 468 q 688 376 618 435 q 758 221 758 318 q 682 55 758 117 q 463 -18 606 -7 l 451 -53 q 555 -106 518 -62 q 592 -211 592 -149 q 544 -328 592 -283 q 413 -372 497 -372 l 258 -372 l 258 -224 z "},"ŝ":{"ha":794,"x_min":33,"x_max":758,"o":"m 397 -21 q 131 50 229 -21 q 33 243 33 121 l 339 243 q 356 197 339 215 q 401 179 374 179 q 439 191 425 179 q 453 222 453 203 q 422 263 453 247 q 321 289 392 279 q 108 367 176 310 q 39 522 39 424 q 130 699 39 638 q 393 760 221 760 q 649 694 558 760 q 746 503 739 629 l 451 503 q 433 547 450 532 q 388 563 417 563 q 351 551 364 563 q 338 521 338 540 q 367 482 338 496 q 476 456 396 468 q 688 376 618 435 q 758 221 758 318 q 664 42 758 106 q 397 -21 569 -21 m 281 1060 l 506 1060 l 679 829 l 457 829 l 393 910 l 328 829 l 106 829 l 281 1060 z "},"ș":{"ha":794,"x_min":33,"x_max":758,"o":"m 397 -21 q 131 50 229 -21 q 33 243 33 121 l 339 243 q 356 197 339 215 q 401 179 374 179 q 439 191 425 179 q 453 222 453 203 q 422 263 453 247 q 321 289 392 279 q 108 367 176 310 q 39 522 39 424 q 130 699 39 638 q 393 760 221 760 q 649 694 558 760 q 746 503 739 629 l 451 503 q 433 547 450 532 q 388 563 417 563 q 351 551 364 563 q 338 521 338 540 q 367 482 338 496 q 476 456 396 468 q 688 376 618 435 q 758 221 758 318 q 664 42 758 106 q 397 -21 569 -21 m 288 -192 q 319 -116 288 -146 q 400 -86 350 -86 q 490 -128 457 -86 q 522 -235 522 -171 q 500 -338 522 -289 q 435 -419 478 -387 q 333 -453 392 -450 l 333 -361 q 383 -339 365 -354 q 404 -294 400 -324 l 396 -294 q 317 -266 347 -294 q 288 -192 288 -237 z "},"ß":{"ha":1006,"x_min":79,"x_max":972,"o":"m 79 675 q 191 952 79 856 q 511 1049 303 1049 q 722 1013 632 1049 q 859 913 811 978 q 907 758 907 847 q 882 644 907 696 q 811 557 857 592 q 929 453 886 522 q 972 296 972 385 q 931 141 972 208 q 813 37 889 74 q 639 0 738 0 l 469 0 l 469 242 l 557 242 q 630 263 604 242 q 656 325 656 285 q 630 385 656 364 q 557 407 604 407 l 472 407 l 472 636 l 504 636 q 576 658 550 636 q 603 718 603 681 q 576 779 603 757 q 503 801 550 801 q 396 682 396 801 l 396 0 l 79 0 l 79 675 z "},"ſ":{"ha":607,"x_min":22,"x_max":654,"o":"m 160 769 q 233 994 160 917 q 444 1072 306 1072 l 654 1072 l 654 831 l 553 831 q 496 810 515 831 q 476 751 476 790 l 476 0 l 160 0 l 160 496 l 22 496 l 22 740 l 160 740 l 160 769 z "},"t":{"ha":693,"x_min":19,"x_max":646,"o":"m 481 0 q 234 74 317 0 q 151 296 151 149 l 151 496 l 19 496 l 19 740 l 85 740 q 153 749 129 740 q 188 778 176 757 q 207 842 200 800 l 222 935 l 468 935 l 468 740 l 638 740 l 638 497 l 468 497 l 468 360 q 494 283 468 307 q 575 258 519 258 l 646 258 l 646 0 l 481 0 z "},"ŧ":{"ha":697,"x_min":21,"x_max":644,"o":"m 472 0 q 238 72 319 0 q 153 282 157 143 l 31 281 l 31 461 l 153 461 l 153 532 l 21 532 l 21 740 l 86 740 q 154 749 131 740 q 190 778 178 757 q 208 842 201 800 l 224 935 l 469 935 l 469 740 l 639 740 l 639 532 l 469 532 l 469 461 l 622 461 l 622 306 l 472 306 q 502 252 478 269 q 576 235 526 235 l 644 235 l 644 0 l 472 0 z "},"ť":{"ha":706,"x_min":19,"x_max":790,"o":"m 481 0 q 234 74 317 0 q 151 296 151 149 l 151 496 l 19 496 l 19 740 l 85 740 q 153 749 129 740 q 188 778 176 757 q 207 842 200 800 l 222 935 l 468 935 l 468 740 l 638 740 l 638 497 l 468 497 l 468 360 q 494 283 468 307 q 575 258 519 258 l 646 258 l 646 0 l 481 0 m 542 1060 l 790 1060 l 739 786 l 532 786 l 542 1060 z "},"ţ":{"ha":693,"x_min":19,"x_max":646,"o":"m 281 -224 l 403 -224 q 440 -196 440 -224 q 403 -167 440 -167 l 339 -167 l 303 -118 l 344 17 q 151 296 151 71 l 151 496 l 19 496 l 19 740 l 85 740 q 153 749 129 740 q 188 778 176 757 q 207 842 200 800 l 222 935 l 468 935 l 468 740 l 638 740 l 638 497 l 468 497 l 468 360 q 494 283 468 307 q 575 258 519 258 l 646 258 l 646 0 l 490 0 l 474 -53 q 577 -106 540 -62 q 614 -211 614 -149 q 567 -328 614 -283 q 435 -372 519 -372 l 281 -372 l 281 -224 z "},"ț":{"ha":693,"x_min":19,"x_max":646,"o":"m 481 0 q 234 74 317 0 q 151 296 151 149 l 151 496 l 19 496 l 19 740 l 85 740 q 153 749 129 740 q 188 778 176 757 q 207 842 200 800 l 222 935 l 468 935 l 468 740 l 638 740 l 638 497 l 468 497 l 468 360 q 494 283 468 307 q 575 258 519 258 l 646 258 l 646 0 l 481 0 m 310 -192 q 341 -116 310 -146 q 421 -86 372 -86 q 512 -128 479 -86 q 544 -235 544 -171 q 522 -338 544 -289 q 457 -419 500 -387 q 356 -453 414 -450 l 356 -361 q 405 -339 388 -354 q 426 -294 422 -324 l 417 -294 q 340 -266 369 -294 q 310 -192 310 -237 z "},"u":{"ha":953,"x_min":67,"x_max":875,"o":"m 375 -21 q 149 65 232 -21 q 67 300 67 151 l 67 740 l 383 740 l 383 339 q 406 261 383 288 q 469 235 428 235 q 535 263 511 235 q 558 343 558 290 l 558 740 l 875 740 l 875 0 l 649 0 l 618 78 q 513 5 575 31 q 375 -21 450 -21 z "},"ú":{"ha":953,"x_min":67,"x_max":875,"o":"m 375 -21 q 149 65 232 -21 q 67 300 67 151 l 67 740 l 383 740 l 383 339 q 406 261 383 288 q 469 235 428 235 q 535 263 511 235 q 558 343 558 290 l 558 740 l 875 740 l 875 0 l 649 0 l 618 78 q 513 5 575 31 q 375 -21 450 -21 m 436 1060 l 683 1060 l 567 829 l 358 829 l 436 1060 z "},"ŭ":{"ha":953,"x_min":67,"x_max":875,"o":"m 375 -21 q 149 65 232 -21 q 67 300 67 151 l 67 740 l 383 740 l 383 339 q 406 261 383 288 q 469 235 428 235 q 535 263 511 235 q 558 343 558 290 l 558 740 l 875 740 l 875 0 l 649 0 l 618 78 q 513 5 575 31 q 375 -21 450 -21 m 233 1060 l 408 1060 l 408 1039 q 425 995 408 1010 q 469 981 442 981 q 515 995 499 981 q 532 1039 532 1010 l 532 1060 l 707 1060 l 707 1026 q 645 874 707 926 q 469 822 583 822 q 294 874 356 822 q 233 1026 233 926 l 233 1060 z "},"û":{"ha":953,"x_min":67,"x_max":875,"o":"m 375 -21 q 149 65 232 -21 q 67 300 67 151 l 67 740 l 383 740 l 383 339 q 406 261 383 288 q 469 235 428 235 q 535 263 511 235 q 558 343 558 290 l 558 740 l 875 740 l 875 0 l 649 0 l 618 78 q 513 5 575 31 q 375 -21 450 -21 m 358 1060 l 583 1060 l 757 829 l 536 829 l 471 910 l 406 829 l 185 829 l 358 1060 z "},"ü":{"ha":953,"x_min":67,"x_max":875,"o":"m 375 -21 q 149 65 232 -21 q 67 300 67 151 l 67 740 l 383 740 l 383 339 q 406 261 383 288 q 469 235 428 235 q 535 263 511 235 q 558 343 558 290 l 558 740 l 875 740 l 875 0 l 649 0 l 618 78 q 513 5 575 31 q 375 -21 450 -21 m 178 957 q 214 1049 178 1014 q 307 1085 250 1085 q 400 1049 364 1085 q 436 957 436 1014 q 400 865 436 900 q 307 829 364 829 q 214 865 250 829 q 178 957 178 900 m 507 957 q 542 1049 507 1014 q 635 1085 578 1085 q 728 1049 692 1085 q 764 957 764 1014 q 728 865 764 900 q 635 829 692 829 q 542 865 578 829 q 507 957 507 900 z "},"ù":{"ha":953,"x_min":67,"x_max":875,"o":"m 375 -21 q 149 65 232 -21 q 67 300 67 151 l 67 740 l 383 740 l 383 339 q 406 261 383 288 q 469 235 428 235 q 535 263 511 235 q 558 343 558 290 l 558 740 l 875 740 l 875 0 l 649 0 l 618 78 q 513 5 575 31 q 375 -21 450 -21 m 506 1060 l 583 829 l 375 829 l 258 1060 l 506 1060 z "},"ű":{"ha":953,"x_min":67,"x_max":875,"o":"m 375 -21 q 149 65 232 -21 q 67 300 67 151 l 67 740 l 383 740 l 383 339 q 406 261 383 288 q 469 235 428 235 q 535 263 511 235 q 558 343 558 290 l 558 740 l 875 740 l 875 0 l 649 0 l 618 78 q 513 5 575 31 q 375 -21 450 -21 m 308 1060 l 522 1060 l 431 829 l 249 829 l 308 1060 m 574 1060 l 789 1060 l 668 829 l 482 829 l 574 1060 z "},"ū":{"ha":953,"x_min":67,"x_max":875,"o":"m 375 -21 q 149 65 232 -21 q 67 300 67 151 l 67 740 l 383 740 l 383 339 q 406 261 383 288 q 469 235 428 235 q 535 263 511 235 q 558 343 558 290 l 558 740 l 875 740 l 875 0 l 649 0 l 618 78 q 513 5 575 31 q 375 -21 450 -21 m 233 1015 l 708 1015 l 708 847 l 233 847 l 233 1015 z "},"ų":{"ha":953,"x_min":67,"x_max":875,"o":"m 375 -21 q 149 65 232 -21 q 67 300 67 151 l 67 740 l 383 740 l 383 339 q 406 261 383 288 q 469 235 428 235 q 535 263 511 235 q 558 343 558 290 l 558 740 l 875 740 l 875 0 q 820 -47 840 -21 q 800 -99 800 -74 q 847 -139 800 -139 l 875 -139 l 875 -290 l 764 -290 q 634 -255 681 -290 q 588 -157 588 -219 q 674 0 588 -74 l 649 0 l 618 78 q 513 5 575 31 q 375 -21 450 -21 z "},"ů":{"ha":953,"x_min":67,"x_max":875,"o":"m 375 -21 q 149 65 232 -21 q 67 300 67 151 l 67 740 l 383 740 l 383 339 q 406 261 383 288 q 469 235 428 235 q 535 263 511 235 q 558 343 558 290 l 558 740 l 875 740 l 875 0 l 649 0 l 618 78 q 513 5 575 31 q 375 -21 450 -21 m 283 972 q 335 1094 283 1049 q 471 1140 386 1140 q 607 1094 556 1140 q 658 972 658 1049 q 607 850 658 896 q 471 804 556 804 q 335 850 386 804 q 283 972 283 896 m 421 972 q 435 936 421 950 q 471 922 449 922 q 507 936 493 922 q 521 972 521 950 q 507 1008 521 994 q 471 1022 493 1022 q 435 1008 449 1022 q 421 972 421 994 z "},"ũ":{"ha":953,"x_min":67,"x_max":875,"o":"m 375 -21 q 149 65 232 -21 q 67 300 67 151 l 67 740 l 383 740 l 383 339 q 406 261 383 288 q 469 235 428 235 q 535 263 511 235 q 558 343 558 290 l 558 740 l 875 740 l 875 0 l 649 0 l 618 78 q 513 5 575 31 q 375 -21 450 -21 m 217 876 q 254 999 217 957 q 364 1040 292 1040 q 425 1031 401 1040 q 475 1007 449 1022 q 524 988 504 988 q 550 1018 550 988 l 550 1036 l 724 1036 l 724 993 q 686 872 724 914 q 576 829 649 829 q 517 838 540 829 q 467 863 493 846 q 440 877 450 872 q 417 882 429 882 q 390 851 390 882 l 390 833 l 217 833 l 217 876 z "},"v":{"ha":917,"x_min":4,"x_max":913,"o":"m 4 740 l 346 740 l 413 503 l 457 336 l 461 336 l 506 503 l 572 740 l 913 740 l 625 0 l 292 0 l 4 740 z "},"w":{"ha":1372,"x_min":4,"x_max":1368,"o":"m 4 740 l 331 740 l 383 556 l 442 371 l 446 371 l 504 556 l 557 740 l 815 740 l 868 556 l 925 371 l 931 371 l 989 556 l 1043 740 l 1368 740 l 1107 0 l 800 0 l 689 354 l 683 354 l 572 0 l 267 0 l 4 740 z "},"ẃ":{"ha":1372,"x_min":4,"x_max":1368,"o":"m 4 740 l 331 740 l 383 556 l 442 371 l 446 371 l 504 556 l 557 740 l 815 740 l 868 556 l 925 371 l 931 371 l 989 556 l 1043 740 l 1368 740 l 1107 0 l 800 0 l 689 354 l 683 354 l 572 0 l 267 0 l 4 740 m 651 1060 l 899 1060 l 783 829 l 575 829 l 651 1060 z "},"ŵ":{"ha":1372,"x_min":4,"x_max":1368,"o":"m 4 740 l 331 740 l 383 556 l 442 371 l 446 371 l 504 556 l 557 740 l 815 740 l 868 556 l 925 371 l 931 371 l 989 556 l 1043 740 l 1368 740 l 1107 0 l 800 0 l 689 354 l 683 354 l 572 0 l 267 0 l 4 740 m 574 1060 l 799 1060 l 974 829 l 751 829 l 686 910 l 622 829 l 400 829 l 574 1060 z "},"ẅ":{"ha":1372,"x_min":4,"x_max":1368,"o":"m 4 740 l 331 740 l 383 556 l 442 371 l 446 371 l 504 556 l 557 740 l 815 740 l 868 556 l 925 371 l 931 371 l 989 556 l 1043 740 l 1368 740 l 1107 0 l 800 0 l 689 354 l 683 354 l 572 0 l 267 0 l 4 740 m 394 957 q 430 1049 394 1014 q 522 1085 465 1085 q 615 1049 579 1085 q 651 957 651 1014 q 615 865 651 900 q 522 829 579 829 q 430 865 465 829 q 394 957 394 900 m 722 957 q 758 1049 722 1014 q 850 1085 794 1085 q 943 1049 907 1085 q 979 957 979 1014 q 943 865 979 900 q 850 829 907 829 q 758 865 794 829 q 722 957 722 900 z "},"ẁ":{"ha":1372,"x_min":4,"x_max":1368,"o":"m 4 740 l 331 740 l 383 556 l 442 371 l 446 371 l 504 556 l 557 740 l 815 740 l 868 556 l 925 371 l 931 371 l 989 556 l 1043 740 l 1368 740 l 1107 0 l 800 0 l 689 354 l 683 354 l 572 0 l 267 0 l 4 740 m 721 1060 l 799 829 l 590 829 l 474 1060 l 721 1060 z "},"x":{"ha":933,"x_min":22,"x_max":911,"o":"m 260 376 l 32 740 l 376 740 l 422 651 l 464 567 l 469 567 l 511 651 l 557 740 l 899 740 l 674 376 l 911 0 l 560 0 l 514 89 l 469 179 l 464 179 l 419 89 l 374 0 l 22 0 l 260 376 z "},"y":{"ha":917,"x_min":4,"x_max":913,"o":"m 107 -33 l 211 -33 q 276 -20 254 -33 q 311 24 299 -7 l 4 740 l 349 740 l 415 536 l 467 375 l 471 375 l 515 536 l 575 740 l 913 740 l 596 -62 q 519 -200 563 -151 q 411 -269 476 -249 q 240 -289 346 -289 l 107 -289 l 107 -33 z "},"ý":{"ha":917,"x_min":4,"x_max":913,"o":"m 107 -33 l 211 -33 q 276 -20 254 -33 q 311 24 299 -7 l 4 740 l 349 740 l 415 536 l 467 375 l 471 375 l 515 536 l 575 740 l 913 740 l 596 -62 q 519 -200 563 -151 q 411 -269 476 -249 q 240 -289 346 -289 l 107 -289 l 107 -33 m 426 1060 l 674 1060 l 558 829 l 350 829 l 426 1060 z "},"ŷ":{"ha":917,"x_min":4,"x_max":913,"o":"m 107 -33 l 211 -33 q 276 -20 254 -33 q 311 24 299 -7 l 4 740 l 349 740 l 415 536 l 467 375 l 471 375 l 515 536 l 575 740 l 913 740 l 596 -62 q 519 -200 563 -151 q 411 -269 476 -249 q 240 -289 346 -289 l 107 -289 l 107 -33 m 349 1060 l 574 1060 l 749 829 l 526 829 l 461 910 l 397 829 l 175 829 l 349 1060 z "},"ÿ":{"ha":917,"x_min":4,"x_max":913,"o":"m 107 -33 l 211 -33 q 276 -20 254 -33 q 311 24 299 -7 l 4 740 l 349 740 l 415 536 l 467 375 l 471 375 l 515 536 l 575 740 l 913 740 l 596 -62 q 519 -200 563 -151 q 411 -269 476 -249 q 240 -289 346 -289 l 107 -289 l 107 -33 m 169 957 q 205 1049 169 1014 q 297 1085 240 1085 q 390 1049 354 1085 q 426 957 426 1014 q 390 865 426 900 q 297 829 354 829 q 205 865 240 829 q 169 957 169 900 m 497 957 q 533 1049 497 1014 q 625 1085 569 1085 q 718 1049 682 1085 q 754 957 754 1014 q 718 865 754 900 q 625 829 682 829 q 533 865 569 829 q 497 957 497 900 z "},"ỳ":{"ha":917,"x_min":4,"x_max":913,"o":"m 107 -33 l 211 -33 q 276 -20 254 -33 q 311 24 299 -7 l 4 740 l 349 740 l 415 536 l 467 375 l 471 375 l 515 536 l 575 740 l 913 740 l 596 -62 q 519 -200 563 -151 q 411 -269 476 -249 q 240 -289 346 -289 l 107 -289 l 107 -33 m 496 1060 l 574 829 l 365 829 l 249 1060 l 496 1060 z "},"z":{"ha":763,"x_min":40,"x_max":722,"o":"m 40 201 l 324 500 l 322 504 l 244 501 l 50 501 l 50 740 l 715 740 l 715 542 l 432 240 l 433 236 l 522 239 l 722 239 l 722 0 l 40 0 l 40 201 z "},"ź":{"ha":763,"x_min":40,"x_max":722,"o":"m 40 201 l 324 500 l 322 504 l 244 501 l 50 501 l 50 740 l 715 740 l 715 542 l 432 240 l 433 236 l 522 239 l 722 239 l 722 0 l 40 0 l 40 201 m 349 1060 l 596 1060 l 479 829 l 271 829 l 349 1060 z "},"ž":{"ha":763,"x_min":40,"x_max":722,"o":"m 40 201 l 324 500 l 322 504 l 244 501 l 50 501 l 50 740 l 715 740 l 715 542 l 432 240 l 433 236 l 522 239 l 722 239 l 722 0 l 40 0 l 40 201 m 318 1058 l 383 978 l 447 1058 l 669 1058 l 496 828 l 271 828 l 96 1058 l 318 1058 z "},"ż":{"ha":763,"x_min":40,"x_max":722,"o":"m 40 201 l 324 500 l 322 504 l 244 501 l 50 501 l 50 740 l 715 740 l 715 542 l 432 240 l 433 236 l 522 239 l 722 239 l 722 0 l 40 0 l 40 201 m 232 972 q 274 1077 232 1038 q 383 1117 315 1117 q 493 1077 451 1117 q 535 972 535 1038 q 493 867 535 907 q 383 828 451 828 q 274 867 315 828 q 232 972 232 907 z "},"ﬁ":{"ha":1100,"x_min":22,"x_max":1044,"o":"m 704 496 l 476 496 l 476 0 l 160 0 l 160 496 l 22 496 l 22 740 l 160 740 l 160 788 q 233 1000 160 928 q 450 1072 307 1072 l 613 1072 l 613 849 l 542 849 q 463 769 463 849 l 463 740 l 1021 740 l 1021 0 l 704 0 l 704 496 m 682 999 q 732 1124 682 1076 q 863 1172 782 1172 q 994 1124 943 1172 q 1044 999 1044 1076 q 994 872 1044 921 q 863 824 943 824 q 732 872 782 824 q 682 999 682 921 z "},"ﬂ":{"ha":1135,"x_min":22,"x_max":1056,"o":"m 160 788 q 233 1000 160 928 q 450 1072 307 1072 l 1056 1072 l 1056 0 l 739 0 l 739 849 l 542 849 q 463 769 463 849 l 463 731 l 646 731 l 646 496 l 476 496 l 476 0 l 160 0 l 160 496 l 22 496 l 22 740 l 160 740 l 160 788 z "},"ª":{"ha":611,"x_min":42,"x_max":551,"o":"m 222 478 q 91 518 140 478 q 42 626 42 558 q 88 731 42 690 q 211 772 133 772 l 346 772 l 346 793 q 334 831 346 817 q 301 846 322 846 q 269 835 282 846 q 256 806 257 824 l 63 806 q 137 934 74 888 q 304 981 200 981 q 488 923 424 981 q 551 760 551 865 l 551 486 l 399 486 l 381 535 q 222 478 321 478 m 243 642 q 256 619 243 626 q 285 611 268 611 q 331 627 314 611 q 349 674 349 643 l 285 674 q 255 665 267 674 q 243 642 243 657 z "},"º":{"ha":631,"x_min":31,"x_max":601,"o":"m 315 478 q 109 545 188 478 q 31 729 31 613 q 109 913 31 844 q 315 981 188 981 q 522 913 443 981 q 601 729 601 844 q 523 545 601 613 q 315 478 444 478 m 233 729 q 256 669 233 692 q 315 647 279 647 q 375 669 353 647 q 397 729 397 692 q 374 789 397 767 q 315 811 351 811 q 256 789 279 811 q 233 729 233 767 z "},"А":{"ha":1082,"x_min":4,"x_max":1078,"o":"m 365 972 l 715 972 l 1078 0 l 725 0 l 682 121 l 397 121 l 354 0 l 4 0 l 365 972 m 629 343 l 543 610 l 538 610 l 453 343 l 629 343 z "},"Б":{"ha":996,"x_min":88,"x_max":960,"o":"m 88 972 l 885 972 l 885 719 l 419 719 l 419 618 l 629 618 q 872 534 785 618 q 960 310 960 450 q 921 148 960 218 q 807 39 882 78 q 629 0 732 0 l 88 0 l 88 972 m 532 236 q 601 256 578 236 q 625 311 625 275 q 601 367 625 347 q 532 386 578 386 l 417 386 l 417 236 l 532 236 z "},"В":{"ha":1004,"x_min":88,"x_max":971,"o":"m 88 972 l 619 972 q 856 903 769 972 q 943 713 943 833 q 912 583 943 640 q 822 493 881 526 q 931 403 890 464 q 971 265 971 343 q 930 127 971 188 q 814 33 889 67 q 643 0 739 0 l 88 0 l 88 972 m 547 229 q 612 249 589 229 q 635 306 635 269 q 612 363 635 343 q 547 383 589 383 l 411 383 l 411 229 l 547 229 m 529 596 q 592 615 569 596 q 614 671 614 635 q 592 726 614 707 q 529 746 569 746 l 411 746 l 411 596 l 529 596 z "},"Г":{"ha":835,"x_min":88,"x_max":800,"o":"m 88 972 l 800 972 l 800 668 l 424 668 l 424 0 l 88 0 l 88 972 z "},"Ѓ":{"ha":835,"x_min":88,"x_max":800,"o":"m 88 972 l 800 972 l 800 668 l 424 668 l 424 0 l 88 0 l 88 972 m 410 1276 l 657 1276 l 540 1063 l 332 1063 l 410 1276 z "},"Ґ":{"ha":835,"x_min":88,"x_max":800,"o":"m 88 972 l 517 972 l 517 1161 l 800 1161 l 800 668 l 424 668 l 424 0 l 88 0 l 88 972 z "},"Д":{"ha":1200,"x_min":31,"x_max":1167,"o":"m 31 310 l 140 310 q 179 371 165 335 q 197 460 193 407 l 238 972 l 1028 972 l 1028 310 l 1167 310 l 1167 -192 l 843 -192 l 843 0 l 354 0 l 354 -192 l 31 -192 l 31 310 m 696 293 l 696 672 l 544 672 l 525 431 q 489 293 518 346 l 696 293 z "},"Е":{"ha":856,"x_min":88,"x_max":801,"o":"m 88 972 l 788 972 l 788 724 l 414 724 l 414 611 l 751 611 l 751 369 l 414 369 l 414 253 l 801 253 l 801 0 l 88 0 l 88 972 z "},"Ѐ":{"ha":856,"x_min":88,"x_max":801,"o":"m 88 972 l 788 972 l 788 724 l 414 724 l 414 611 l 751 611 l 751 369 l 414 369 l 414 253 l 801 253 l 801 0 l 88 0 l 88 972 m 458 1276 l 536 1063 l 328 1063 l 211 1276 l 458 1276 z "},"Ё":{"ha":856,"x_min":88,"x_max":801,"o":"m 88 972 l 788 972 l 788 724 l 414 724 l 414 611 l 751 611 l 751 369 l 414 369 l 414 253 l 801 253 l 801 0 l 88 0 l 88 972 m 135 1183 q 172 1278 135 1242 q 267 1315 208 1315 q 362 1278 325 1315 q 399 1183 399 1242 q 362 1089 399 1125 q 267 1053 325 1053 q 172 1089 208 1053 q 135 1183 135 1125 m 471 1183 q 508 1279 471 1243 q 601 1315 544 1315 q 697 1279 660 1315 q 733 1183 733 1243 q 697 1089 733 1125 q 601 1053 660 1053 q 507 1089 543 1053 q 471 1183 471 1125 z "},"Ж":{"ha":1636,"x_min":25,"x_max":1610,"o":"m 265 471 q 200 597 231 519 l 60 972 l 421 972 l 499 736 q 543 664 517 682 q 631 646 569 646 l 651 646 l 651 972 l 985 972 l 985 646 l 1004 646 q 1092 664 1065 646 q 1136 736 1118 682 l 1215 972 l 1576 972 l 1436 597 q 1371 471 1406 519 l 1610 0 l 1225 0 l 1065 346 l 985 346 l 985 0 l 651 0 l 651 346 l 571 346 l 410 0 l 25 0 l 265 471 z "},"З":{"ha":907,"x_min":29,"x_max":872,"o":"m 456 -21 q 147 63 254 -21 q 29 310 40 147 l 343 310 q 371 242 344 267 q 446 218 397 218 q 519 238 490 218 q 547 296 547 258 q 522 353 547 332 q 451 374 496 374 l 304 374 l 304 606 l 438 606 q 506 626 481 606 q 531 681 531 646 q 506 735 531 715 q 442 756 481 756 q 374 732 399 756 q 349 668 350 708 l 39 668 q 158 906 49 819 q 453 993 267 993 q 663 958 574 993 q 799 858 751 924 q 847 706 847 793 q 817 584 847 639 q 729 494 786 529 q 834 406 796 465 q 872 267 872 346 q 763 55 872 131 q 456 -21 653 -21 z "},"И":{"ha":1089,"x_min":88,"x_max":1003,"o":"m 88 972 l 418 972 l 418 681 l 415 549 l 419 549 l 728 972 l 1003 972 l 1003 0 l 672 0 l 672 296 l 675 426 l 669 428 l 360 0 l 88 0 l 88 972 z "},"Й":{"ha":1089,"x_min":88,"x_max":1003,"o":"m 88 972 l 418 972 l 418 681 l 415 549 l 419 549 l 728 972 l 1003 972 l 1003 0 l 672 0 l 672 296 l 675 426 l 669 428 l 360 0 l 88 0 l 88 972 m 324 1276 l 497 1276 l 497 1264 q 511 1227 497 1240 q 549 1214 525 1214 q 587 1227 574 1214 q 600 1264 600 1240 l 600 1276 l 775 1276 l 775 1254 q 719 1107 775 1158 q 549 1056 663 1056 q 382 1108 440 1056 q 324 1254 324 1160 l 324 1276 z "},"Ѝ":{"ha":1089,"x_min":88,"x_max":1003,"o":"m 88 972 l 418 972 l 418 681 l 415 549 l 419 549 l 728 972 l 1003 972 l 1003 0 l 672 0 l 672 296 l 675 426 l 669 428 l 360 0 l 88 0 l 88 972 m 574 1276 l 650 1063 l 442 1063 l 326 1276 l 574 1276 z "},"К":{"ha":1085,"x_min":88,"x_max":1058,"o":"m 88 972 l 424 972 l 424 646 l 453 646 q 541 664 515 646 q 585 736 567 682 l 664 972 l 1025 972 l 885 597 q 819 471 854 519 l 1058 0 l 675 0 l 514 346 l 424 346 l 424 0 l 88 0 l 88 972 z "},"Ќ":{"ha":1085,"x_min":88,"x_max":1058,"o":"m 88 972 l 424 972 l 424 646 l 453 646 q 541 664 515 646 q 585 736 567 682 l 664 972 l 1025 972 l 885 597 q 819 471 854 519 l 1058 0 l 675 0 l 514 346 l 424 346 l 424 0 l 88 0 l 88 972 m 508 1276 l 756 1276 l 639 1063 l 431 1063 l 508 1276 z "},"Л":{"ha":1113,"x_min":25,"x_max":1025,"o":"m 25 299 l 89 299 q 150 319 131 299 q 172 386 169 339 l 219 972 l 1025 972 l 1025 0 l 690 0 l 690 667 l 525 667 l 500 306 q 409 74 489 147 q 168 0 329 0 l 25 0 l 25 299 z "},"М":{"ha":1325,"x_min":88,"x_max":1238,"o":"m 88 972 l 360 972 l 663 564 l 967 972 l 1238 972 l 1238 0 l 910 0 l 910 224 l 913 424 l 908 424 l 756 214 l 569 214 l 417 425 l 413 424 l 415 224 l 415 0 l 88 0 l 88 972 z "},"Н":{"ha":1075,"x_min":88,"x_max":988,"o":"m 651 342 l 424 342 l 424 0 l 88 0 l 88 972 l 424 972 l 424 647 l 651 647 l 651 972 l 988 972 l 988 0 l 651 0 l 651 342 z "},"О":{"ha":1150,"x_min":38,"x_max":1114,"o":"m 575 -21 q 296 44 418 -21 q 106 224 174 108 q 38 486 38 339 q 106 749 38 633 q 296 928 174 864 q 575 993 418 993 q 856 928 733 993 q 1046 749 978 864 q 1114 486 1114 633 q 1046 224 1114 339 q 856 44 978 108 q 575 -21 733 -21 m 376 486 q 432 341 376 397 q 575 285 488 285 q 719 341 663 285 q 775 486 775 397 q 719 631 775 575 q 575 688 663 688 q 432 631 488 688 q 376 486 376 575 z "},"П":{"ha":1075,"x_min":88,"x_max":988,"o":"m 88 972 l 988 972 l 988 0 l 651 0 l 651 667 l 424 667 l 424 0 l 88 0 l 88 972 z "},"Р":{"ha":982,"x_min":88,"x_max":954,"o":"m 88 972 l 539 972 q 759 926 665 972 q 903 796 853 881 q 954 597 954 711 q 903 399 954 483 q 760 269 853 315 q 542 224 667 224 l 424 224 l 424 0 l 88 0 l 88 972 m 494 486 q 586 515 554 486 q 618 594 618 543 q 586 674 618 646 q 494 703 554 703 l 417 703 l 417 486 l 494 486 z "},"С":{"ha":1111,"x_min":38,"x_max":1076,"o":"m 553 -21 q 283 43 400 -21 q 102 222 167 107 q 38 486 38 338 q 102 750 38 635 q 283 929 167 865 q 550 993 400 993 q 799 942 689 993 q 980 794 910 890 q 1072 567 1050 697 l 743 567 q 676 655 724 622 q 565 688 628 688 q 428 632 481 688 q 376 486 376 576 q 428 341 376 397 q 563 285 481 285 q 676 318 628 285 q 746 410 725 351 l 1076 410 q 988 183 1060 281 q 804 33 917 86 q 553 -21 692 -21 z "},"Т":{"ha":976,"x_min":38,"x_max":938,"o":"m 319 668 l 38 668 l 38 972 l 938 972 l 938 668 l 656 668 l 656 0 l 319 0 l 319 668 z "},"У":{"ha":1040,"x_min":13,"x_max":1036,"o":"m 163 286 l 265 286 q 351 306 322 286 l 13 972 l 388 972 l 482 746 l 535 607 l 539 607 l 588 746 l 675 972 l 1036 972 l 696 229 q 611 92 656 140 q 506 22 567 43 q 354 0 446 0 l 163 0 l 163 286 z "},"Ў":{"ha":1040,"x_min":13,"x_max":1036,"o":"m 163 286 l 265 286 q 351 306 322 286 l 13 972 l 388 972 l 482 746 l 535 607 l 539 607 l 588 746 l 675 972 l 1036 972 l 696 229 q 611 92 656 140 q 506 22 567 43 q 354 0 446 0 l 163 0 l 163 286 m 306 1276 l 479 1276 l 479 1264 q 493 1227 479 1240 q 531 1214 507 1214 q 569 1227 556 1214 q 582 1264 582 1240 l 582 1276 l 757 1276 l 757 1254 q 701 1107 757 1158 q 531 1056 644 1056 q 364 1108 422 1056 q 306 1254 306 1160 l 306 1276 z "},"Ф":{"ha":1321,"x_min":35,"x_max":1286,"o":"m 504 40 q 257 101 364 44 q 92 258 150 158 q 35 486 35 357 q 93 714 35 614 q 258 872 151 814 q 504 933 364 929 l 504 1051 l 817 1051 l 817 933 q 1063 872 957 929 q 1228 714 1169 814 q 1286 486 1286 614 q 1228 258 1286 357 q 1063 101 1169 158 q 817 40 957 44 l 817 -83 l 504 -83 l 504 40 m 363 486 q 403 378 363 418 q 513 332 444 338 l 513 642 q 403 595 444 636 q 363 486 363 554 m 808 332 q 917 378 876 338 q 957 486 957 418 q 917 595 957 554 q 808 642 876 636 l 808 332 z "},"Х":{"ha":1113,"x_min":25,"x_max":1089,"o":"m 329 496 l 42 972 l 411 972 l 478 849 l 554 714 l 558 714 l 633 849 l 701 972 l 1069 972 l 782 497 l 1089 0 l 703 0 l 625 140 l 558 263 l 554 263 l 408 0 l 25 0 l 329 496 z "},"Ч":{"ha":1022,"x_min":51,"x_max":935,"o":"m 460 278 q 158 379 264 278 q 51 657 51 481 l 51 972 l 388 972 l 388 717 q 418 610 388 642 q 525 578 449 578 l 601 578 l 601 972 l 935 972 l 935 0 l 599 0 l 599 278 l 460 278 z "},"Ц":{"ha":1154,"x_min":88,"x_max":1122,"o":"m 797 0 l 88 0 l 88 972 l 424 972 l 424 306 l 651 306 l 651 972 l 988 972 l 988 310 l 1122 310 l 1122 -192 l 797 -192 l 797 0 z "},"Ш":{"ha":1625,"x_min":88,"x_max":1539,"o":"m 88 972 l 424 972 l 424 306 l 647 306 l 647 972 l 978 972 l 978 306 l 1203 306 l 1203 972 l 1539 972 l 1539 0 l 88 0 l 88 972 z "},"Щ":{"ha":1711,"x_min":88,"x_max":1678,"o":"m 1354 0 l 88 0 l 88 972 l 424 972 l 424 306 l 647 306 l 647 972 l 978 972 l 978 306 l 1203 306 l 1203 972 l 1539 972 l 1539 310 l 1678 310 l 1678 -192 l 1354 -192 l 1354 0 z "},"Џ":{"ha":1075,"x_min":88,"x_max":988,"o":"m 88 972 l 424 972 l 424 306 l 651 306 l 651 972 l 988 972 l 988 0 l 700 0 l 700 -192 l 375 -192 l 375 0 l 88 0 l 88 972 z "},"Ь":{"ha":982,"x_min":88,"x_max":954,"o":"m 88 972 l 424 972 l 424 707 l 579 707 q 774 663 689 707 q 907 538 860 618 q 954 353 954 458 q 907 169 954 249 q 774 44 860 89 q 579 0 689 0 l 88 0 l 88 972 m 518 264 q 594 287 568 264 q 621 356 621 310 q 518 443 621 443 l 415 443 l 415 264 l 518 264 z "},"Ы":{"ha":1493,"x_min":88,"x_max":1406,"o":"m 88 972 l 424 972 l 424 707 l 579 707 q 774 663 689 707 q 907 538 860 618 q 954 353 954 458 q 907 169 954 249 q 774 44 860 89 q 579 0 689 0 l 88 0 l 88 972 m 518 264 q 594 287 568 264 q 621 356 621 310 q 518 443 621 443 l 415 443 l 415 264 l 518 264 m 1069 972 l 1406 972 l 1406 0 l 1069 0 l 1069 972 z "},"Ъ":{"ha":1150,"x_min":25,"x_max":1122,"o":"m 254 669 l 25 669 l 25 972 l 590 972 l 590 707 l 747 707 q 942 663 857 707 q 1075 538 1028 618 q 1122 353 1122 458 q 1075 169 1122 249 q 942 44 1028 89 q 747 0 857 0 l 254 0 l 254 669 m 686 264 q 761 287 735 264 q 788 356 788 310 q 686 443 788 443 l 583 443 l 583 264 l 686 264 z "},"Љ":{"ha":1575,"x_min":25,"x_max":1547,"o":"m 25 299 l 89 299 q 150 319 131 299 q 172 386 169 339 l 219 972 l 1019 972 l 1019 707 l 1169 707 q 1365 663 1279 707 q 1499 538 1451 618 q 1547 353 1547 457 q 1499 169 1547 249 q 1365 44 1451 89 q 1169 0 1279 0 l 686 0 l 686 667 l 524 667 l 500 306 q 410 74 490 147 q 168 0 329 0 l 25 0 l 25 299 m 1107 263 q 1183 286 1154 263 q 1213 354 1213 310 q 1183 422 1213 399 q 1107 444 1154 444 l 1013 444 l 1013 263 l 1107 263 z "},"Њ":{"ha":1539,"x_min":88,"x_max":1511,"o":"m 650 354 l 424 354 l 424 0 l 88 0 l 88 972 l 424 972 l 424 660 l 650 660 l 650 972 l 986 972 l 986 703 l 1140 703 q 1334 658 1250 703 q 1465 532 1418 613 q 1511 349 1511 451 q 1463 167 1511 246 q 1330 44 1414 88 q 1140 0 1246 0 l 650 0 l 650 354 m 1065 263 q 1147 285 1117 263 q 1178 354 1178 308 q 1147 422 1178 399 q 1065 444 1117 444 l 978 444 l 978 263 l 1065 263 z "},"Ѕ":{"ha":908,"x_min":38,"x_max":868,"o":"m 457 -21 q 148 69 258 -21 q 38 319 38 158 l 358 319 q 383 247 358 272 q 456 222 408 222 q 518 238 496 222 q 540 283 540 254 q 502 342 540 319 q 381 379 464 365 q 126 483 208 408 q 44 686 44 558 q 149 911 44 829 q 438 993 254 993 q 655 953 563 993 q 798 837 747 913 q 850 660 849 761 l 536 660 q 512 730 536 706 q 443 754 488 754 q 382 738 404 754 q 360 693 360 721 q 395 639 360 660 q 518 601 431 618 q 784 493 700 567 q 868 294 868 419 q 760 63 868 146 q 457 -21 651 -21 z "},"Є":{"ha":1107,"x_min":38,"x_max":1072,"o":"m 551 -21 q 283 43 400 -21 q 102 222 167 107 q 38 486 38 338 q 102 750 38 635 q 283 929 167 865 q 550 993 400 993 q 793 942 683 993 q 974 797 903 890 q 1067 578 1044 703 l 768 578 q 691 678 746 642 q 561 714 636 714 q 441 682 492 714 q 367 592 390 650 l 672 592 l 672 382 l 367 382 q 441 291 390 324 q 561 258 492 258 q 692 295 636 258 q 771 400 747 332 l 1072 400 q 981 178 1053 274 q 799 31 910 83 q 551 -21 689 -21 z "},"Э":{"ha":1107,"x_min":35,"x_max":1069,"o":"m 556 -21 q 308 31 418 -21 q 126 178 197 83 q 35 400 54 274 l 336 400 q 415 295 360 332 q 546 258 471 258 q 667 291 617 258 q 742 382 718 324 l 435 382 l 435 592 l 740 592 q 666 682 717 650 q 546 714 615 714 q 416 678 471 714 q 339 578 361 642 l 40 578 q 133 797 63 703 q 314 942 204 890 q 557 993 424 993 q 824 929 707 993 q 1005 750 940 865 q 1069 486 1069 635 q 1005 222 1069 338 q 824 43 940 107 q 556 -21 707 -21 z "},"І":{"ha":510,"x_min":88,"x_max":424,"o":"m 88 972 l 424 972 l 424 0 l 88 0 l 88 972 z "},"Ї":{"ha":510,"x_min":-44,"x_max":554,"o":"m 88 972 l 424 972 l 424 0 l 88 0 l 88 972 m -44 1183 q -8 1278 -44 1242 q 88 1315 29 1315 q 183 1278 146 1315 q 219 1183 219 1242 q 183 1089 219 1125 q 88 1053 146 1053 q -8 1089 29 1053 q -44 1183 -44 1125 m 292 1183 q 328 1279 292 1243 q 424 1315 365 1315 q 518 1279 482 1315 q 554 1183 554 1243 q 518 1089 554 1125 q 424 1053 482 1053 q 328 1089 365 1053 q 292 1183 292 1125 z "},"Ј":{"ha":726,"x_min":40,"x_max":642,"o":"m 40 306 l 183 306 q 276 335 247 306 q 306 431 306 364 l 306 972 l 642 972 l 642 385 q 535 99 642 199 q 231 0 428 0 l 40 0 l 40 306 z "},"Ћ":{"ha":1218,"x_min":38,"x_max":1167,"o":"m 835 161 q 808 262 835 235 q 707 289 781 289 l 654 289 l 654 0 l 319 0 l 319 668 l 38 668 l 38 972 l 1004 972 l 1004 678 l 654 678 l 654 563 l 788 563 q 1070 472 974 563 q 1167 207 1167 382 l 1167 0 l 835 0 l 835 161 z "},"Ю":{"ha":1586,"x_min":88,"x_max":1549,"o":"m 1019 -21 q 788 24 893 -21 q 611 149 683 68 q 510 338 539 229 l 422 338 l 422 0 l 88 0 l 88 972 l 422 972 l 422 643 l 513 643 q 695 899 560 804 q 1019 993 831 993 q 1294 928 1174 993 q 1481 749 1414 864 q 1549 486 1549 633 q 1481 224 1549 339 q 1294 44 1414 108 q 1019 -21 1174 -21 m 815 486 q 871 341 815 397 q 1013 285 926 285 q 1155 341 1100 285 q 1210 486 1210 397 q 1155 631 1210 575 q 1013 688 1100 688 q 871 631 926 688 q 815 486 815 575 z "},"Я":{"ha":1019,"x_min":43,"x_max":932,"o":"m 599 257 l 539 257 l 417 0 l 43 0 l 210 315 q 94 437 135 360 q 54 614 54 514 q 102 805 54 724 q 240 929 150 886 q 451 972 329 972 l 932 972 l 932 0 l 599 0 l 599 257 m 390 610 q 420 533 390 560 q 506 506 450 506 l 604 506 l 604 714 l 506 714 q 420 687 450 714 q 390 610 390 660 z "},"Ђ":{"ha":1218,"x_min":38,"x_max":1167,"o":"m 704 -43 l 749 -43 q 814 -26 793 -43 q 835 32 835 -10 l 835 157 q 808 258 835 231 q 707 285 781 285 l 654 285 l 654 0 l 319 0 l 319 668 l 38 668 l 38 972 l 1004 972 l 1004 678 l 654 678 l 654 563 l 788 563 q 1070 472 974 563 q 1167 207 1167 382 l 1167 25 q 1082 -216 1167 -137 q 815 -294 997 -294 l 704 -294 l 704 -43 z "},"Ӕ":{"ha":1407,"x_min":4,"x_max":1353,"o":"m 524 972 l 1340 972 l 1340 724 l 997 724 l 997 611 l 1303 611 l 1303 369 l 997 369 l 997 253 l 1353 253 l 1353 0 l 683 0 l 683 113 l 429 113 l 369 0 l 4 0 l 524 972 m 683 335 l 683 650 l 679 650 l 519 335 l 683 335 z "},"а":{"ha":908,"x_min":47,"x_max":843,"o":"m 326 -18 q 122 44 197 -18 q 47 214 47 107 q 115 378 47 317 q 299 440 183 440 l 535 440 l 535 485 q 512 531 535 513 q 454 550 489 550 q 400 533 422 550 q 375 489 378 517 l 83 489 q 195 691 100 622 q 456 760 290 760 q 743 672 643 760 q 843 418 843 585 l 843 0 l 617 0 l 585 81 q 472 7 538 32 q 326 -18 406 -18 m 350 236 q 371 194 350 210 q 428 178 392 178 q 508 207 478 178 q 539 285 539 236 l 539 294 l 428 294 q 371 278 392 294 q 350 236 350 263 z "},"б":{"ha":967,"x_min":60,"x_max":932,"o":"m 500 -21 q 267 33 367 -21 q 114 188 168 88 q 60 422 60 288 l 60 500 q 155 876 60 743 q 457 1047 250 1008 l 875 1126 l 875 851 l 510 786 q 392 734 432 771 q 346 631 353 697 q 450 699 389 675 q 582 722 511 722 q 762 676 682 722 q 887 550 842 631 q 932 368 932 469 q 878 165 932 253 q 726 28 824 76 q 500 -21 628 -21 m 365 365 q 402 272 365 308 q 496 236 439 236 q 590 272 554 236 q 626 365 626 308 q 590 460 626 424 q 496 496 554 496 q 402 460 439 496 q 365 365 365 424 z "},"в":{"ha":861,"x_min":79,"x_max":831,"o":"m 79 740 l 578 740 q 745 685 681 740 q 810 543 810 629 q 784 447 810 490 q 708 378 758 404 q 799 306 768 353 q 831 201 831 260 q 763 57 831 114 q 583 0 696 0 l 79 0 l 79 740 m 465 182 q 511 196 494 182 q 528 235 528 210 q 511 275 528 260 q 465 290 494 290 l 374 290 l 374 182 l 465 182 m 454 457 q 499 472 482 457 q 517 510 517 486 q 499 547 517 533 q 454 561 482 561 l 374 561 l 374 457 l 454 457 z "},"г":{"ha":689,"x_min":79,"x_max":656,"o":"m 79 740 l 656 740 l 656 461 l 396 461 l 396 0 l 79 0 l 79 740 z "},"ѓ":{"ha":689,"x_min":79,"x_max":656,"o":"m 79 740 l 656 740 l 656 461 l 396 461 l 396 0 l 79 0 l 79 740 m 329 1060 l 576 1060 l 460 829 l 251 829 l 329 1060 z "},"ґ":{"ha":692,"x_min":79,"x_max":660,"o":"m 79 740 l 381 740 l 381 911 l 660 911 l 660 461 l 396 461 l 396 0 l 79 0 l 79 740 z "},"д":{"ha":1032,"x_min":28,"x_max":1001,"o":"m 28 282 l 119 282 q 142 320 135 296 q 154 389 150 344 l 185 740 l 892 740 l 892 282 l 1001 282 l 1001 -168 l 704 -168 l 704 0 l 325 0 l 325 -168 l 28 -168 l 28 282 m 586 257 l 586 482 l 464 482 l 454 356 q 425 257 450 294 l 586 257 z "},"е":{"ha":926,"x_min":33,"x_max":900,"o":"m 461 -21 q 239 28 336 -21 q 88 167 142 78 q 33 369 33 256 q 88 572 33 483 q 240 710 143 661 q 464 760 338 760 q 701 703 601 760 q 850 543 800 647 q 893 301 900 439 l 340 301 q 388 226 353 251 q 471 201 422 201 q 535 213 506 201 q 583 246 565 225 l 881 246 q 724 49 835 119 q 461 -21 614 -21 m 596 447 q 550 516 582 492 q 469 540 518 540 q 389 517 422 540 q 342 447 356 493 l 596 447 z "},"ѐ":{"ha":926,"x_min":33,"x_max":900,"o":"m 461 -21 q 239 28 336 -21 q 88 167 142 78 q 33 369 33 256 q 88 572 33 483 q 240 710 143 661 q 464 760 338 760 q 701 703 601 760 q 850 543 800 647 q 893 301 900 439 l 340 301 q 388 226 353 251 q 471 201 422 201 q 535 213 506 201 q 583 246 565 225 l 881 246 q 724 49 835 119 q 461 -21 614 -21 m 499 1060 l 576 829 l 368 829 l 251 1060 l 499 1060 m 596 447 q 550 516 582 492 q 469 540 518 540 q 389 517 422 540 q 342 447 356 493 l 596 447 z "},"ё":{"ha":926,"x_min":33,"x_max":900,"o":"m 461 -21 q 239 28 336 -21 q 88 167 142 78 q 33 369 33 256 q 88 572 33 483 q 240 710 143 661 q 464 760 338 760 q 701 703 601 760 q 850 543 800 647 q 893 301 900 439 l 340 301 q 388 226 353 251 q 471 201 422 201 q 535 213 506 201 q 583 246 565 225 l 881 246 q 724 49 835 119 q 461 -21 614 -21 m 172 957 q 208 1049 172 1014 q 300 1085 243 1085 q 393 1049 357 1085 q 429 957 429 1014 q 393 865 429 900 q 300 829 357 829 q 208 865 243 829 q 172 957 172 900 m 596 447 q 550 516 582 492 q 469 540 518 540 q 389 517 422 540 q 342 447 356 493 l 596 447 m 500 957 q 536 1049 500 1014 q 629 1085 572 1085 q 721 1049 685 1085 q 757 957 757 1014 q 721 865 757 900 q 629 829 685 829 q 536 865 572 829 q 500 957 500 900 z "},"ж":{"ha":1422,"x_min":24,"x_max":1399,"o":"m 213 351 q 157 456 181 393 l 56 740 l 388 740 l 438 579 q 471 526 449 540 q 542 513 493 513 l 554 513 l 554 740 l 868 740 l 868 513 l 879 513 q 951 526 929 513 q 985 579 972 540 l 1033 740 l 1367 740 l 1265 456 q 1210 351 1242 393 l 1399 0 l 1042 0 l 922 246 l 868 246 l 868 0 l 554 0 l 554 246 l 500 246 l 381 0 l 24 0 l 213 351 z "},"з":{"ha":783,"x_min":26,"x_max":753,"o":"m 392 -21 q 125 46 218 -21 q 26 239 32 113 l 310 239 q 383 181 317 181 q 434 195 415 181 q 453 236 453 210 q 435 271 453 261 q 382 281 418 281 l 279 281 l 279 467 l 381 467 q 428 477 413 467 q 444 511 444 488 q 428 549 444 536 q 383 563 413 563 q 335 549 351 563 q 315 507 318 535 l 36 507 q 133 694 42 629 q 388 760 224 760 q 639 701 546 760 q 732 542 732 642 q 708 451 732 492 q 640 382 685 410 q 723 309 693 356 q 753 204 753 263 q 659 38 753 97 q 392 -21 565 -21 z "},"и":{"ha":974,"x_min":79,"x_max":894,"o":"m 79 740 l 390 740 l 390 560 l 388 449 l 393 447 l 636 740 l 894 740 l 894 0 l 583 0 l 583 179 l 586 290 l 582 292 l 336 0 l 79 0 l 79 740 z "},"й":{"ha":974,"x_min":79,"x_max":894,"o":"m 79 740 l 390 740 l 390 560 l 388 449 l 393 447 l 636 740 l 894 740 l 894 0 l 583 0 l 583 179 l 586 290 l 582 292 l 336 0 l 79 0 l 79 740 m 249 1060 l 425 1060 l 425 1039 q 486 981 425 981 q 531 995 514 981 q 547 1039 547 1010 l 547 1060 l 724 1060 l 724 1026 q 662 874 724 926 q 486 822 600 822 q 310 874 372 822 q 249 1026 249 926 l 249 1060 z "},"ѝ":{"ha":974,"x_min":79,"x_max":894,"o":"m 79 740 l 390 740 l 390 560 l 388 449 l 393 447 l 636 740 l 894 740 l 894 0 l 583 0 l 583 179 l 586 290 l 582 292 l 336 0 l 79 0 l 79 740 m 521 1060 l 599 829 l 390 829 l 274 1060 l 521 1060 z "},"к":{"ha":954,"x_min":79,"x_max":932,"o":"m 79 740 l 396 740 l 396 513 l 413 513 q 483 526 461 513 q 517 579 506 540 l 567 740 l 899 740 l 797 456 q 742 351 774 393 l 932 0 l 574 0 l 454 246 l 396 246 l 396 0 l 79 0 l 79 740 z "},"ќ":{"ha":954,"x_min":79,"x_max":932,"o":"m 79 740 l 396 740 l 396 513 l 413 513 q 483 526 461 513 q 517 579 506 540 l 567 740 l 899 740 l 797 456 q 742 351 774 393 l 932 0 l 574 0 l 454 246 l 396 246 l 396 0 l 79 0 l 79 740 m 442 1060 l 689 1060 l 572 829 l 364 829 l 442 1060 z "},"л":{"ha":972,"x_min":22,"x_max":893,"o":"m 22 265 l 64 265 q 118 281 100 265 q 139 335 136 297 l 172 740 l 893 740 l 893 0 l 576 0 l 576 461 l 457 461 l 442 263 q 363 67 432 133 q 147 0 293 0 l 22 0 l 22 265 z "},"м":{"ha":1131,"x_min":79,"x_max":1053,"o":"m 79 740 l 333 740 l 565 440 l 797 740 l 1053 740 l 1053 0 l 749 0 l 749 153 l 751 268 l 746 269 l 638 121 l 494 121 l 386 269 l 381 268 l 383 167 l 383 0 l 79 0 l 79 740 z "},"н":{"ha":960,"x_min":79,"x_max":881,"o":"m 564 236 l 396 236 l 396 0 l 79 0 l 79 740 l 396 740 l 396 514 l 564 514 l 564 740 l 881 740 l 881 0 l 564 0 l 564 236 z "},"о":{"ha":950,"x_min":33,"x_max":917,"o":"m 475 -21 q 244 28 344 -21 q 89 165 144 76 q 33 369 33 253 q 89 574 33 486 q 244 711 144 663 q 475 760 344 760 q 707 711 607 760 q 862 574 807 663 q 917 369 917 486 q 862 165 917 253 q 707 28 807 76 q 475 -21 607 -21 m 342 369 q 379 273 342 310 q 475 236 417 236 q 571 273 533 236 q 608 369 608 310 q 571 467 608 429 q 475 504 533 504 q 379 467 417 504 q 342 369 342 429 z "},"п":{"ha":961,"x_min":79,"x_max":882,"o":"m 79 740 l 882 740 l 882 0 l 565 0 l 565 461 l 396 461 l 396 0 l 79 0 l 79 740 z "},"р":{"ha":996,"x_min":79,"x_max":961,"o":"m 586 -19 q 396 28 479 -19 l 396 -278 l 79 -278 l 79 740 l 304 740 l 333 667 q 586 760 433 760 q 782 710 697 760 q 914 573 867 661 q 961 369 961 485 q 914 166 961 254 q 782 29 867 78 q 586 -19 697 -19 m 388 369 q 424 273 388 310 q 519 236 460 236 q 616 273 579 236 q 653 369 653 310 q 616 467 653 429 q 519 504 579 504 q 424 467 460 504 q 388 369 388 431 z "},"с":{"ha":926,"x_min":33,"x_max":894,"o":"m 464 -21 q 240 28 338 -21 q 88 167 142 78 q 33 369 33 256 q 88 572 33 483 q 241 710 143 661 q 464 760 339 760 q 672 719 579 760 q 821 603 764 678 q 890 428 878 528 l 597 428 q 547 485 579 465 q 471 504 514 504 q 377 467 413 504 q 342 369 342 431 q 377 273 342 310 q 471 236 413 236 q 551 259 517 236 q 600 322 585 282 l 894 322 q 824 140 882 218 q 674 21 767 63 q 464 -21 582 -21 z "},"т":{"ha":838,"x_min":33,"x_max":804,"o":"m 261 461 l 33 461 l 33 740 l 804 740 l 804 461 l 578 461 l 578 0 l 261 0 l 261 461 z "},"у":{"ha":917,"x_min":4,"x_max":913,"o":"m 107 -33 l 211 -33 q 276 -20 254 -33 q 311 24 299 -7 l 4 740 l 349 740 l 415 536 l 467 375 l 471 375 l 515 536 l 575 740 l 913 740 l 596 -62 q 519 -200 563 -151 q 411 -269 476 -249 q 240 -289 346 -289 l 107 -289 l 107 -33 z "},"ў":{"ha":917,"x_min":4,"x_max":913,"o":"m 107 -33 l 211 -33 q 276 -20 254 -33 q 311 24 299 -7 l 4 740 l 349 740 l 415 536 l 467 375 l 471 375 l 515 536 l 575 740 l 913 740 l 596 -62 q 519 -200 563 -151 q 411 -269 476 -249 q 240 -289 346 -289 l 107 -289 l 107 -33 m 224 1060 l 400 1060 l 400 1039 q 461 981 400 981 q 506 995 489 981 q 522 1039 522 1010 l 522 1060 l 699 1060 l 699 1026 q 637 874 699 926 q 461 822 575 822 q 285 874 347 822 q 224 1026 224 926 l 224 1060 z "},"ф":{"ha":1197,"x_min":33,"x_max":1163,"o":"m 443 -19 q 227 36 319 -14 q 84 172 135 86 q 33 369 33 258 q 84 567 33 481 q 228 703 135 653 q 443 758 321 753 l 443 1028 l 756 1028 l 756 758 q 969 703 876 753 q 1112 567 1061 653 q 1163 369 1163 481 q 1112 172 1163 258 q 969 36 1061 86 q 756 -19 878 -14 l 756 -278 l 443 -278 l 443 -19 m 331 369 q 365 278 331 314 q 456 236 399 242 l 456 503 q 365 462 399 497 q 331 369 331 426 m 744 236 q 833 278 800 243 q 865 369 865 314 q 833 461 865 425 q 744 503 800 497 l 744 236 z "},"х":{"ha":933,"x_min":22,"x_max":911,"o":"m 260 376 l 32 740 l 376 740 l 422 651 l 464 567 l 469 567 l 511 651 l 557 740 l 899 740 l 674 376 l 911 0 l 560 0 l 514 89 l 469 179 l 464 179 l 419 89 l 374 0 l 22 0 l 260 376 z "},"ч":{"ha":910,"x_min":47,"x_max":832,"o":"m 386 178 q 136 256 225 178 q 47 488 47 335 l 47 740 l 361 740 l 361 551 q 383 475 361 496 q 463 454 404 454 l 519 454 l 519 740 l 832 740 l 832 0 l 515 0 l 515 178 l 386 178 z "},"ц":{"ha":1021,"x_min":79,"x_max":992,"o":"m 693 0 l 79 0 l 79 740 l 396 740 l 396 278 l 564 278 l 564 740 l 881 740 l 881 282 l 992 282 l 992 -168 l 693 -168 l 693 0 z "},"ш":{"ha":1431,"x_min":79,"x_max":1351,"o":"m 79 740 l 394 740 l 394 278 l 563 278 l 563 740 l 868 740 l 868 278 l 1036 278 l 1036 740 l 1351 740 l 1351 0 l 79 0 l 79 740 z "},"щ":{"ha":1492,"x_min":79,"x_max":1463,"o":"m 1164 0 l 79 0 l 79 740 l 394 740 l 394 276 l 563 276 l 563 740 l 868 740 l 868 276 l 1036 276 l 1036 740 l 1351 740 l 1351 279 l 1463 279 l 1463 -168 l 1164 -168 l 1164 0 z "},"џ":{"ha":961,"x_min":79,"x_max":882,"o":"m 79 740 l 396 740 l 396 278 l 565 278 l 565 740 l 882 740 l 882 0 l 629 0 l 629 -168 l 332 -168 l 332 0 l 79 0 l 79 740 z "},"ь":{"ha":865,"x_min":79,"x_max":840,"o":"m 79 740 l 396 740 l 396 564 l 533 564 q 758 488 676 564 q 840 282 840 413 q 758 76 840 151 q 533 0 676 0 l 79 0 l 79 740 m 464 221 q 517 237 499 221 q 536 283 536 253 q 517 328 536 313 q 464 344 499 344 l 385 344 l 385 221 l 464 221 z "},"ы":{"ha":1340,"x_min":79,"x_max":1261,"o":"m 79 740 l 396 740 l 396 564 l 533 564 q 758 488 676 564 q 840 282 840 413 q 758 76 840 151 q 533 0 676 0 l 79 0 l 79 740 m 464 221 q 517 237 499 221 q 536 283 536 253 q 517 328 536 313 q 464 344 499 344 l 385 344 l 385 221 l 464 221 m 944 740 l 1261 740 l 1261 0 l 944 0 l 944 740 z "},"ъ":{"ha":996,"x_min":22,"x_max":971,"o":"m 210 465 l 22 465 l 22 740 l 526 740 l 526 564 l 663 564 q 888 489 806 564 q 971 282 971 414 q 888 76 971 151 q 663 0 806 0 l 210 0 l 210 465 m 594 221 q 648 237 629 221 q 667 283 667 253 q 648 328 667 313 q 594 344 629 344 l 515 344 l 515 221 l 594 221 z "},"љ":{"ha":1343,"x_min":22,"x_max":1318,"o":"m 22 265 l 64 265 q 118 281 100 265 q 139 335 136 297 l 172 740 l 879 740 l 879 564 l 1011 564 q 1236 488 1154 564 q 1318 282 1318 413 q 1236 76 1318 151 q 1011 0 1154 0 l 565 0 l 565 461 l 457 461 l 442 263 q 363 67 432 133 q 147 0 293 0 l 22 0 l 22 265 m 942 221 q 995 237 976 221 q 1014 283 1014 253 q 995 328 1014 313 q 942 344 976 344 l 864 344 l 864 221 l 942 221 z "},"њ":{"ha":1344,"x_min":79,"x_max":1319,"o":"m 564 246 l 396 246 l 396 0 l 79 0 l 79 740 l 396 740 l 396 524 l 564 524 l 564 740 l 881 740 l 879 564 l 1011 564 q 1237 488 1154 564 q 1319 282 1319 413 q 1237 76 1319 151 q 1011 0 1154 0 l 564 0 l 564 246 m 943 221 q 997 237 978 221 q 1015 283 1015 253 q 997 328 1015 313 q 943 344 978 344 l 869 344 l 869 221 l 943 221 z "},"ѕ":{"ha":794,"x_min":33,"x_max":758,"o":"m 397 -21 q 131 50 229 -21 q 33 243 33 121 l 339 243 q 356 197 339 215 q 401 179 374 179 q 439 191 425 179 q 453 222 453 203 q 422 263 453 247 q 321 289 392 279 q 108 367 176 310 q 39 522 39 424 q 130 699 39 638 q 393 760 221 760 q 649 694 558 760 q 746 503 739 629 l 451 503 q 433 547 450 532 q 388 563 417 563 q 351 551 364 563 q 338 521 338 540 q 367 482 338 496 q 476 456 396 468 q 688 376 618 435 q 758 221 758 318 q 664 42 758 106 q 397 -21 569 -21 z "},"є":{"ha":918,"x_min":33,"x_max":888,"o":"m 461 -21 q 240 28 338 -21 q 88 165 143 76 q 33 369 33 253 q 88 574 33 485 q 240 711 143 663 q 460 760 338 760 q 743 676 631 760 q 882 443 856 592 l 622 443 q 560 510 600 486 q 468 533 519 533 q 385 513 421 533 q 329 454 349 492 l 538 454 l 538 288 l 328 288 q 383 228 347 249 q 468 207 419 207 q 564 234 522 207 q 626 311 606 261 l 888 311 q 749 68 865 157 q 461 -21 633 -21 z "},"э":{"ha":918,"x_min":31,"x_max":885,"o":"m 457 -21 q 170 68 286 -21 q 31 311 54 157 l 292 311 q 354 234 313 261 q 450 207 396 207 q 535 228 499 207 q 590 288 571 249 l 381 288 l 381 454 l 590 454 q 535 513 571 492 q 450 533 499 533 q 359 510 400 533 q 296 443 318 486 l 36 443 q 175 676 63 592 q 458 760 288 760 q 678 711 582 760 q 830 574 775 663 q 885 369 885 486 q 830 165 885 253 q 678 28 775 76 q 457 -21 581 -21 z "},"і":{"ha":475,"x_min":56,"x_max":418,"o":"m 79 740 l 396 740 l 396 0 l 79 0 l 79 740 m 56 999 q 106 1124 56 1076 q 238 1172 156 1172 q 368 1124 318 1172 q 418 999 418 1076 q 368 872 418 921 q 238 824 318 824 q 106 872 156 824 q 56 999 56 921 z "},"ї":{"ha":475,"x_min":-43,"x_max":521,"o":"m 79 740 l 396 740 l 396 0 l 79 0 l 79 740 m -43 957 q -8 1050 -43 1015 q 83 1085 26 1085 q 174 1050 139 1085 q 208 957 208 1015 q 174 865 208 900 q 83 829 139 829 q -8 865 26 829 q -43 957 -43 900 m 269 957 q 303 1050 269 1015 q 394 1085 338 1085 q 486 1050 451 1085 q 521 957 521 1015 q 486 865 521 900 q 394 829 451 829 q 304 865 339 829 q 269 957 269 900 z "},"ј":{"ha":479,"x_min":-78,"x_max":419,"o":"m -78 -81 l -8 -81 q 85 15 85 -81 l 85 740 l 401 740 l 401 8 q 46 -350 401 -350 l -78 -350 l -78 -81 m 57 999 q 107 1124 57 1076 q 239 1172 157 1172 q 369 1124 319 1172 q 419 999 419 1076 q 369 872 419 921 q 239 824 319 824 q 107 872 157 824 q 57 999 57 921 z "},"ћ":{"ha":1008,"x_min":7,"x_max":942,"o":"m 132 778 l 7 778 l 7 957 l 132 957 l 132 1028 l 449 1028 l 449 957 l 628 957 l 628 786 l 449 786 l 449 681 q 640 738 529 738 q 860 651 779 738 q 942 419 942 565 l 942 0 l 625 0 l 625 381 q 603 458 625 432 q 539 485 581 485 q 472 457 496 485 q 449 376 449 429 l 449 0 l 132 0 l 132 778 z "},"ю":{"ha":1329,"x_min":79,"x_max":1296,"o":"m 79 740 l 394 740 l 394 513 l 467 513 q 615 694 508 628 q 869 760 721 760 q 1092 711 996 760 q 1242 574 1189 663 q 1296 369 1296 486 q 1242 165 1296 253 q 1092 28 1189 76 q 869 -21 996 -21 q 611 48 718 -21 q 464 236 504 117 l 394 236 l 394 0 l 79 0 l 79 740 m 721 369 q 758 273 721 310 q 854 236 796 236 q 949 273 913 236 q 986 369 986 310 q 949 467 986 429 q 854 504 913 504 q 758 467 796 504 q 721 369 721 429 z "},"я":{"ha":907,"x_min":38,"x_max":828,"o":"m 515 178 l 457 178 l 383 0 l 38 0 l 156 247 q 88 342 111 286 q 64 465 64 397 q 144 666 64 592 q 361 740 225 740 l 828 740 l 828 0 l 515 0 l 515 178 m 369 451 q 388 407 369 424 q 438 390 406 390 l 525 390 l 525 511 l 438 511 q 388 495 406 511 q 369 451 369 479 z "},"ђ":{"ha":1008,"x_min":7,"x_max":942,"o":"m 506 -69 l 535 -69 q 603 -47 582 -69 q 625 25 625 -24 l 625 381 q 603 458 625 432 q 539 485 581 485 q 472 457 496 485 q 449 376 449 429 l 449 0 l 132 0 l 132 771 l 7 771 l 7 957 l 132 957 l 132 1028 l 449 1028 l 449 957 l 628 957 l 628 786 l 449 786 l 449 679 q 640 738 529 738 q 860 651 779 738 q 942 419 942 565 l 942 13 q 860 -243 942 -160 q 604 -326 778 -326 l 506 -326 l 506 -69 z "},"ӕ":{"ha":1428,"x_min":47,"x_max":1400,"o":"m 994 -21 q 831 10 906 -21 q 704 96 756 40 q 570 9 651 39 q 383 -21 489 -21 q 135 41 224 -21 q 47 214 47 103 q 119 380 47 318 q 311 442 190 442 l 538 442 l 538 475 q 515 531 538 510 q 454 551 493 551 q 399 535 421 551 q 371 489 376 518 l 83 489 q 191 690 99 619 q 440 760 283 760 q 718 657 628 760 q 842 733 771 707 q 999 760 914 760 q 1218 703 1126 760 q 1355 544 1310 647 q 1393 301 1400 440 l 847 301 q 892 226 858 253 q 974 200 925 200 q 1034 212 1006 200 q 1081 244 1063 224 l 1381 244 q 1236 48 1336 117 q 994 -21 1136 -21 m 351 236 q 373 193 351 208 q 432 178 394 178 q 513 208 483 178 q 543 290 543 239 l 543 296 l 432 296 q 373 280 394 296 q 351 236 351 264 m 1096 447 q 1049 515 1081 492 q 972 539 1018 539 q 894 515 926 539 q 850 447 863 492 l 1096 447 z "},"Δ":{"ha":1106,"x_min":4,"x_max":1101,"o":"m 382 972 l 724 972 l 1101 0 l 4 0 l 382 972 m 668 256 l 606 451 l 553 615 l 500 451 l 436 256 l 668 256 z "},"Ω":{"ha":1224,"x_min":42,"x_max":1182,"o":"m 42 256 l 160 256 l 161 258 q 72 535 72 381 q 139 776 72 672 q 328 936 206 879 q 611 993 450 993 q 894 936 772 993 q 1084 775 1017 879 q 1151 535 1151 671 q 1061 258 1151 382 l 1063 256 l 1182 256 l 1182 0 l 674 0 l 674 208 q 785 323 750 261 q 821 463 821 385 q 765 629 821 568 q 611 690 708 690 q 458 629 515 690 q 401 463 401 568 q 438 323 401 385 q 550 208 474 261 l 550 0 l 42 0 l 42 256 z "},"μ":{"ha":968,"x_min":79,"x_max":889,"o":"m 79 740 l 396 740 l 396 338 q 419 261 396 288 q 483 235 442 235 q 549 261 525 235 q 572 338 572 288 l 572 740 l 889 740 l 889 0 l 663 0 l 642 54 q 575 2 615 19 q 489 -15 535 -15 q 379 11 428 -15 l 379 -278 l 79 -278 l 79 740 z "},"π":{"ha":961,"x_min":79,"x_max":882,"o":"m 79 740 l 882 740 l 882 0 l 565 0 l 565 461 l 396 461 l 396 0 l 79 0 l 79 740 z "},"⓿":{"ha":1399,"x_min":61,"x_max":1338,"o":"m 700 -139 q 369 -61 514 -139 q 142 156 224 17 q 61 471 61 294 q 142 786 61 647 q 369 1003 224 925 q 700 1081 514 1081 q 1030 1003 885 1081 q 1256 788 1175 926 q 1338 471 1338 649 q 1256 156 1338 294 q 1030 -61 1175 17 q 700 -139 885 -139 m 464 471 q 526 286 464 353 q 700 219 589 219 q 872 286 810 219 q 935 471 935 353 q 872 656 935 589 q 700 722 810 722 q 526 656 589 722 q 464 471 464 589 m 651 471 q 663 535 651 514 q 700 556 675 556 q 747 471 747 556 q 700 386 747 386 q 663 407 675 386 q 651 471 651 428 z "},"❶":{"ha":1399,"x_min":61,"x_max":1338,"o":"m 700 -139 q 369 -61 514 -139 q 142 156 224 17 q 61 471 61 294 q 142 786 61 647 q 369 1003 224 925 q 700 1081 514 1081 q 1030 1003 885 1081 q 1256 788 1175 926 q 1338 471 1338 649 q 1256 156 1338 294 q 1030 -61 1175 17 q 700 -139 885 -139 m 613 486 l 613 228 l 808 228 l 808 714 l 658 714 l 651 693 q 622 653 642 664 q 568 642 601 642 l 514 642 l 514 486 l 613 486 z "},"❷":{"ha":1399,"x_min":61,"x_max":1338,"o":"m 700 -139 q 369 -61 514 -139 q 142 156 224 17 q 61 471 61 294 q 142 786 61 647 q 369 1003 224 925 q 700 1081 514 1081 q 1030 1003 885 1081 q 1256 788 1175 926 q 1338 471 1338 649 q 1256 156 1338 294 q 1030 -61 1175 17 q 700 -139 885 -139 m 665 535 q 694 572 665 572 q 715 564 707 572 q 722 543 722 556 q 701 507 722 522 l 503 367 l 503 228 l 904 228 l 904 388 l 832 388 l 764 383 l 763 388 l 817 428 q 878 490 858 458 q 897 563 897 521 q 844 679 897 636 q 703 722 792 722 q 556 674 607 722 q 501 535 506 626 l 665 535 z "},"❸":{"ha":1399,"x_min":61,"x_max":1338,"o":"m 700 -139 q 369 -61 514 -139 q 142 156 224 17 q 61 471 61 294 q 142 786 61 647 q 369 1003 224 925 q 700 1081 514 1081 q 1030 1003 885 1081 q 1256 788 1175 926 q 1338 471 1338 649 q 1256 156 1338 294 q 1030 -61 1175 17 q 700 -139 885 -139 m 490 393 q 548 264 493 308 q 706 219 603 219 q 853 263 799 219 q 908 379 908 306 q 880 469 908 431 q 804 524 851 508 l 885 590 l 885 714 l 510 714 l 510 572 l 615 572 l 667 574 l 668 571 l 607 518 l 607 422 l 696 422 q 719 414 711 422 q 728 392 728 406 q 719 370 728 378 q 697 363 711 363 q 667 393 668 363 l 490 393 z "},"❹":{"ha":1399,"x_min":61,"x_max":1338,"o":"m 700 -140 q 369 -62 514 -140 q 142 153 224 15 q 61 469 61 292 q 142 785 61 646 q 369 1001 224 924 q 700 1079 514 1079 q 1030 1002 885 1079 q 1256 786 1175 925 q 1338 469 1338 647 q 1256 153 1338 292 q 1030 -62 1175 15 q 700 -140 885 -140 m 710 304 l 710 228 l 882 228 l 882 304 l 936 304 l 936 458 l 882 458 l 882 554 l 750 554 l 731 453 l 669 453 l 788 714 l 589 714 l 456 417 l 456 304 l 710 304 z "},"❺":{"ha":1399,"x_min":61,"x_max":1338,"o":"m 700 -139 q 369 -61 514 -139 q 142 156 224 17 q 61 471 61 294 q 142 786 61 647 q 369 1003 224 925 q 700 1081 514 1081 q 1030 1003 885 1081 q 1256 788 1175 926 q 1338 471 1338 649 q 1256 156 1338 294 q 1030 -61 1175 17 q 700 -139 885 -139 m 492 393 q 704 219 499 219 q 851 265 796 219 q 906 385 906 310 q 860 497 906 454 q 743 539 815 539 l 672 539 l 675 575 l 879 575 l 879 713 l 525 713 l 496 429 l 694 429 q 718 419 708 429 q 728 396 728 410 q 718 372 728 382 q 694 363 708 363 q 672 371 681 363 q 663 393 663 379 l 492 393 z "},"❻":{"ha":1399,"x_min":61,"x_max":1338,"o":"m 700 -139 q 369 -61 515 -139 q 142 156 224 17 q 61 471 61 294 q 142 786 61 647 q 369 1003 224 925 q 700 1081 515 1081 q 1030 1003 885 1081 q 1256 786 1175 925 q 1338 471 1338 647 q 1256 156 1338 294 q 1030 -61 1175 17 q 700 -139 885 -139 m 479 390 q 540 267 479 314 q 699 219 600 219 q 860 267 800 219 q 921 396 921 315 q 876 512 921 465 q 758 558 832 558 l 750 558 l 849 714 l 631 714 l 539 549 q 492 456 504 489 q 479 390 479 422 m 660 399 q 671 426 660 415 q 699 438 682 438 q 728 426 717 438 q 739 399 739 415 q 728 371 739 382 q 699 360 717 360 q 671 372 682 360 q 660 399 660 383 z "},"❼":{"ha":1399,"x_min":61,"x_max":1338,"o":"m 700 -139 q 369 -61 514 -139 q 142 156 224 17 q 61 471 61 294 q 142 786 61 647 q 369 1003 224 925 q 700 1081 514 1081 q 1030 1003 885 1081 q 1256 788 1175 926 q 1338 471 1338 649 q 1256 156 1338 294 q 1030 -61 1175 17 q 700 -139 885 -139 m 674 551 l 561 228 l 765 228 l 893 600 l 893 714 l 507 714 l 507 551 l 674 551 z "},"❽":{"ha":1399,"x_min":61,"x_max":1338,"o":"m 700 219 q 535 258 596 219 q 475 364 475 297 q 493 431 475 401 q 546 478 511 461 q 486 582 486 514 q 544 684 486 646 q 700 722 603 722 q 857 684 799 722 q 915 582 915 646 q 856 478 915 515 q 907 431 889 461 q 925 364 925 401 q 865 258 925 297 q 700 219 804 219 m 61 471 q 142 156 61 294 q 369 -61 224 17 q 700 -139 514 -139 q 1030 -61 885 -139 q 1256 156 1175 17 q 1338 471 1338 294 q 1256 788 1338 649 q 1030 1003 1175 926 q 700 1081 885 1081 q 369 1003 514 1081 q 142 786 224 925 q 61 471 61 647 m 661 379 q 672 352 661 363 q 700 342 683 342 q 728 351 718 342 q 739 379 739 361 q 728 406 739 396 q 700 415 718 415 q 672 406 682 415 q 661 379 661 396 m 663 567 q 673 542 663 551 q 700 532 683 532 q 727 542 717 532 q 738 567 738 551 q 728 594 738 585 q 700 604 718 604 q 673 594 683 604 q 663 567 663 585 z "},"❾":{"ha":1399,"x_min":61,"x_max":1338,"o":"m 699 1081 q 1029 1003 883 1081 q 1256 786 1175 925 q 1338 471 1338 647 q 1256 156 1338 294 q 1029 -61 1175 17 q 699 -139 883 -139 q 369 -61 514 -139 q 142 156 224 17 q 61 471 61 294 q 142 786 61 647 q 369 1003 224 925 q 699 1081 514 1081 m 478 546 q 522 430 478 476 q 640 383 567 383 l 649 383 l 550 228 l 768 228 l 860 393 q 907 486 894 453 q 919 551 919 519 q 859 675 919 628 q 700 722 799 722 q 538 674 599 722 q 478 546 478 626 m 660 543 q 671 571 660 560 q 700 582 682 582 q 728 570 717 582 q 739 543 739 558 q 728 515 739 526 q 700 504 717 504 q 671 515 682 504 q 660 543 660 526 z "},"❿":{"ha":1399,"x_min":61,"x_max":1338,"o":"m 403 486 l 304 486 l 304 642 l 358 642 q 412 653 392 642 q 442 693 432 664 l 449 714 l 599 714 l 599 228 l 403 228 l 403 486 m 61 471 q 142 156 61 294 q 369 -61 224 17 q 700 -139 514 -139 q 1030 -61 885 -139 q 1256 156 1175 17 q 1338 471 1338 294 q 1256 788 1338 649 q 1030 1003 1175 926 q 700 1081 885 1081 q 369 1003 514 1081 q 142 786 224 925 q 61 471 61 647 m 635 471 q 697 656 635 589 q 865 722 758 722 q 1034 656 972 722 q 1096 471 1096 589 q 1034 286 1096 353 q 865 219 972 219 q 697 286 758 219 q 635 471 635 353 m 819 471 q 831 406 819 426 q 865 386 842 386 q 901 406 890 386 q 913 471 913 426 q 901 535 913 515 q 865 556 890 556 q 831 535 842 556 q 819 471 819 515 z "},"⓪":{"ha":1399,"x_min":61,"x_max":1338,"o":"m 700 -139 q 369 -61 515 -139 q 142 156 224 17 q 61 471 61 294 q 142 786 61 647 q 369 1003 224 925 q 700 1081 515 1081 q 1030 1003 885 1081 q 1256 786 1175 925 q 1338 471 1338 647 q 1256 156 1338 294 q 1030 -61 1175 17 q 700 -139 885 -139 m 250 471 q 307 244 250 343 q 467 90 364 144 q 700 35 569 35 q 933 90 831 35 q 1092 244 1035 144 q 1149 471 1149 343 q 1092 698 1149 599 q 933 852 1035 797 q 700 907 831 907 q 467 852 569 907 q 307 698 364 797 q 250 471 250 599 m 464 471 q 526 656 464 589 q 700 722 589 722 q 872 656 810 722 q 935 471 935 589 q 872 286 935 353 q 700 219 810 219 q 526 286 589 219 q 464 471 464 353 m 651 471 q 663 407 651 428 q 700 386 675 386 q 747 471 747 386 q 700 556 747 556 q 663 535 675 556 q 651 471 651 514 z "},"①":{"ha":1399,"x_min":61,"x_max":1338,"o":"m 613 486 l 514 486 l 514 642 l 568 642 q 622 653 601 642 q 651 693 642 664 l 658 714 l 808 714 l 808 228 l 613 228 l 613 486 m 61 471 q 142 786 61 647 q 369 1003 224 925 q 700 1081 515 1081 q 1030 1003 885 1081 q 1256 786 1175 925 q 1338 471 1338 647 q 1256 156 1338 294 q 1030 -61 1175 17 q 700 -139 885 -139 q 369 -61 515 -139 q 142 156 224 17 q 61 471 61 294 m 250 471 q 307 244 250 343 q 467 90 364 144 q 700 35 569 35 q 933 90 831 35 q 1092 244 1035 144 q 1149 471 1149 343 q 1092 698 1149 599 q 933 852 1035 797 q 700 907 831 907 q 467 852 569 907 q 307 698 364 797 q 250 471 250 599 z "},"②":{"ha":1399,"x_min":61,"x_max":1338,"o":"m 503 367 l 701 507 q 722 543 722 522 q 715 564 722 556 q 694 572 707 572 q 665 535 665 572 l 501 535 q 556 674 506 626 q 703 722 607 722 q 844 679 792 722 q 897 563 897 636 q 878 490 897 521 q 817 428 858 458 l 763 388 l 764 383 l 832 388 l 904 388 l 904 228 l 503 228 l 503 367 m 61 471 q 142 786 61 647 q 369 1003 224 925 q 700 1081 515 1081 q 1030 1003 885 1081 q 1256 786 1175 925 q 1338 471 1338 647 q 1256 156 1338 294 q 1030 -61 1175 17 q 700 -139 885 -139 q 369 -61 515 -139 q 142 156 224 17 q 61 471 61 294 m 250 471 q 307 244 250 343 q 467 90 364 144 q 700 35 569 35 q 933 90 831 35 q 1092 244 1035 144 q 1149 471 1149 343 q 1092 698 1149 599 q 933 852 1035 797 q 700 907 831 907 q 467 852 569 907 q 307 698 364 797 q 250 471 250 599 z "},"③":{"ha":1399,"x_min":61,"x_max":1338,"o":"m 700 -139 q 369 -61 515 -139 q 142 156 224 17 q 61 471 61 294 q 142 786 61 647 q 369 1003 224 925 q 700 1081 515 1081 q 1030 1003 885 1081 q 1256 786 1175 925 q 1338 471 1338 647 q 1256 156 1338 294 q 1030 -61 1175 17 q 700 -139 885 -139 m 250 471 q 307 244 250 343 q 467 90 364 144 q 700 35 569 35 q 933 90 831 35 q 1092 244 1035 144 q 1149 471 1149 343 q 1092 698 1149 599 q 933 852 1035 797 q 700 907 831 907 q 467 852 569 907 q 307 698 364 797 q 250 471 250 599 m 667 393 q 697 363 668 363 q 719 370 711 363 q 728 392 728 378 q 719 414 728 406 q 696 422 711 422 l 607 422 l 607 518 l 668 571 l 667 574 l 615 572 l 510 572 l 510 714 l 885 714 l 885 590 l 804 524 q 880 469 851 508 q 908 379 908 431 q 853 263 908 306 q 706 219 799 219 q 548 264 603 219 q 490 393 493 308 l 667 393 z "},"④":{"ha":1399,"x_min":61,"x_max":1338,"o":"m 936 458 l 936 304 l 882 304 l 882 228 l 710 228 l 710 304 l 456 304 l 456 417 l 589 714 l 788 714 l 669 453 l 731 453 l 750 554 l 882 554 l 882 458 l 936 458 m 61 471 q 142 786 61 647 q 369 1003 224 925 q 700 1081 515 1081 q 1030 1003 885 1081 q 1256 786 1175 925 q 1338 471 1338 647 q 1256 156 1338 294 q 1030 -61 1175 17 q 700 -139 885 -139 q 369 -61 515 -139 q 142 156 224 17 q 61 471 61 294 m 250 471 q 307 244 250 343 q 467 90 364 144 q 700 35 569 35 q 933 90 831 35 q 1092 244 1035 144 q 1149 471 1149 343 q 1092 698 1149 599 q 933 852 1035 797 q 700 907 831 907 q 467 852 569 907 q 307 698 364 797 q 250 471 250 599 z "},"⑤":{"ha":1399,"x_min":61,"x_max":1338,"o":"m 704 219 q 492 393 499 219 l 663 393 q 672 371 663 379 q 694 363 681 363 q 718 372 708 363 q 728 396 728 382 q 718 419 728 410 q 694 429 708 429 l 496 429 l 525 713 l 879 713 l 879 575 l 675 575 l 672 539 l 743 539 q 860 497 815 539 q 906 385 906 454 q 851 265 906 310 q 704 219 796 219 m 61 471 q 142 786 61 647 q 369 1003 224 925 q 700 1081 515 1081 q 1030 1003 885 1081 q 1256 786 1175 925 q 1338 471 1338 647 q 1256 156 1338 294 q 1030 -61 1175 17 q 700 -139 885 -139 q 369 -61 515 -139 q 142 156 224 17 q 61 471 61 294 m 250 471 q 307 244 250 343 q 467 90 364 144 q 700 35 569 35 q 933 90 831 35 q 1092 244 1035 144 q 1149 471 1149 343 q 1092 698 1149 599 q 933 852 1035 797 q 700 907 831 907 q 467 852 569 907 q 307 698 364 797 q 250 471 250 599 z "},"⑥":{"ha":1399,"x_min":61,"x_max":1338,"o":"m 700 -139 q 369 -61 515 -139 q 142 156 224 17 q 61 471 61 294 q 142 786 61 647 q 369 1003 224 925 q 700 1081 515 1081 q 1030 1003 885 1081 q 1256 786 1175 925 q 1338 471 1338 647 q 1256 156 1338 294 q 1030 -61 1175 17 q 700 -139 885 -139 m 250 471 q 307 244 250 343 q 467 90 364 144 q 700 35 569 35 q 933 90 831 35 q 1092 244 1035 144 q 1149 471 1149 343 q 1092 698 1149 599 q 933 852 1035 797 q 700 907 831 907 q 467 852 569 907 q 307 698 364 797 q 250 471 250 599 m 479 390 q 492 456 479 422 q 539 549 504 489 l 631 714 l 849 714 l 750 558 l 758 558 q 876 512 832 558 q 921 396 921 465 q 860 267 921 315 q 699 219 800 219 q 540 267 600 219 q 479 390 479 314 m 660 399 q 671 372 660 383 q 699 360 682 360 q 728 371 717 360 q 739 399 739 382 q 728 426 739 415 q 699 438 717 438 q 671 426 682 438 q 660 399 660 415 z "},"⑦":{"ha":1399,"x_min":61,"x_max":1338,"o":"m 507 714 l 893 714 l 893 600 l 765 228 l 561 228 l 674 551 l 507 551 l 507 714 m 61 471 q 142 786 61 647 q 369 1003 224 925 q 700 1081 515 1081 q 1030 1003 885 1081 q 1256 786 1175 925 q 1338 471 1338 647 q 1256 156 1338 294 q 1030 -61 1175 17 q 700 -139 885 -139 q 369 -61 515 -139 q 142 156 224 17 q 61 471 61 294 m 250 471 q 307 244 250 343 q 467 90 364 144 q 700 35 569 35 q 933 90 831 35 q 1092 244 1035 144 q 1149 471 1149 343 q 1092 698 1149 599 q 933 852 1035 797 q 700 907 831 907 q 467 852 569 907 q 307 698 364 797 q 250 471 250 599 z "},"⑧":{"ha":1399,"x_min":61,"x_max":1338,"o":"m 700 219 q 535 258 596 219 q 475 364 475 297 q 493 431 475 401 q 546 478 511 461 q 486 582 486 514 q 544 684 486 646 q 700 722 603 722 q 857 684 799 722 q 915 582 915 646 q 856 478 915 515 q 907 431 889 461 q 925 364 925 401 q 865 258 925 297 q 700 219 804 219 m 61 471 q 142 786 61 647 q 369 1003 224 925 q 700 1081 515 1081 q 1030 1003 885 1081 q 1256 786 1175 925 q 1338 471 1338 647 q 1256 156 1338 294 q 1030 -61 1175 17 q 700 -139 885 -139 q 369 -61 515 -139 q 142 156 224 17 q 61 471 61 294 m 250 471 q 307 244 250 343 q 467 90 364 144 q 700 35 569 35 q 933 90 831 35 q 1092 244 1035 144 q 1149 471 1149 343 q 1092 698 1149 599 q 933 852 1035 797 q 700 907 831 907 q 467 852 569 907 q 307 698 364 797 q 250 471 250 599 m 661 379 q 672 352 661 363 q 700 342 683 342 q 728 351 718 342 q 739 379 739 361 q 728 406 739 396 q 700 415 718 415 q 672 406 682 415 q 661 379 661 396 m 663 567 q 673 542 663 551 q 700 532 683 532 q 727 542 717 532 q 738 567 738 551 q 728 594 738 585 q 700 604 718 604 q 673 594 683 604 q 663 567 663 585 z "},"⑨":{"ha":1399,"x_min":61,"x_max":1338,"o":"m 699 1081 q 1029 1003 883 1081 q 1256 786 1175 925 q 1338 471 1338 647 q 1256 156 1338 294 q 1029 -61 1175 17 q 699 -139 883 -139 q 369 -61 514 -139 q 142 156 224 17 q 61 471 61 294 q 142 786 61 647 q 369 1003 224 925 q 699 1081 514 1081 m 250 471 q 307 244 250 343 q 466 90 364 144 q 699 35 568 35 q 932 90 829 35 q 1092 244 1035 144 q 1149 471 1149 343 q 1092 698 1149 599 q 932 852 1035 797 q 699 907 829 907 q 466 852 568 907 q 307 698 364 797 q 250 471 250 599 m 478 546 q 538 674 478 626 q 700 722 599 722 q 859 675 799 722 q 919 551 919 628 q 907 486 919 519 q 860 393 894 453 l 768 228 l 550 228 l 649 383 l 640 383 q 522 430 567 383 q 478 546 478 476 m 660 543 q 671 515 660 526 q 700 504 682 504 q 728 515 717 504 q 739 543 739 526 q 728 570 739 558 q 700 582 717 582 q 671 571 682 582 q 660 543 660 560 z "},"⑩":{"ha":1399,"x_min":61,"x_max":1338,"o":"m 403 486 l 304 486 l 304 642 l 358 642 q 412 653 392 642 q 442 693 432 664 l 449 714 l 599 714 l 599 228 l 403 228 l 403 486 m 61 471 q 142 786 61 647 q 369 1003 224 925 q 700 1081 515 1081 q 1030 1003 885 1081 q 1256 786 1175 925 q 1338 471 1338 647 q 1256 156 1338 294 q 1030 -61 1175 17 q 700 -139 885 -139 q 369 -61 515 -139 q 142 156 224 17 q 61 471 61 294 m 250 471 q 307 244 250 343 q 467 90 364 144 q 700 35 569 35 q 933 90 831 35 q 1092 244 1035 144 q 1149 471 1149 343 q 1092 698 1149 599 q 933 852 1035 797 q 700 907 831 907 q 467 852 569 907 q 307 698 364 797 q 250 471 250 599 m 635 471 q 697 656 635 589 q 865 722 758 722 q 1034 656 972 722 q 1096 471 1096 589 q 1034 286 1096 353 q 865 219 972 219 q 697 286 758 219 q 635 471 635 353 m 819 471 q 831 406 819 426 q 865 386 842 386 q 901 406 890 386 q 913 471 913 426 q 901 535 913 515 q 865 556 890 556 q 831 535 842 556 q 819 471 819 515 z "},"₀":{"ha":540,"x_min":35,"x_max":506,"o":"m 269 -200 q 97 -133 160 -200 q 35 51 35 -67 q 97 236 35 169 q 269 303 160 303 q 443 236 381 303 q 506 51 506 169 q 443 -133 506 -67 q 269 -200 381 -200 m 222 51 q 269 -33 222 -33 q 306 -12 294 -33 q 318 51 318 8 q 306 115 318 94 q 269 136 294 136 q 222 51 222 136 z "},"₁":{"ha":390,"x_min":24,"x_max":318,"o":"m 122 67 l 24 67 l 24 222 l 78 222 q 131 233 111 222 q 161 274 151 244 l 168 294 l 318 294 l 318 -192 l 122 -192 l 122 67 z "},"₂":{"ha":496,"x_min":39,"x_max":440,"o":"m 39 -53 l 239 88 q 260 124 260 103 q 252 144 260 136 q 232 153 244 153 q 201 115 201 153 l 39 115 q 94 255 43 207 q 240 303 144 303 q 381 260 329 303 q 433 143 433 217 q 414 70 433 101 q 353 8 394 39 l 300 -32 l 301 -36 l 369 -32 l 440 -32 l 440 -192 l 39 -192 l 39 -53 z "},"₃":{"ha":490,"x_min":31,"x_max":449,"o":"m 247 -200 q 88 -156 143 -200 q 31 -26 33 -111 l 207 -26 q 239 -57 208 -57 q 261 -49 253 -57 q 269 -28 269 -42 q 260 -6 269 -14 q 238 3 251 3 l 147 3 l 147 99 l 208 151 l 208 154 l 156 153 l 50 153 l 50 294 l 425 294 l 425 171 l 346 104 q 421 50 393 89 q 449 -40 449 11 q 394 -157 449 -114 q 247 -200 340 -200 z "},"₄":{"ha":522,"x_min":22,"x_max":504,"o":"m 276 -115 l 22 -115 l 22 -3 l 156 294 l 356 294 l 238 33 l 299 33 l 318 135 l 449 135 l 449 39 l 504 39 l 504 -115 l 449 -115 l 449 -192 l 276 -192 l 276 -115 z "},"₅":{"ha":486,"x_min":38,"x_max":451,"o":"m 250 -200 q 38 -26 44 -200 l 208 -26 q 217 -49 208 -40 q 240 -57 225 -57 q 264 -47 254 -57 q 274 -24 274 -37 q 264 0 274 -10 q 240 10 254 10 l 42 10 l 71 293 l 424 293 l 424 156 l 221 156 l 218 119 l 289 119 q 406 77 361 119 q 451 -35 451 35 q 397 -154 451 -108 q 250 -200 342 -200 z "},"₆":{"ha":510,"x_min":32,"x_max":472,"o":"m 251 -200 q 92 -153 153 -200 q 32 -29 32 -106 q 44 35 32 3 q 90 129 57 68 l 182 294 l 400 294 l 303 139 l 310 139 q 428 92 383 139 q 472 -24 472 46 q 412 -152 472 -104 q 251 -200 351 -200 m 211 -21 q 223 -48 211 -36 q 251 -60 235 -60 q 279 -49 268 -60 q 290 -21 290 -37 q 279 7 290 -4 q 251 18 268 18 q 222 7 233 18 q 211 -21 211 -4 z "},"₇":{"ha":456,"x_min":35,"x_max":421,"o":"m 200 132 l 35 132 l 35 294 l 421 294 l 421 181 l 293 -192 l 88 -192 l 200 132 z "},"₈":{"ha":507,"x_min":28,"x_max":479,"o":"m 254 -200 q 88 -161 149 -200 q 28 -56 28 -122 q 46 12 28 -18 q 99 58 64 42 q 39 163 39 96 q 97 265 39 226 q 254 303 156 303 q 410 265 351 303 q 468 163 468 226 q 408 58 468 96 q 460 12 442 42 q 479 -56 479 -18 q 418 -161 479 -122 q 254 -200 357 -200 m 214 -40 q 225 -68 214 -58 q 254 -78 236 -78 q 283 -68 272 -78 q 293 -40 293 -58 q 283 -14 293 -24 q 254 -4 272 -4 q 225 -14 236 -4 q 214 -40 214 -24 m 215 147 q 226 122 215 132 q 254 113 236 113 q 281 122 269 113 q 292 147 292 132 q 281 175 292 165 q 254 185 271 185 q 226 174 238 185 q 215 147 215 164 z "},"₉":{"ha":510,"x_min":38,"x_max":478,"o":"m 258 303 q 417 256 357 303 q 478 132 478 208 q 465 67 478 100 q 419 -26 453 35 l 328 -192 l 110 -192 l 207 -36 l 200 -36 q 82 10 126 -36 q 38 126 38 57 q 98 255 38 207 q 258 303 158 303 m 219 124 q 231 96 219 107 q 258 85 242 85 q 288 96 276 85 q 299 124 299 107 q 288 151 299 140 q 258 163 276 163 q 231 151 242 163 q 219 124 219 140 z "},"⁰":{"ha":540,"x_min":35,"x_max":506,"o":"m 269 633 q 97 700 160 633 q 35 885 35 767 q 97 1069 35 1003 q 269 1136 160 1136 q 443 1069 381 1136 q 506 885 506 1003 q 443 700 506 767 q 269 633 381 633 m 222 885 q 269 800 222 800 q 306 821 294 800 q 318 885 318 842 q 306 949 318 928 q 269 969 294 969 q 222 885 222 969 z "},"¹":{"ha":390,"x_min":24,"x_max":318,"o":"m 122 900 l 24 900 l 24 1056 l 78 1056 q 131 1067 111 1056 q 161 1107 151 1078 l 168 1128 l 318 1128 l 318 642 l 122 642 l 122 900 z "},"²":{"ha":496,"x_min":39,"x_max":440,"o":"m 39 781 l 239 921 q 260 957 260 936 q 252 978 260 969 q 232 986 244 986 q 201 949 201 986 l 39 949 q 94 1088 43 1040 q 240 1136 144 1136 q 381 1093 329 1136 q 433 976 433 1050 q 414 903 433 935 q 353 842 394 872 l 300 801 l 301 797 l 369 801 l 440 801 l 440 642 l 39 642 l 39 781 z "},"³":{"ha":490,"x_min":31,"x_max":449,"o":"m 247 633 q 88 678 143 633 q 31 807 33 722 l 207 807 q 239 776 208 776 q 261 784 253 776 q 269 806 269 792 q 260 828 269 819 q 238 836 251 836 l 147 836 l 147 932 l 208 985 l 208 988 l 156 986 l 50 986 l 50 1128 l 425 1128 l 425 1004 l 346 938 q 421 883 393 922 q 449 793 449 844 q 394 676 449 719 q 247 633 340 633 z "},"⁴":{"ha":522,"x_min":22,"x_max":504,"o":"m 276 718 l 22 718 l 22 831 l 156 1128 l 356 1128 l 238 867 l 299 867 l 318 968 l 449 968 l 449 872 l 504 872 l 504 718 l 449 718 l 449 642 l 276 642 l 276 718 z "},"⁵":{"ha":486,"x_min":38,"x_max":451,"o":"m 250 633 q 38 807 44 633 l 208 807 q 217 785 208 793 q 240 776 225 776 q 264 786 254 776 q 274 810 274 796 q 264 833 274 824 q 240 843 254 843 l 42 843 l 71 1126 l 424 1126 l 424 989 l 221 989 l 218 953 l 289 953 q 406 910 361 953 q 451 799 451 868 q 397 679 451 725 q 250 633 342 633 z "},"⁶":{"ha":510,"x_min":32,"x_max":472,"o":"m 251 633 q 92 681 153 633 q 32 804 32 728 q 44 869 32 836 q 90 963 57 901 l 182 1128 l 400 1128 l 303 972 l 310 972 q 428 926 383 972 q 472 810 472 879 q 412 681 472 729 q 251 633 351 633 m 211 813 q 223 785 211 797 q 251 774 235 774 q 279 785 268 774 q 290 813 290 796 q 279 840 290 829 q 251 851 268 851 q 222 840 233 851 q 211 813 211 829 z "},"⁷":{"ha":456,"x_min":35,"x_max":421,"o":"m 200 965 l 35 965 l 35 1128 l 421 1128 l 421 1014 l 293 642 l 88 642 l 200 965 z "},"⁸":{"ha":507,"x_min":28,"x_max":479,"o":"m 254 633 q 88 672 149 633 q 28 778 28 711 q 46 845 28 815 q 99 892 64 875 q 39 996 39 929 q 97 1098 39 1060 q 254 1136 156 1136 q 410 1098 351 1136 q 468 996 468 1060 q 408 892 468 929 q 460 845 442 875 q 479 778 479 815 q 418 672 479 711 q 254 633 357 633 m 214 793 q 225 765 214 775 q 254 756 236 756 q 283 765 272 756 q 293 793 293 775 q 283 819 293 810 q 254 829 272 829 q 225 819 236 829 q 214 793 214 810 m 215 981 q 226 956 215 965 q 254 946 236 946 q 281 956 269 946 q 292 981 292 965 q 281 1008 292 999 q 254 1018 271 1018 q 226 1008 238 1018 q 215 981 215 997 z "},"⁹":{"ha":510,"x_min":38,"x_max":478,"o":"m 258 1133 q 417 1086 357 1133 q 478 963 478 1039 q 465 898 478 931 q 419 804 453 865 l 328 639 l 110 639 l 207 794 l 200 794 q 82 841 126 794 q 38 957 38 888 q 98 1085 38 1038 q 258 1133 158 1133 m 219 954 q 231 926 219 938 q 258 915 242 915 q 288 926 276 915 q 299 954 299 938 q 288 982 299 971 q 258 993 276 993 q 231 982 242 993 q 219 954 219 971 z "},"⁄":{"ha":322,"x_min":-256,"x_max":576,"o":"m 349 972 l 576 972 l -28 0 l -256 0 l 349 972 z "},"½":{"ha":1208,"x_min":24,"x_max":1153,"o":"m 122 744 l 24 744 l 24 900 l 78 900 q 131 911 111 900 q 161 951 151 922 l 168 972 l 318 972 l 318 486 l 122 486 l 122 744 m 739 972 l 967 972 l 363 0 l 135 0 l 739 972 m 751 139 l 951 279 q 972 315 972 294 q 965 336 972 328 q 944 344 957 344 q 914 307 914 344 l 751 307 q 806 447 756 399 q 953 494 857 494 q 1094 451 1042 494 q 1146 335 1146 408 q 1126 262 1146 293 q 1065 200 1107 231 l 1013 160 l 1014 156 l 1082 160 l 1153 160 l 1153 0 l 751 0 l 751 139 z "},"⅓":{"ha":1203,"x_min":24,"x_max":1161,"o":"m 122 744 l 24 744 l 24 900 l 78 900 q 131 911 111 900 q 161 951 151 922 l 168 972 l 318 972 l 318 486 l 122 486 l 122 744 m 739 972 l 967 972 l 363 0 l 135 0 l 739 972 m 960 -8 q 801 36 856 -8 q 743 165 746 81 l 919 165 q 951 135 921 135 q 974 142 965 135 q 982 164 982 150 q 973 186 982 178 q 950 194 964 194 l 860 194 l 860 290 l 921 343 l 921 346 l 868 344 l 763 344 l 763 486 l 1138 486 l 1138 363 l 1058 296 q 1133 242 1106 281 q 1161 151 1161 203 q 1107 35 1161 78 q 960 -8 1053 -8 z "},"⅔":{"ha":1308,"x_min":39,"x_max":1267,"o":"m 39 625 l 239 765 q 260 801 260 781 q 252 822 260 814 q 232 831 244 831 q 201 793 201 831 l 39 793 q 94 933 43 885 q 240 981 144 981 q 381 938 329 981 q 433 821 433 894 q 414 748 433 779 q 353 686 394 717 l 300 646 l 301 642 l 369 646 l 440 646 l 440 486 l 39 486 l 39 625 m 844 972 l 1072 972 l 468 0 l 240 0 l 844 972 m 1065 -8 q 906 36 961 -8 q 849 165 851 81 l 1025 165 q 1057 135 1026 135 q 1079 142 1071 135 q 1088 164 1088 150 q 1078 186 1088 178 q 1056 194 1069 194 l 965 194 l 965 290 l 1026 343 l 1026 346 l 974 344 l 868 344 l 868 486 l 1243 486 l 1243 363 l 1164 296 q 1239 242 1211 281 q 1267 151 1267 203 q 1213 35 1267 78 q 1065 -8 1158 -8 z "},"¼":{"ha":1235,"x_min":24,"x_max":1217,"o":"m 122 744 l 24 744 l 24 900 l 78 900 q 131 911 111 900 q 161 951 151 922 l 168 972 l 318 972 l 318 486 l 122 486 l 122 744 m 739 972 l 967 972 l 363 0 l 135 0 l 739 972 m 989 76 l 735 76 l 735 189 l 868 486 l 1068 486 l 950 225 l 1011 225 l 1031 326 l 1161 326 l 1161 231 l 1217 231 l 1217 76 l 1161 76 l 1161 0 l 989 0 l 989 76 z "},"¾":{"ha":1335,"x_min":31,"x_max":1317,"o":"m 247 478 q 88 522 143 478 q 31 651 33 567 l 207 651 q 239 621 208 621 q 261 628 253 621 q 269 650 269 636 q 260 672 269 664 q 238 681 251 681 l 147 681 l 147 776 l 208 829 l 208 832 l 156 831 l 50 831 l 50 972 l 425 972 l 425 849 l 346 782 q 421 728 393 767 q 449 638 449 689 q 394 521 449 564 q 247 478 340 478 m 839 972 l 1067 972 l 463 0 l 235 0 l 839 972 m 1089 76 l 835 76 l 835 189 l 968 486 l 1168 486 l 1050 225 l 1111 225 l 1131 326 l 1261 326 l 1261 231 l 1317 231 l 1317 76 l 1261 76 l 1261 0 l 1089 0 l 1089 76 z "},"⅕":{"ha":1199,"x_min":24,"x_max":1164,"o":"m 122 744 l 24 744 l 24 900 l 78 900 q 131 911 111 900 q 161 951 151 922 l 168 972 l 318 972 l 318 486 l 122 486 l 122 744 m 739 972 l 967 972 l 363 0 l 135 0 l 739 972 m 963 -8 q 750 165 757 -8 l 921 165 q 929 143 921 151 q 953 135 938 135 q 976 144 967 135 q 986 168 986 154 q 976 192 986 182 q 953 201 967 201 l 754 201 l 783 485 l 1136 485 l 1136 347 l 933 347 l 931 311 l 1001 311 q 1119 269 1074 311 q 1164 157 1164 226 q 1109 38 1164 83 q 963 -8 1054 -8 z "},"⅖":{"ha":1304,"x_min":39,"x_max":1269,"o":"m 39 625 l 239 765 q 260 801 260 781 q 252 822 260 814 q 232 831 244 831 q 201 793 201 831 l 39 793 q 94 933 43 885 q 240 981 144 981 q 381 938 329 981 q 433 821 433 894 q 414 748 433 779 q 353 686 394 717 l 300 646 l 301 642 l 369 646 l 440 646 l 440 486 l 39 486 l 39 625 m 844 972 l 1072 972 l 468 0 l 240 0 l 844 972 m 1068 -8 q 856 165 863 -8 l 1026 165 q 1035 143 1026 151 q 1058 135 1043 135 q 1082 144 1072 135 q 1092 168 1092 154 q 1082 192 1092 182 q 1058 201 1072 201 l 860 201 l 889 485 l 1242 485 l 1242 347 l 1039 347 l 1036 311 l 1107 311 q 1224 269 1179 311 q 1269 157 1269 226 q 1215 38 1269 83 q 1068 -8 1160 -8 z "},"⅗":{"ha":1299,"x_min":31,"x_max":1264,"o":"m 247 478 q 88 522 143 478 q 31 651 33 567 l 207 651 q 239 621 208 621 q 261 628 253 621 q 269 650 269 636 q 260 672 269 664 q 238 681 251 681 l 147 681 l 147 776 l 208 829 l 208 832 l 156 831 l 50 831 l 50 972 l 425 972 l 425 849 l 346 782 q 421 728 393 767 q 449 638 449 689 q 394 521 449 564 q 247 478 340 478 m 839 972 l 1067 972 l 463 0 l 235 0 l 839 972 m 1063 -8 q 850 165 857 -8 l 1021 165 q 1029 143 1021 151 q 1053 135 1038 135 q 1076 144 1067 135 q 1086 168 1086 154 q 1076 192 1086 182 q 1053 201 1067 201 l 854 201 l 883 485 l 1236 485 l 1236 347 l 1033 347 l 1031 311 l 1101 311 q 1219 269 1174 311 q 1264 157 1264 226 q 1209 38 1264 83 q 1063 -8 1154 -8 z "},"⅘":{"ha":1331,"x_min":22,"x_max":1296,"o":"m 276 563 l 22 563 l 22 675 l 156 972 l 356 972 l 238 711 l 299 711 l 318 813 l 449 813 l 449 717 l 504 717 l 504 563 l 449 563 l 449 486 l 276 486 l 276 563 m 871 972 l 1099 972 l 494 0 l 267 0 l 871 972 m 1094 -8 q 882 165 889 -8 l 1053 165 q 1061 143 1053 151 q 1085 135 1069 135 q 1108 144 1099 135 q 1118 168 1118 154 q 1108 192 1118 182 q 1085 201 1099 201 l 886 201 l 915 485 l 1268 485 l 1268 347 l 1065 347 l 1063 311 l 1133 311 q 1251 269 1206 311 q 1296 157 1296 226 q 1241 38 1296 83 q 1094 -8 1186 -8 z "},"⅙":{"ha":1222,"x_min":24,"x_max":1185,"o":"m 122 744 l 24 744 l 24 900 l 78 900 q 131 911 111 900 q 161 951 151 922 l 168 972 l 318 972 l 318 486 l 122 486 l 122 744 m 739 972 l 967 972 l 363 0 l 135 0 l 739 972 m 964 -8 q 805 39 865 -8 q 744 163 744 86 q 757 227 744 194 q 803 321 769 260 l 894 486 l 1113 486 l 1015 331 l 1022 331 q 1140 284 1096 331 q 1185 168 1185 238 q 1124 40 1185 88 q 964 -8 1064 -8 m 924 171 q 935 144 924 156 q 964 132 947 132 q 992 143 981 132 q 1003 171 1003 154 q 992 199 1003 188 q 964 210 981 210 q 935 199 946 210 q 924 171 924 188 z "},"⅚":{"ha":1318,"x_min":38,"x_max":1281,"o":"m 250 478 q 38 651 44 478 l 208 651 q 217 629 208 638 q 240 621 225 621 q 264 631 254 621 q 274 654 274 640 q 264 678 274 668 q 240 688 254 688 l 42 688 l 71 971 l 424 971 l 424 833 l 221 833 l 218 797 l 289 797 q 406 755 361 797 q 451 643 451 713 q 397 524 451 569 q 250 478 342 478 m 835 972 l 1063 972 l 458 0 l 231 0 l 835 972 m 1060 -8 q 901 39 961 -8 q 840 163 840 86 q 853 227 840 194 q 899 321 865 260 l 990 486 l 1208 486 l 1111 331 l 1118 331 q 1236 284 1192 331 q 1281 168 1281 238 q 1220 40 1281 88 q 1060 -8 1160 -8 m 1019 171 q 1031 144 1019 156 q 1060 132 1043 132 q 1088 143 1076 132 q 1099 171 1099 154 q 1088 199 1099 188 q 1060 210 1076 210 q 1031 199 1042 210 q 1019 171 1019 188 z "},"⅐":{"ha":1168,"x_min":24,"x_max":1133,"o":"m 122 744 l 24 744 l 24 900 l 78 900 q 131 911 111 900 q 161 951 151 922 l 168 972 l 318 972 l 318 486 l 122 486 l 122 744 m 739 972 l 967 972 l 363 0 l 135 0 l 739 972 m 913 324 l 747 324 l 747 486 l 1133 486 l 1133 372 l 1006 0 l 800 0 l 913 324 z "},"⅛":{"ha":1219,"x_min":24,"x_max":1192,"o":"m 122 744 l 24 744 l 24 900 l 78 900 q 131 911 111 900 q 161 951 151 922 l 168 972 l 318 972 l 318 486 l 122 486 l 122 744 m 739 972 l 967 972 l 363 0 l 135 0 l 739 972 m 967 -8 q 801 31 861 -8 q 740 136 740 69 q 758 203 740 174 q 811 250 776 233 q 751 354 751 288 q 810 456 751 418 q 967 494 868 494 q 1122 456 1064 494 q 1181 354 1181 418 q 1121 250 1181 288 q 1173 203 1154 233 q 1192 136 1192 174 q 1131 31 1192 69 q 967 -8 1069 -8 m 926 151 q 938 124 926 133 q 967 114 949 114 q 995 124 985 114 q 1006 151 1006 133 q 995 178 1006 168 q 967 188 985 188 q 938 178 949 188 q 926 151 926 168 m 928 339 q 938 314 928 324 q 967 304 949 304 q 993 314 982 304 q 1004 339 1004 324 q 994 367 1004 357 q 967 376 983 376 q 939 366 950 376 q 928 339 928 356 z "},"⅜":{"ha":1319,"x_min":31,"x_max":1292,"o":"m 247 478 q 88 522 143 478 q 31 651 33 567 l 207 651 q 239 621 208 621 q 261 628 253 621 q 269 650 269 636 q 260 672 269 664 q 238 681 251 681 l 147 681 l 147 776 l 208 829 l 208 832 l 156 831 l 50 831 l 50 972 l 425 972 l 425 849 l 346 782 q 421 728 393 767 q 449 638 449 689 q 394 521 449 564 q 247 478 340 478 m 839 972 l 1067 972 l 463 0 l 235 0 l 839 972 m 1067 -8 q 901 31 961 -8 q 840 136 840 69 q 858 203 840 174 q 911 250 876 233 q 851 354 851 288 q 910 456 851 418 q 1067 494 968 494 q 1222 456 1164 494 q 1281 354 1281 418 q 1221 250 1281 288 q 1273 203 1254 233 q 1292 136 1292 174 q 1231 31 1292 69 q 1067 -8 1169 -8 m 1026 151 q 1038 124 1026 133 q 1067 114 1049 114 q 1095 124 1085 114 q 1106 151 1106 133 q 1095 178 1106 168 q 1067 188 1085 188 q 1038 178 1049 188 q 1026 151 1026 168 m 1028 339 q 1038 314 1028 324 q 1067 304 1049 304 q 1093 314 1082 304 q 1104 339 1104 324 q 1094 367 1104 357 q 1067 376 1083 376 q 1039 366 1050 376 q 1028 339 1028 356 z "},"⅝":{"ha":1315,"x_min":38,"x_max":1288,"o":"m 250 478 q 38 651 44 478 l 208 651 q 217 629 208 638 q 240 621 225 621 q 264 631 254 621 q 274 654 274 640 q 264 678 274 668 q 240 688 254 688 l 42 688 l 71 971 l 424 971 l 424 833 l 221 833 l 218 797 l 289 797 q 406 755 361 797 q 451 643 451 713 q 397 524 451 569 q 250 478 342 478 m 835 972 l 1063 972 l 458 0 l 231 0 l 835 972 m 1063 -8 q 897 31 957 -8 q 836 136 836 69 q 854 203 836 174 q 907 250 872 233 q 847 354 847 288 q 906 456 847 418 q 1063 494 964 494 q 1218 456 1160 494 q 1276 354 1276 418 q 1217 250 1276 288 q 1269 203 1250 233 q 1288 136 1288 174 q 1226 31 1288 69 q 1063 -8 1165 -8 m 1022 151 q 1033 124 1022 133 q 1063 114 1044 114 q 1091 124 1081 114 q 1101 151 1101 133 q 1091 178 1101 168 q 1063 188 1081 188 q 1033 178 1044 188 q 1022 151 1022 168 m 1024 339 q 1034 314 1024 324 q 1063 304 1044 304 q 1089 314 1078 304 q 1100 339 1100 324 q 1090 367 1100 357 q 1063 376 1079 376 q 1035 366 1046 376 q 1024 339 1024 356 z "},"⅞":{"ha":1285,"x_min":35,"x_max":1257,"o":"m 200 810 l 35 810 l 35 972 l 421 972 l 421 858 l 293 486 l 88 486 l 200 810 m 804 972 l 1032 972 l 428 0 l 200 0 l 804 972 m 1032 -8 q 866 31 926 -8 q 806 136 806 69 q 824 203 806 174 q 876 250 842 233 q 817 354 817 288 q 875 456 817 418 q 1032 494 933 494 q 1188 456 1129 494 q 1246 354 1246 418 q 1186 250 1246 288 q 1238 203 1219 233 q 1257 136 1257 174 q 1196 31 1257 69 q 1032 -8 1135 -8 m 992 151 q 1003 124 992 133 q 1032 114 1014 114 q 1060 124 1050 114 q 1071 151 1071 133 q 1060 178 1071 168 q 1032 188 1050 188 q 1003 178 1014 188 q 992 151 992 168 m 993 339 q 1003 314 993 324 q 1032 304 1014 304 q 1058 314 1047 304 q 1069 339 1069 324 q 1059 367 1069 357 q 1032 376 1049 376 q 1004 366 1015 376 q 993 339 993 356 z "},"⅑":{"ha":1222,"x_min":24,"x_max":1190,"o":"m 122 744 l 24 744 l 24 900 l 78 900 q 131 911 111 900 q 161 951 151 922 l 168 972 l 318 972 l 318 486 l 122 486 l 122 744 m 739 972 l 967 972 l 363 0 l 135 0 l 739 972 m 971 494 q 1130 447 1069 494 q 1190 324 1190 400 q 1178 259 1190 292 q 1132 165 1165 226 l 1040 0 l 822 0 l 919 156 l 913 156 q 794 202 839 156 q 750 318 750 249 q 810 447 750 399 q 971 494 871 494 m 932 315 q 943 288 932 299 q 971 276 954 276 q 1000 288 989 276 q 1011 315 1011 299 q 1000 343 1011 332 q 971 354 989 354 q 943 343 954 354 q 932 315 932 332 z "}," ":{"ha":310,"x_min":0,"x_max":0,"o":""}," ":{"ha":194,"x_min":0,"x_max":0,"o":""},"​":{"ha":0,"x_min":0,"x_max":0,"o":""},".":{"ha":397,"x_min":32,"x_max":364,"o":"m 199 -18 q 78 26 125 -18 q 32 140 32 71 q 78 256 32 211 q 199 300 125 300 q 318 256 272 300 q 364 140 364 211 q 317 26 364 71 q 199 -18 271 -18 z "},",":{"ha":418,"x_min":32,"x_max":385,"o":"m 103 -111 q 176 -78 150 -101 q 207 -12 201 -54 l 194 -12 q 77 31 122 -12 q 32 142 32 74 q 79 256 32 211 q 200 300 126 300 q 335 237 286 300 q 385 78 385 174 q 351 -77 385 -4 q 254 -197 318 -150 q 103 -249 190 -244 l 103 -111 z "},":":{"ha":397,"x_min":32,"x_max":364,"o":"m 199 -18 q 78 26 125 -18 q 32 140 32 71 q 78 256 32 211 q 199 300 125 300 q 318 256 272 300 q 364 140 364 211 q 317 26 364 71 q 199 -18 271 -18 m 199 450 q 78 494 125 450 q 32 608 32 539 q 78 724 32 679 q 199 768 125 768 q 318 724 272 768 q 364 608 364 679 q 317 494 364 539 q 199 450 271 450 z "},";":{"ha":418,"x_min":32,"x_max":385,"o":"m 103 -106 q 176 -72 150 -96 q 207 -7 201 -49 l 194 -7 q 77 36 122 -7 q 32 147 32 79 q 79 261 32 217 q 200 306 126 306 q 335 242 286 306 q 385 83 385 179 q 351 -72 385 1 q 254 -192 318 -144 q 103 -243 190 -239 l 103 -106 m 204 450 q 84 494 131 450 q 38 608 38 539 q 84 724 38 679 q 204 768 131 768 q 324 724 278 768 q 369 608 369 679 q 323 494 369 539 q 204 450 276 450 z "},"…":{"ha":1172,"x_min":32,"x_max":1140,"o":"m 199 -18 q 78 26 125 -18 q 32 140 32 71 q 78 256 32 211 q 199 300 125 300 q 318 256 272 300 q 364 140 364 211 q 317 26 364 71 q 199 -18 271 -18 m 586 -18 q 466 26 513 -18 q 419 140 419 71 q 466 256 419 211 q 586 300 513 300 q 706 256 660 300 q 751 140 751 211 q 705 26 751 71 q 586 -18 658 -18 m 975 -18 q 855 26 901 -18 q 808 140 808 71 q 855 256 808 211 q 975 300 901 300 q 1094 256 1049 300 q 1140 140 1140 211 q 1094 26 1140 71 q 975 -18 1047 -18 z "},"!":{"ha":442,"x_min":56,"x_max":388,"o":"m 58 972 l 383 972 l 367 363 l 75 363 l 58 972 m 56 140 q 102 254 56 210 q 221 299 149 299 q 341 254 294 299 q 388 140 388 210 q 341 26 388 71 q 221 -18 294 -18 q 102 26 149 -18 q 56 140 56 71 z "},"¡":{"ha":442,"x_min":54,"x_max":386,"o":"m 383 -293 l 58 -293 l 75 317 l 367 317 l 383 -293 m 54 539 q 101 653 54 608 q 221 697 147 697 q 340 653 293 697 q 386 539 386 608 q 340 425 386 469 q 221 381 293 381 q 101 425 147 381 q 54 539 54 469 z "},"?":{"ha":807,"x_min":31,"x_max":771,"o":"m 239 418 q 272 547 239 501 q 389 625 306 593 q 456 661 436 643 q 476 706 476 679 q 456 751 476 735 q 396 767 435 767 q 308 683 310 767 l 31 683 q 135 911 36 829 q 406 993 235 993 q 598 958 515 993 q 726 858 681 922 q 771 707 771 793 q 733 578 771 632 q 618 490 696 525 q 549 446 571 469 q 528 392 528 422 l 528 367 l 239 367 l 239 418 m 218 140 q 265 254 218 210 q 383 299 311 299 q 503 254 457 299 q 550 140 550 210 q 503 26 550 71 q 383 -18 457 -18 q 265 26 311 -18 q 218 140 218 71 z "},"¿":{"ha":807,"x_min":36,"x_max":776,"o":"m 568 263 q 535 133 568 179 q 418 56 501 88 q 351 19 371 38 q 331 -25 331 1 q 351 -70 331 -54 q 411 -86 372 -86 q 499 -3 497 -86 l 776 -3 q 672 -231 771 -149 q 401 -312 572 -312 q 209 -277 292 -312 q 81 -177 126 -242 q 36 -26 36 -112 q 74 102 36 49 q 189 190 111 156 q 258 235 236 211 q 279 289 279 258 l 279 314 l 568 314 l 568 263 m 257 540 q 303 654 257 610 q 424 699 350 699 q 542 654 496 699 q 589 540 589 610 q 542 426 589 471 q 424 382 496 382 q 303 426 350 382 q 257 540 257 471 z "},"·":{"ha":397,"x_min":32,"x_max":364,"o":"m 199 260 q 78 304 125 260 q 32 418 32 349 q 78 533 32 489 q 199 578 125 578 q 318 533 272 578 q 364 418 364 489 q 317 304 364 349 q 199 260 271 260 z "},"•":{"ha":582,"x_min":31,"x_max":550,"o":"m 292 176 q 157 208 217 176 q 64 295 97 239 q 31 424 31 351 q 64 554 31 497 q 157 642 97 611 q 292 674 217 674 q 426 642 367 674 q 517 554 485 611 q 550 424 550 497 q 517 295 550 351 q 426 208 485 239 q 292 176 367 176 z "},"*":{"ha":693,"x_min":68,"x_max":624,"o":"m 274 628 l 269 631 l 164 547 l 68 713 l 190 760 l 190 765 l 68 813 l 164 978 l 269 894 l 274 897 l 251 1028 l 440 1028 l 419 897 l 424 894 l 529 978 l 624 813 l 503 765 l 503 760 l 624 713 l 529 547 l 424 631 l 419 628 l 440 497 l 251 497 l 274 628 z "},"‽":{"ha":803,"x_min":31,"x_max":767,"o":"m 226 654 l 454 654 q 472 701 472 676 q 452 746 472 728 q 393 764 432 764 q 330 744 353 764 q 304 694 307 725 l 31 694 q 134 912 38 831 q 399 993 231 993 q 600 953 517 993 q 725 849 683 914 q 767 710 767 785 q 726 582 767 638 q 597 482 685 526 q 530 438 546 456 q 514 385 514 419 l 514 365 l 242 365 l 226 654 m 217 140 q 263 254 217 210 q 382 299 310 299 q 501 254 454 299 q 549 140 549 210 q 502 26 549 71 q 382 -18 456 -18 q 263 26 308 -18 q 217 140 217 71 z "},"#":{"ha":1115,"x_min":39,"x_max":1076,"o":"m 564 197 l 429 197 l 388 0 l 93 0 l 135 197 l 39 197 l 39 435 l 185 435 l 210 554 l 68 554 l 68 790 l 260 790 l 299 972 l 593 972 l 554 790 l 690 790 l 728 972 l 1022 972 l 983 790 l 1076 790 l 1076 554 l 933 554 l 908 435 l 1047 435 l 1047 197 l 858 197 l 817 0 l 522 0 l 564 197 m 621 410 l 657 579 l 500 579 l 463 410 l 621 410 z "},"/":{"ha":857,"x_min":90,"x_max":767,"o":"m 464 1061 l 767 1061 l 393 -89 l 90 -89 l 464 1061 z "},"\\":{"ha":857,"x_min":90,"x_max":767,"o":"m 90 1061 l 393 1061 l 767 -89 l 464 -89 l 90 1061 z "},"-":{"ha":619,"x_min":69,"x_max":550,"o":"m 69 453 l 550 453 l 550 244 l 69 244 l 69 453 z "},"­":{"ha":619,"x_min":69,"x_max":550,"o":"m 69 453 l 550 453 l 550 244 l 69 244 l 69 453 z "},"–":{"ha":813,"x_min":69,"x_max":743,"o":"m 69 453 l 743 453 l 743 244 l 69 244 l 69 453 z "},"—":{"ha":1004,"x_min":69,"x_max":935,"o":"m 69 453 l 935 453 l 935 244 l 69 244 l 69 453 z "},"_":{"ha":661,"x_min":13,"x_max":649,"o":"m 13 -58 l 649 -58 l 649 -239 l 13 -239 l 13 -58 z "},"(":{"ha":706,"x_min":132,"x_max":654,"o":"m 319 -212 q 132 417 132 75 q 319 1046 132 757 l 654 1046 q 460 417 460 738 q 654 -212 460 96 l 319 -212 z "},")":{"ha":706,"x_min":51,"x_max":574,"o":"m 386 1046 q 574 417 574 758 q 386 -212 574 78 l 51 -212 q 246 417 246 96 q 51 1046 246 738 l 386 1046 z "},"{":{"ha":725,"x_min":85,"x_max":674,"o":"m 436 -212 q 260 -151 321 -212 q 199 25 199 -90 l 199 201 q 119 281 199 281 l 85 281 l 85 553 l 119 553 q 199 632 199 553 l 199 808 q 260 985 199 924 q 436 1046 321 1046 l 674 1046 l 674 774 l 586 774 q 526 754 546 774 q 507 694 507 735 l 507 576 q 411 417 507 456 l 411 414 q 507 254 507 378 l 507 139 q 526 78 507 97 q 586 60 546 60 l 674 60 l 674 -212 l 436 -212 z "},"}":{"ha":725,"x_min":51,"x_max":640,"o":"m 289 1046 q 465 985 404 1046 q 526 808 526 924 l 526 632 q 606 553 526 553 l 640 553 l 640 281 l 606 281 q 526 201 526 281 l 526 25 q 465 -151 526 -90 q 289 -212 404 -212 l 51 -212 l 51 60 l 139 60 q 199 79 179 60 q 218 139 218 99 l 218 257 q 314 417 218 378 l 314 419 q 218 579 218 456 l 218 694 q 199 755 218 736 q 139 774 179 774 l 51 774 l 51 1046 l 289 1046 z "},"[":{"ha":647,"x_min":88,"x_max":599,"o":"m 88 1046 l 599 1046 l 599 774 l 396 774 l 396 60 l 599 60 l 599 -212 l 88 -212 l 88 1046 z "},"]":{"ha":647,"x_min":49,"x_max":560,"o":"m 560 -212 l 49 -212 l 49 60 l 251 60 l 251 774 l 49 774 l 49 1046 l 560 1046 l 560 -212 z "},"‚":{"ha":393,"x_min":32,"x_max":360,"o":"m 99 -103 q 167 -73 143 -94 q 194 -11 190 -51 l 183 -11 q 74 28 115 -11 q 32 132 32 68 q 76 238 32 196 q 189 279 121 279 q 315 221 269 279 q 360 72 360 163 q 329 -72 360 -3 q 239 -184 299 -140 q 99 -231 179 -228 l 99 -103 z "},"„":{"ha":750,"x_min":32,"x_max":717,"o":"m 99 -103 q 167 -73 143 -94 q 194 -11 190 -51 l 183 -11 q 74 28 115 -11 q 32 132 32 68 q 76 238 32 196 q 189 279 121 279 q 315 221 269 279 q 360 72 360 163 q 329 -72 360 -3 q 239 -184 299 -140 q 99 -231 179 -228 l 99 -103 m 456 -103 q 524 -73 500 -94 q 551 -11 547 -51 l 540 -11 q 431 28 472 -11 q 389 132 389 68 q 433 238 389 196 q 546 279 478 279 q 672 221 626 279 q 717 72 717 163 q 686 -72 717 -3 q 596 -184 656 -140 q 456 -231 536 -228 l 456 -103 z "},"“":{"ha":750,"x_min":32,"x_max":717,"o":"m 651 907 q 584 876 607 897 q 556 815 561 854 l 565 815 q 675 775 633 815 q 717 671 717 735 q 673 565 717 607 q 561 524 629 524 q 435 582 481 524 q 389 731 389 640 q 420 874 389 806 q 511 987 451 943 q 651 1035 571 1031 l 651 907 m 32 731 q 63 874 32 806 q 154 987 94 943 q 294 1035 214 1031 l 294 907 q 227 876 250 897 q 199 815 204 854 l 208 815 q 318 775 276 815 q 360 671 360 735 q 316 565 360 607 q 204 524 272 524 q 78 582 124 524 q 32 731 32 640 z "},"”":{"ha":750,"x_min":32,"x_max":717,"o":"m 99 653 q 167 683 143 661 q 194 744 190 704 l 183 744 q 74 784 115 744 q 32 888 32 824 q 76 993 32 951 q 189 1035 121 1035 q 315 976 269 1035 q 360 828 360 918 q 329 684 360 753 q 239 572 299 615 q 99 525 179 528 l 99 653 m 456 653 q 524 683 500 661 q 551 744 547 704 l 540 744 q 431 784 472 744 q 389 888 389 824 q 433 993 389 951 q 546 1035 478 1035 q 672 976 626 1035 q 717 828 717 918 q 686 684 717 753 q 596 572 656 615 q 456 525 536 528 l 456 653 z "},"‘":{"ha":393,"x_min":32,"x_max":360,"o":"m 294 907 q 227 876 250 897 q 199 815 204 854 l 208 815 q 318 775 276 815 q 360 671 360 735 q 316 565 360 607 q 204 524 272 524 q 78 582 124 524 q 32 731 32 640 q 63 874 32 806 q 154 987 94 943 q 294 1035 214 1031 l 294 907 z "},"’":{"ha":393,"x_min":32,"x_max":360,"o":"m 99 654 q 167 684 143 663 q 194 746 190 706 l 183 746 q 74 785 115 746 q 32 889 32 825 q 76 994 32 953 q 189 1036 121 1036 q 315 978 269 1036 q 360 829 360 919 q 329 685 360 754 q 239 573 299 617 q 99 526 179 529 l 99 654 z "},"«":{"ha":1214,"x_min":88,"x_max":1165,"o":"m 88 386 l 292 711 l 660 711 l 456 386 l 661 61 l 293 61 l 88 386 m 592 386 l 796 711 l 1164 711 l 960 386 l 1165 61 l 797 61 l 592 386 z "},"»":{"ha":1214,"x_min":47,"x_max":1126,"o":"m 1126 386 l 922 61 l 554 61 l 758 386 l 553 711 l 921 711 l 1126 386 m 415 711 l 621 386 l 417 61 l 49 61 l 253 386 l 47 711 l 415 711 z "},"‹":{"ha":708,"x_min":88,"x_max":661,"o":"m 88 386 l 292 711 l 660 711 l 456 386 l 661 61 l 293 61 l 88 386 z "},"›":{"ha":708,"x_min":47,"x_max":621,"o":"m 621 386 l 417 61 l 49 61 l 253 386 l 47 711 l 415 711 l 621 386 z "},"\"":{"ha":708,"x_min":44,"x_max":663,"o":"m 44 972 l 315 972 l 304 574 l 57 574 l 44 972 m 392 972 l 663 972 l 651 574 l 404 574 l 392 972 z "},"'":{"ha":361,"x_min":44,"x_max":315,"o":"m 44 972 l 315 972 l 304 574 l 57 574 l 44 972 z "},"ƒ":{"ha":835,"x_min":-29,"x_max":821,"o":"m -29 -14 l 74 -14 q 154 11 125 -14 q 193 101 183 36 l 251 496 l 85 496 l 85 740 l 288 740 l 293 779 q 393 1003 317 933 q 624 1072 469 1072 l 821 1072 l 821 839 l 681 839 q 617 819 639 839 q 589 751 596 800 l 586 731 l 806 731 l 806 496 l 561 496 l 496 65 q 437 -130 478 -56 q 321 -241 396 -204 q 124 -278 246 -278 l -29 -278 l -29 -14 z "},"☚":{"ha":1561,"x_min":51,"x_max":1431,"o":"m 628 63 l 628 67 q 656 132 656 94 q 618 210 656 178 l 618 215 q 656 294 656 244 q 645 342 656 319 q 617 376 635 364 l 617 382 q 656 460 656 411 q 627 534 656 504 q 544 564 599 564 l 126 564 q 71 579 90 564 q 51 624 51 594 q 71 670 51 654 q 126 686 90 686 l 693 686 l 693 657 q 726 563 693 596 q 815 531 760 531 l 849 531 l 849 575 l 817 575 q 739 660 739 575 l 739 732 l 518 732 q 429 753 456 732 q 403 829 403 775 l 403 875 l 844 875 q 988 828 940 875 q 1035 681 1035 782 l 1035 239 q 987 102 1035 142 q 847 63 939 63 l 628 63 m 263 458 q 282 503 263 488 q 338 519 301 519 l 535 519 q 590 503 571 519 q 610 458 610 488 q 590 413 610 428 q 535 397 571 397 l 338 397 q 282 413 301 397 q 263 458 263 428 m 285 290 q 304 335 285 319 q 360 351 324 351 l 535 351 q 590 335 571 351 q 610 290 610 319 q 590 245 610 261 q 535 229 571 229 l 360 229 q 304 245 324 229 q 285 290 285 261 m 344 124 q 364 169 344 153 q 419 185 383 185 l 535 185 q 590 169 571 185 q 610 124 610 153 q 590 78 610 94 q 535 63 571 63 l 419 63 q 364 78 383 63 q 344 124 344 94 m 1081 876 l 1431 876 l 1431 61 l 1081 61 l 1081 876 z "},"☛":{"ha":1561,"x_min":131,"x_max":1510,"o":"m 714 63 q 574 102 622 63 q 526 239 526 142 l 526 681 q 574 828 526 782 q 717 875 621 875 l 1158 875 l 1158 829 q 1132 753 1158 775 q 1043 732 1106 732 l 822 732 l 822 660 q 744 575 822 575 l 713 575 l 713 531 l 746 531 q 835 563 801 531 q 868 657 868 596 l 868 686 l 1435 686 q 1490 670 1471 686 q 1510 624 1510 654 q 1490 579 1510 594 q 1435 564 1471 564 l 1017 564 q 934 534 963 564 q 906 460 906 504 q 944 382 906 411 l 944 376 q 916 342 926 364 q 906 294 906 319 q 943 215 906 244 l 943 210 q 906 132 906 178 q 933 67 906 94 l 933 63 l 714 63 m 131 876 l 481 876 l 481 61 l 131 61 l 131 876 m 951 124 q 971 169 951 153 q 1026 185 990 185 l 1142 185 q 1197 169 1178 185 q 1217 124 1217 153 q 1197 78 1217 94 q 1142 63 1178 63 l 1026 63 q 971 78 990 63 q 951 124 951 94 m 951 290 q 971 335 951 319 q 1026 351 990 351 l 1201 351 q 1257 335 1238 351 q 1276 290 1276 319 q 1257 245 1276 261 q 1201 229 1238 229 l 1026 229 q 971 245 990 229 q 951 290 951 261 m 951 458 q 971 503 951 488 q 1026 519 990 519 l 1224 519 q 1279 503 1260 519 q 1299 458 1299 488 q 1279 413 1299 428 q 1224 397 1260 397 l 1026 397 q 971 413 990 397 q 951 458 951 428 z "},"☜":{"ha":1549,"x_min":51,"x_max":1418,"o":"m 1047 61 l 1047 106 q 906 61 997 61 l 490 61 q 388 93 422 61 q 353 172 353 125 q 371 229 353 207 q 308 314 308 256 q 331 374 308 347 q 285 409 301 386 q 269 460 269 432 q 274 488 269 475 l 174 488 q 84 521 117 488 q 51 604 51 554 q 84 692 51 656 q 174 728 117 728 l 433 728 q 415 792 415 754 l 415 881 l 908 881 q 1047 825 989 881 l 1047 881 l 1418 881 l 1418 61 l 1047 61 m 161 604 q 189 583 161 583 l 606 583 q 691 551 657 583 q 725 467 725 519 q 690 396 725 425 q 725 319 725 363 q 696 253 725 278 q 725 189 725 231 q 719 163 725 174 l 890 163 q 1050 308 1050 163 l 1050 619 q 1003 733 1050 686 q 890 779 957 779 l 531 779 q 599 721 531 721 l 826 721 l 826 640 q 844 575 826 594 q 906 556 861 556 l 951 556 l 951 465 l 900 465 q 771 504 810 465 q 731 625 732 543 l 189 625 q 161 604 161 625 m 379 465 q 386 449 379 456 q 401 443 393 443 l 590 443 q 606 449 600 443 q 613 465 613 456 q 606 479 613 474 q 590 485 600 485 l 401 485 q 386 479 393 485 q 379 465 379 474 m 410 325 q 415 309 410 315 q 431 303 421 303 l 603 303 q 618 309 613 303 q 624 325 624 315 q 618 339 624 333 q 603 344 613 344 l 431 344 q 416 339 422 344 q 410 325 410 333 m 458 183 q 465 169 458 175 q 481 163 472 163 l 601 163 q 617 169 611 163 q 624 183 624 175 q 617 198 624 192 q 601 204 611 204 l 481 204 q 465 198 472 204 q 458 183 458 192 m 1315 163 l 1315 779 l 1147 779 l 1147 163 l 1315 163 z "},"☝":{"ha":1082,"x_min":131,"x_max":950,"o":"m 131 -307 l 131 64 l 186 64 q 131 203 131 122 l 131 696 l 219 696 q 283 678 257 696 l 283 938 q 319 1027 283 994 q 407 1060 356 1060 q 490 1027 457 1060 q 524 938 524 994 l 524 838 q 551 842 536 842 q 602 826 579 842 q 638 781 625 810 q 697 803 664 803 q 782 740 756 803 q 839 758 804 758 q 918 724 886 758 q 950 621 950 689 l 950 206 q 906 64 950 114 l 950 64 l 950 -307 l 131 -307 m 849 -204 l 849 -36 l 232 -36 l 232 -204 l 849 -204 m 232 221 q 278 108 232 154 q 392 61 325 61 l 703 61 q 849 221 849 61 l 849 392 q 822 386 838 386 q 758 415 781 386 q 692 386 733 386 q 615 421 649 386 q 544 386 586 386 q 460 420 492 386 q 428 506 428 454 l 428 922 q 407 950 428 950 q 386 922 386 950 l 386 381 q 507 340 468 379 q 546 211 546 301 l 546 160 l 456 160 l 456 206 q 436 267 456 250 q 371 285 417 285 l 290 285 l 290 513 q 232 581 290 581 l 232 221 m 526 521 q 532 505 526 511 q 546 499 538 499 q 562 505 556 499 q 568 521 568 511 l 568 710 q 562 725 568 718 q 546 732 556 732 q 532 725 538 732 q 526 710 526 718 l 526 521 m 667 508 q 673 494 667 500 q 686 488 679 488 q 702 493 696 488 q 708 508 708 499 l 708 681 q 702 696 708 690 q 686 701 696 701 q 673 696 679 701 q 667 681 667 690 l 667 508 m 807 510 q 813 494 807 500 q 828 488 819 488 q 842 494 836 488 q 849 510 849 500 l 849 631 q 842 646 849 639 q 828 653 836 653 q 813 646 819 653 q 807 631 807 639 l 807 510 z "},"☞":{"ha":1549,"x_min":131,"x_max":1497,"o":"m 131 881 l 501 881 l 501 825 q 640 881 560 881 l 1133 881 l 1133 792 q 1115 728 1133 754 l 1375 728 q 1465 692 1432 728 q 1497 604 1497 656 q 1465 521 1497 554 q 1375 488 1432 488 l 1275 488 q 1279 460 1279 475 q 1263 409 1279 432 q 1218 374 1247 386 q 1240 314 1240 347 q 1178 229 1240 256 q 1196 172 1196 207 q 1161 93 1196 125 q 1058 61 1126 61 l 643 61 q 501 106 551 61 l 501 61 l 131 61 l 131 881 m 401 163 l 401 779 l 233 779 l 233 163 l 401 163 m 499 308 q 658 163 499 163 l 829 163 q 824 189 824 174 q 853 253 824 231 q 824 319 824 278 q 858 396 824 363 q 824 467 824 425 q 858 551 824 519 q 943 583 892 583 l 1360 583 q 1388 604 1388 583 q 1360 625 1388 625 l 818 625 q 778 504 817 543 q 649 465 739 465 l 597 465 l 597 556 l 643 556 q 705 575 688 556 q 722 640 722 594 l 722 721 l 950 721 q 1018 779 1018 721 l 658 779 q 545 733 592 779 q 499 619 499 686 l 499 308 m 925 183 q 931 169 925 175 q 947 163 938 163 l 1068 163 q 1083 169 1076 163 q 1090 183 1090 175 q 1083 198 1090 192 q 1068 204 1076 204 l 947 204 q 931 198 938 204 q 925 183 925 192 m 925 325 q 931 309 925 315 q 946 303 936 303 l 1118 303 q 1133 309 1128 303 q 1139 325 1139 315 q 1133 339 1139 333 q 1118 344 1128 344 l 946 344 q 931 339 938 344 q 925 325 925 333 m 936 465 q 942 449 936 456 q 958 443 949 443 l 1147 443 q 1163 449 1156 443 q 1169 465 1169 456 q 1163 479 1169 474 q 1147 485 1156 485 l 958 485 q 942 479 949 485 q 936 465 936 474 z "},"☟":{"ha":1082,"x_min":131,"x_max":950,"o":"m 950 738 l 906 738 q 950 596 950 688 l 950 181 q 918 78 950 113 q 839 43 886 43 q 782 61 804 43 q 697 -1 756 -1 q 638 21 664 -1 q 602 -24 625 -8 q 551 -40 579 -40 q 524 -36 536 -40 l 524 -136 q 490 -226 524 -193 q 407 -258 457 -258 q 319 -226 356 -258 q 283 -136 283 -193 l 283 124 q 219 106 257 106 l 131 106 l 131 599 q 186 738 131 679 l 131 738 l 131 1108 l 950 1108 l 950 738 m 232 221 q 290 289 290 221 l 290 517 l 371 517 q 436 534 417 517 q 456 596 456 551 l 456 642 l 546 642 l 546 590 q 507 461 546 500 q 386 421 468 422 l 386 -121 q 407 -149 386 -149 q 428 -121 428 -149 l 428 296 q 460 381 428 347 q 544 415 492 415 q 615 381 586 415 q 692 415 649 415 q 758 386 733 415 q 822 415 781 415 q 849 410 838 415 l 849 581 q 703 740 849 740 l 392 740 q 278 694 325 740 q 232 581 232 647 l 232 221 m 849 838 l 849 1006 l 232 1006 l 232 838 l 849 838 m 526 92 q 532 76 526 83 q 546 69 538 69 q 562 76 556 69 q 568 92 568 83 l 568 281 q 562 297 568 290 q 546 303 556 303 q 532 297 538 303 q 526 281 526 290 l 526 92 m 667 121 q 673 106 667 113 q 686 100 679 100 q 702 106 696 100 q 708 121 708 111 l 708 293 q 702 308 708 303 q 686 314 696 314 q 673 308 679 314 q 667 293 667 303 l 667 121 m 807 171 q 813 156 807 163 q 828 149 819 149 q 842 156 836 149 q 849 171 849 163 l 849 292 q 842 308 849 301 q 828 314 836 314 q 813 308 819 314 q 807 292 807 301 l 807 171 z "},"♡":{"ha":1240,"x_min":78,"x_max":1163,"o":"m 235 356 q 117 514 157 433 q 78 682 78 594 q 116 837 78 768 q 222 944 154 906 q 375 982 290 982 q 506 958 443 982 q 619 888 568 933 q 735 958 672 933 q 865 982 797 982 q 1018 944 950 982 q 1124 837 1086 906 q 1163 682 1163 768 q 1006 356 1163 515 l 621 -39 l 235 356 m 388 633 q 403 578 388 603 q 457 511 418 553 l 621 335 l 783 511 q 837 577 821 551 q 853 633 853 603 q 827 697 853 672 q 763 722 801 722 q 690 699 726 722 q 621 631 654 676 q 478 722 553 722 q 413 697 439 722 q 388 633 388 672 z "},"♥":{"ha":1240,"x_min":78,"x_max":1163,"o":"m 235 356 q 117 514 157 433 q 78 682 78 594 q 116 837 78 768 q 222 944 154 906 q 375 982 290 982 q 506 958 443 982 q 619 888 568 933 q 735 958 672 933 q 865 982 797 982 q 1018 944 950 982 q 1124 837 1086 906 q 1163 682 1163 768 q 1006 356 1163 515 l 621 -39 l 235 356 z "},"⚐":{"ha":1307,"x_min":131,"x_max":1196,"o":"m 131 1069 l 354 1069 l 354 958 q 458 968 404 968 q 708 913 575 968 q 968 858 839 858 q 1196 892 1074 858 l 1196 108 q 943 64 1068 64 q 631 129 799 64 q 517 166 565 154 q 424 178 468 178 q 353 171 394 178 l 353 -149 l 131 -149 l 131 1069 m 354 383 q 446 392 400 392 q 685 339 571 392 q 803 294 753 308 q 900 279 853 279 q 975 289 938 279 l 975 651 q 907 647 940 647 q 640 707 788 647 q 534 744 581 732 q 443 757 488 757 q 353 743 399 757 l 354 383 z "}}}
